<svg width="203" height="58" viewBox="0 0 203 58" fill="none" xmlns="http://www.w3.org/2000/svg">
<g id="dogecoin-a6169fa4">
<path id="Vector" d="M183.581 29.0677C183.079 30.4578 182.825 31.9078 182.448 33.3211C182.056 34.7943 181.676 36.2713 181.333 37.7561C181.238 38.1718 181.057 38.3033 180.623 38.2936C179.516 38.2704 178.406 38.2723 177.298 38.2936C176.849 38.2936 176.733 38.1989 176.847 37.7542C177.525 35.1036 178.175 32.4453 178.82 29.7889C178.975 29.248 179.049 28.6887 179.037 28.1281C178.981 27.1112 178.41 26.5621 177.353 26.5061C175.465 26.4055 175.367 26.4809 174.933 28.219C174.139 31.3955 173.327 34.5661 172.547 37.7465C172.45 38.1467 172.298 38.3071 171.851 38.2975C170.743 38.2704 169.634 38.2762 168.526 38.2975C168.096 38.2975 167.935 38.2221 168.053 37.7658C169.198 33.3191 170.321 28.8551 171.455 24.4007C171.508 24.1938 171.532 23.9753 171.823 23.8845C174.387 23.0802 176.999 22.6703 179.687 23.0899C181.717 23.4089 183.043 24.5225 183.453 26.5022C183.465 26.5563 183.536 26.5969 183.581 26.6433V29.0677Z" fill="#404F55"/>
<path id="Vector_2" d="M107.474 36.7217C106.4 37.2056 105.203 37.3867 104.023 37.2437C101.348 36.9247 99.7158 35.1712 99.5575 32.4877C99.2692 27.3683 102.546 23.6621 107.921 22.9931C110.2 22.7096 112.517 22.9899 114.649 23.8071C115.022 23.9463 115.223 24.0932 115.109 24.5398C114.027 28.7564 112.97 32.9788 111.898 37.1973C111.785 37.6084 111.649 38.0137 111.492 38.4115C110.343 41.4797 108.063 43.2274 104.651 43.5541C102.402 43.7687 100.185 43.6411 98.0472 42.7808C97.5031 42.5623 97.3996 42.369 97.6736 41.8625C98.032 41.1821 98.3433 40.48 98.6054 39.7609C98.7922 39.2699 98.9769 39.1268 99.5534 39.3743C101.151 40.0768 102.939 40.2837 104.667 39.9659C105.454 39.8135 106.163 39.408 106.674 38.8174C107.185 38.2269 107.468 37.487 107.474 36.7217ZM103.975 31.5288C104.017 32.2403 104.017 33.1702 104.99 33.6361C106.053 34.1407 107.101 33.8836 108.1 33.3867C108.225 33.3237 108.334 33.235 108.419 33.127C108.504 33.0191 108.563 32.8945 108.591 32.7623C109.068 30.8676 109.541 28.9729 110.032 27.0841C110.15 26.6317 109.988 26.5157 109.525 26.477C106.321 26.2025 103.997 28.2267 103.975 31.5288Z" fill="#404F55"/>
<path id="Vector_3" d="M66.3026 32.5186C66.2925 27.9018 69.4633 24.1125 74.0897 23.2212C75.1272 22.9857 76.2055 22.9639 77.2524 23.1574C77.8411 23.285 78.0117 23.0724 78.1294 22.5774C78.5354 20.851 79.0043 19.14 79.4043 17.4154C79.5017 16.9959 79.6763 16.8064 80.1147 16.7484C81.3328 16.5899 82.544 16.4127 83.7484 16.2168C84.3026 16.1278 84.1342 16.4372 84.0712 16.6866C83.5109 18.9202 82.9452 21.1558 82.3741 23.3933C81.6576 26.2218 80.9328 29.0483 80.2305 31.8806C79.7937 33.7051 79.8856 35.6082 80.4964 37.3868C80.6649 37.903 80.5654 38.048 80.0072 38.0924C79.1618 38.1643 78.3214 38.2818 77.49 38.4443C76.9114 38.5564 76.5176 38.4443 76.3775 37.8759C76.209 37.1741 75.9045 37.2959 75.3909 37.6265C73.1173 39.0726 70.1901 39.0378 68.3184 37.5569C66.8426 36.3969 66.4549 34.7613 66.3047 33.0503C66.2884 32.8782 66.3026 32.6965 66.3026 32.5186ZM75.8944 26.5446C71.4852 26.4383 69.8348 31.7646 71.201 34.247C71.6375 35.0397 72.4373 35.1654 73.2696 35.0996C73.7052 35.0726 74.1289 34.9527 74.5094 34.7489C74.8899 34.5452 75.2175 34.2627 75.4681 33.9222C75.5046 33.8758 75.4884 33.7927 75.4965 33.7289C75.734 31.5868 76.3613 29.522 76.883 27.4359C77.086 26.622 77.0657 26.5968 76.1786 26.5504C76.0832 26.5408 75.9898 26.5466 75.8944 26.5446Z" fill="#404F55"/>
<path id="Vector_4" d="M150.692 38.6666C146.685 38.6666 144.411 36.6463 144.257 32.9266C144.125 29.7327 145.215 26.9216 147.809 24.766C149.874 23.0492 152.296 22.5368 154.945 23.0724C157.381 23.5634 158.901 25.1797 159.232 27.8284C159.679 31.4012 158.623 34.5332 155.678 36.9421C154.305 38.0982 152.523 38.7146 150.692 38.6666ZM148.688 31.8845C148.711 32.5708 148.711 33.0832 148.857 33.5878C149.19 34.7246 150.004 35.2446 151.234 35.0822C152.348 34.9334 153.124 34.3089 153.702 33.4505C154.708 31.9707 155.108 30.1913 154.829 28.449C154.626 26.9139 153.666 26.243 152.076 26.5369C151.519 26.65 151.01 26.9194 150.615 27.3102C149.206 28.6133 148.757 30.2566 148.688 31.8787V31.8845Z" fill="#404F55"/>
<path id="Vector_5" d="M89.2615 38.6668C85.6075 38.6668 83.3867 36.9075 83.0822 33.3598C82.7513 29.4932 84.154 26.2065 87.7045 24.0025C89.7243 22.7458 91.9573 22.568 94.2309 23.2002C96.0965 23.7241 97.2313 24.9846 97.7895 26.7324C98.9344 30.3264 97.2455 35.0573 94.036 37.242C92.5785 38.2415 91.1798 38.6552 89.2615 38.6668ZM93.6788 29.5125C93.6605 29.209 93.6544 28.8958 93.624 28.5845C93.4372 26.7072 91.797 25.8914 90.0613 26.8194C89.6706 27.0285 89.326 27.3075 89.0463 27.641C87.607 29.3636 87.199 31.3337 87.6111 33.441C87.8709 34.7828 88.8007 35.2835 90.2136 35.0302C90.8192 34.9238 91.3749 34.6399 91.803 34.2182C93.1591 32.9171 93.6158 31.2873 93.6788 29.5048V29.5125Z" fill="#404F55"/>
<path id="Vector_6" d="M122.443 38.6529C121.209 38.6819 120.084 38.593 119.018 38.1715C116.832 37.3054 115.803 35.6582 115.519 33.5006C114.956 29.226 117.652 24.2341 122.861 23.0876C124.054 22.7913 125.306 22.7846 126.503 23.0683C128.143 23.4956 129.345 24.4216 129.716 26.0495C130.137 27.9365 129.653 29.6146 128.08 30.9118C126.749 32.008 125.118 32.445 123.421 32.6982C122.421 32.8573 121.409 32.9394 120.395 32.9438C119.946 32.9438 119.885 33.1062 119.989 33.4677C120.251 34.4518 121.077 35.0376 122.378 35.1168C123.699 35.2084 125.027 35.0588 126.29 34.676C126.759 34.5291 126.87 34.6586 126.899 35.0627C126.952 35.8457 126.998 36.6287 127.102 37.404C127.161 37.7906 126.996 37.9144 126.659 38.013C125.299 38.4408 123.875 38.6569 122.443 38.6529ZM121.089 29.9935C121.402 29.9587 121.972 29.9258 122.524 29.8234C123.425 29.6552 124.335 29.4754 125.094 28.934C125.388 28.7241 125.604 28.4315 125.714 28.0977C125.823 27.7639 125.819 27.4058 125.703 27.0742C125.437 26.3878 124.834 26.2486 124.16 26.2448C122.412 26.2448 120.886 27.3854 120.218 29.2105C119.92 30.036 119.92 30.036 121.089 29.9935Z" fill="#404F55"/>
<path id="Vector_7" d="M137.615 38.6841C136.646 38.7035 135.68 38.5669 134.759 38.2801C132.455 37.4874 131.105 35.9175 130.831 33.6246C130.382 29.9513 131.399 26.7361 134.661 24.4993C137.542 22.5234 140.741 22.4422 144.03 23.5519C144.476 23.7008 144.464 23.8999 144.294 24.2441C143.906 25.0348 143.533 25.8333 143.185 26.6395C143.039 26.9797 142.875 27.0687 142.505 26.9121C141.459 26.4776 140.3 26.3517 139.178 26.5505C137.126 26.8734 135.699 28.4201 135.425 30.568C135.323 31.2079 135.306 31.8574 135.374 32.5013C135.618 34.2935 136.513 35.0881 138.419 35.0823C139.319 35.0924 140.214 34.9443 141.058 34.6454C141.442 34.5062 141.574 34.6164 141.604 34.9644C141.675 35.8112 141.734 36.6619 141.833 37.5067C141.876 37.8779 141.651 37.9765 141.367 38.0519C140.709 38.2259 140.057 38.4386 139.387 38.5469C138.8 38.6242 138.208 38.6701 137.615 38.6841Z" fill="#404F55"/>
<path id="Vector_8" d="M162.006 38.2936C161.442 38.2936 160.875 38.2762 160.309 38.2936C159.868 38.311 159.745 38.2182 159.862 37.762C160.628 34.7885 161.356 31.8054 162.095 28.8261C162.501 27.1731 162.932 25.524 163.326 23.8671C163.427 23.4379 163.579 23.2349 164.105 23.26C165.165 23.3122 166.228 23.3122 167.288 23.26C167.913 23.2291 167.919 23.463 167.804 23.9174C166.755 28.0418 165.712 32.1708 164.675 36.3042C164.556 36.7818 164.393 37.2554 164.324 37.7388C164.255 38.2221 164.006 38.3188 163.559 38.2936C163.045 38.2801 162.526 38.2936 162.006 38.2936Z" fill="#404F55"/>
<path id="Vector_9" d="M166.309 21.4332C164.823 21.4216 163.873 20.569 163.903 19.2659C163.936 17.7444 165.363 16.4336 166.993 16.4316C168.444 16.4316 169.429 17.3016 169.429 18.5873C169.421 18.9697 169.335 19.3468 169.174 19.6972C169.013 20.0475 168.78 20.364 168.49 20.6285C168.2 20.893 167.858 21.1003 167.484 21.2384C167.109 21.3765 166.71 21.4427 166.309 21.4332Z" fill="#404F55"/>
<path id="Vector_10" d="M37.5762 11.71C33.9856 11.71 30.4756 12.724 27.4902 14.6238C24.5047 16.5236 22.1779 19.2239 20.8038 22.3832C19.4297 25.5425 19.0702 29.0189 19.7707 32.3728C20.4712 35.7267 22.2002 38.8075 24.7392 41.2255C27.2781 43.6435 30.5129 45.2902 34.0344 45.9573C37.556 46.6245 41.2063 46.2821 44.5235 44.9735C47.8408 43.6648 50.6761 41.4488 52.6709 38.6055C54.6657 35.7622 55.7305 32.4194 55.7305 28.9998C55.7305 24.4142 53.8178 20.0165 50.4132 16.774C47.0086 13.5316 42.391 11.71 37.5762 11.71ZM38.1446 39.3431H30.8711V30.1366H28.3072V27.8784H30.8711V18.6738H37.1255C38.6054 18.6738 48.3778 18.3529 48.3778 29.168C48.3778 40.1609 38.1446 39.3431 38.1446 39.3431Z" fill="#404F55"/>
<path id="Vector_11" d="M37.8225 22.4634H34.9805V27.8767H39.5277V30.129H34.9805V35.5424H37.993V35.5153C38.7664 35.5153 44.3266 35.5868 44.3164 29.2281C44.3063 22.8694 38.8963 22.4634 37.8225 22.4634Z" fill="#404F55"/>
</g>
</svg>
