<svg width="204" height="58" viewBox="0 0 204 58" fill="none" xmlns="http://www.w3.org/2000/svg">
<g id="ethereum-f0d177d1">
<path id="Vector" d="M69.9031 24.7175H67.7468V21.2878C67.7485 21.0449 67.6946 20.8046 67.589 20.5833C67.4834 20.3621 67.3284 20.1651 67.1348 20.006C66.9337 19.844 66.6977 19.7254 66.4434 19.6586C66.189 19.5919 65.9223 19.5784 65.6619 19.6193C65.2474 19.6882 64.8724 19.8947 64.604 20.2019C64.3356 20.5091 64.1914 20.8968 64.1972 21.2955V24.7098H62.1715C61.7018 24.7158 61.2533 24.8954 60.9214 25.2103C60.5894 25.5253 60.4004 25.9506 60.3946 26.3957C60.3922 26.6175 60.4365 26.8375 60.5249 27.0428C60.6133 27.2482 60.7441 27.4347 60.9096 27.5916C61.0751 27.7484 61.2719 27.8724 61.4886 27.9562C61.7053 28.04 61.9374 28.0819 62.1715 28.0796H64.1972V39.3103C64.1977 39.757 64.385 40.1852 64.7181 40.5012C65.0511 40.8172 65.5028 40.9952 65.974 40.9962C66.4437 40.9902 66.8922 40.8106 67.2241 40.4957C67.5561 40.1807 67.7451 39.7554 67.7509 39.3103V28.0873H69.9071C70.1413 28.0899 70.3737 28.0481 70.5906 27.9645C70.8076 27.8808 71.0047 27.7569 71.1704 27.6C71.3361 27.4431 71.467 27.2565 71.5556 27.051C71.6441 26.8455 71.6885 26.6253 71.686 26.4034C71.6858 26.1818 71.6394 25.9623 71.5497 25.7577C71.4599 25.553 71.3285 25.3671 71.163 25.2105C70.9974 25.054 70.8009 24.9299 70.5848 24.8453C70.3686 24.7607 70.1369 24.7173 69.9031 24.7175Z" fill="#404F55"/>
<path id="Vector_2" d="M47.7344 24.4336H47.7201C43.1505 24.4336 39.4336 28.2017 39.4336 32.8339C39.4336 37.4662 43.1505 41.2343 47.7201 41.2343C50.7801 41.2343 53.528 39.8481 54.8784 37.617L54.909 37.5609C55.0957 37.2302 55.1617 36.8502 55.0967 36.4802C55.0485 36.2058 54.9283 35.9473 54.7473 35.7284C54.5662 35.5096 54.33 35.3373 54.0604 35.2274C53.6761 35.0698 53.2456 35.0455 52.8442 35.1586C52.4429 35.2717 52.0963 35.5151 51.8654 35.8461C50.8454 37.2323 49.5642 37.849 47.7282 37.849C45.4965 37.849 43.9379 36.2849 43.3137 34.5101H54.2624C54.7388 34.5106 55.1961 34.332 55.5338 34.0134C55.8715 33.6948 56.062 33.2623 56.0637 32.8107C56.0433 28.1862 52.3121 24.4336 47.7344 24.4336ZM43.3137 31.1423C43.9359 29.3675 45.4904 27.8015 47.7344 27.8015C49.9253 27.8015 51.5369 29.3481 52.1591 31.1423H43.3137Z" fill="#404F55"/>
<path id="Vector_3" d="M84.4202 24.4721C82.9763 24.4721 81.5698 24.9067 80.4034 25.7133V14.703C80.4029 14.2565 80.2155 13.8285 79.8824 13.5128C79.5493 13.1971 79.0977 13.0196 78.6266 13.019C78.157 13.0245 77.7082 13.2037 77.3759 13.5182C77.0436 13.8328 76.854 14.2579 76.8477 14.703V39.2466C76.8459 39.4898 76.8996 39.7305 77.0053 39.9521C77.1109 40.1737 77.2659 40.371 77.4597 40.5304C77.661 40.6921 77.897 40.8104 78.1513 40.8772C78.4056 40.9439 78.6722 40.9575 78.9326 40.917C79.3474 40.8481 79.7228 40.6413 79.9912 40.3337C80.2596 40.0262 80.4036 39.638 80.3973 39.2389V33.6322C80.3973 33.609 80.3973 33.4969 80.3789 33.3654C80.3789 33.2746 80.3585 33.1721 80.3565 33.1315V33.0619C80.2402 31.3625 80.7053 29.8487 81.6335 28.913C82.3271 28.2112 83.2655 27.8535 84.4243 27.8535C86.6989 27.8535 87.7352 29.8951 87.7352 31.7917V39.2466C87.7325 39.4686 87.7765 39.6888 87.8648 39.8944C87.9531 40.1 88.0839 40.2868 88.2494 40.4438C88.4149 40.6009 88.6119 40.725 88.8287 40.8089C89.0455 40.8928 89.2778 40.9348 89.512 40.9325C89.9833 40.9315 90.4349 40.7535 90.768 40.4375C91.101 40.1215 91.2883 39.6933 91.2889 39.2466V31.7782C91.2929 28.2363 88.8857 24.4721 84.4202 24.4721Z" fill="#404F55"/>
<path id="Vector_4" d="M167.688 24.8741L167.649 24.8625C167.385 24.7874 167.107 24.772 166.836 24.8177C166.566 24.8634 166.31 24.9688 166.09 25.1255C165.867 25.2822 165.685 25.4861 165.559 25.721C165.433 25.9559 165.366 26.2153 165.364 26.4788V31.2619C165.364 34.3649 164.911 37.9261 161.388 37.9261C159.113 37.9261 158.077 35.8864 158.077 33.9898V26.4865C158.077 26.0401 157.889 25.6121 157.556 25.2964C157.223 24.9807 156.771 24.8031 156.3 24.8026C155.831 24.8086 155.383 24.9879 155.051 25.3024C154.719 25.617 154.53 26.0418 154.523 26.4865V33.9975C154.523 35.8825 155.135 37.6515 156.253 38.9817C156.793 39.6194 157.46 40.1496 158.216 40.5417C158.973 40.9337 159.804 41.1798 160.662 41.2657C161.519 41.3516 162.386 41.2757 163.212 41.0423C164.039 40.8089 164.808 40.4226 165.476 39.9058C165.599 40.2322 165.826 40.5142 166.126 40.7124C166.426 40.9106 166.783 41.0153 167.149 41.0117C167.62 41.0112 168.072 40.8333 168.406 40.5172C168.739 40.2011 168.926 39.7726 168.926 39.3258V26.5097C168.926 26.1485 168.807 25.7962 168.585 25.5027C168.363 25.2092 168.049 24.9893 167.688 24.8741Z" fill="#404F55"/>
<path id="Vector_5" d="M105.143 24.4336H105.128C100.559 24.4336 96.8398 28.2017 96.8398 32.8339C96.8398 37.4662 100.559 41.2343 105.128 41.2343C108.188 41.2343 110.936 39.8481 112.287 37.617L112.317 37.5609C112.504 37.2302 112.57 36.8502 112.505 36.4802C112.457 36.2058 112.337 35.9473 112.156 35.7284C111.974 35.5096 111.738 35.3373 111.469 35.2274C111.084 35.0698 110.654 35.0455 110.253 35.1586C109.851 35.2717 109.505 35.5151 109.274 35.8461C108.254 37.2323 106.973 37.849 105.137 37.849C102.905 37.849 101.346 36.2849 100.722 34.5101H111.669C112.145 34.5106 112.603 34.3321 112.941 34.0135C113.279 33.695 113.47 33.2625 113.472 32.8107C113.462 28.1862 109.727 24.4336 105.143 24.4336ZM100.722 31.1423C101.346 29.3655 102.905 27.8015 105.137 27.8015C107.327 27.8015 108.939 29.3481 109.561 31.1423H100.722Z" fill="#404F55"/>
<path id="Vector_6" d="M193.351 24.4722C192.285 24.4747 191.235 24.7101 190.282 25.1601C189.328 25.6101 188.497 26.2626 187.853 27.0667C187.248 26.2592 186.446 25.6024 185.515 25.1523C184.585 24.7022 183.553 24.4722 182.508 24.4818C181.014 24.4799 179.56 24.9394 178.367 25.7907C178.262 25.5382 178.093 25.3138 177.875 25.1372C177.674 24.9752 177.438 24.8566 177.184 24.7899C176.929 24.7231 176.663 24.7097 176.402 24.7506C175.988 24.8194 175.613 25.026 175.344 25.3331C175.076 25.6403 174.932 26.028 174.938 26.4268V39.2467C174.936 39.4899 174.989 39.7306 175.095 39.9522C175.201 40.1738 175.356 40.3711 175.55 40.5304C175.876 40.7922 176.291 40.9348 176.719 40.9326C176.818 40.9324 176.918 40.9247 177.016 40.9094C177.434 40.8433 177.813 40.6378 178.084 40.3299C178.355 40.0221 178.501 39.6323 178.495 39.2312V33.7174C178.517 33.5679 178.517 33.4163 178.495 33.2669V33.2534C178.422 31.2485 178.869 29.7096 179.789 28.8067C180.448 28.161 181.339 27.84 182.512 27.84C185.125 27.84 185.823 30.2876 185.823 31.7318V39.2467C185.82 39.4686 185.864 39.6889 185.953 39.8945C186.041 40.1 186.172 40.2868 186.337 40.4439C186.503 40.6009 186.7 40.725 186.917 40.809C187.133 40.8929 187.366 40.9349 187.6 40.9326C188.071 40.9321 188.523 40.7542 188.856 40.4381C189.19 40.122 189.377 39.6935 189.377 39.2467V33.4467C189.377 31.5134 190.209 27.84 193.355 27.84C195.966 27.84 196.664 30.2876 196.664 31.7318V39.2467C196.661 39.4686 196.705 39.6889 196.793 39.8945C196.882 40.1 197.012 40.2868 197.178 40.4439C197.343 40.6009 197.54 40.725 197.757 40.809C197.974 40.8929 198.206 40.9349 198.441 40.9326C198.912 40.9321 199.364 40.7543 199.698 40.4382C200.031 40.1222 200.219 39.6937 200.219 39.2467V31.7318C200.223 28.2132 197.814 24.4722 193.351 24.4722Z" fill="#404F55"/>
<path id="Vector_7" d="M140.647 24.4336H140.63C136.061 24.4336 132.344 28.2017 132.344 32.8339C132.344 37.4662 136.061 41.2343 140.63 41.2343C143.69 41.2343 146.44 39.8481 147.789 37.617L147.821 37.5609C148.008 37.2302 148.074 36.8502 148.009 36.4802C147.961 36.2058 147.841 35.9473 147.659 35.7284C147.478 35.5096 147.242 35.3373 146.973 35.2274C146.588 35.0698 146.158 35.0455 145.756 35.1586C145.355 35.2717 145.009 35.5151 144.778 35.8461C143.758 37.2323 142.476 37.849 140.638 37.849C138.409 37.849 136.85 36.2849 136.226 34.5101H147.164C147.641 34.5106 148.098 34.3321 148.437 34.0135C148.775 33.695 148.966 33.2625 148.968 32.8107C148.958 28.1862 145.224 24.4336 140.647 24.4336ZM136.226 31.1423C136.85 29.3655 138.409 27.8015 140.638 27.8015C142.831 27.8015 144.443 29.3481 145.065 31.1423H136.226Z" fill="#404F55"/>
<path id="Vector_8" d="M126.814 24.7253C125.325 24.7253 123.932 25.3169 122.791 26.1617C122.73 25.7626 122.519 25.3977 122.198 25.1332C121.996 24.9714 121.76 24.853 121.506 24.7862C121.252 24.7195 120.985 24.7059 120.725 24.7465C120.31 24.8154 119.935 25.0218 119.666 25.3289C119.397 25.6361 119.253 26.0238 119.258 26.4227V39.2001C119.256 39.4227 119.301 39.6434 119.39 39.8492C119.479 40.0551 119.611 40.242 119.778 40.399C119.944 40.556 120.142 40.68 120.359 40.7636C120.577 40.8472 120.81 40.8888 121.045 40.886C121.147 40.8859 121.248 40.8781 121.349 40.8628C121.764 40.7939 122.139 40.5871 122.408 40.2795C122.676 39.9719 122.82 39.5838 122.814 39.1847V33.578C122.814 32.1029 123.222 28.6132 127.077 28.0835C127.521 28.0375 127.929 27.8348 128.222 27.5159C128.515 27.197 128.67 26.7852 128.656 26.3628C128.656 26.1496 128.611 25.9387 128.522 25.7426C128.434 25.5466 128.305 25.3696 128.142 25.2221C127.785 24.8977 127.308 24.7192 126.814 24.7253Z" fill="#404F55"/>
<path id="Vector_9" d="M17.7513 40.4106L3.77734 32.7314L17.7513 51.0672L31.7233 32.7314L17.7513 40.4203V40.4106Z" fill="#404F55"/>
<path id="Vector_10" d="M31.7233 30.2684L17.7513 8.69043L3.77734 30.2684L17.7513 37.9572L31.7233 30.2684Z" fill="#404F55"/>
</g>
</svg>
