<svg width="40" height="16" viewBox="0 0 40 16" fill="none" xmlns="http://www.w3.org/2000/svg">
<g id="gpay-logo" clip-path="url(#clip0_2_18177)">
<path id="Vector" d="M18.9186 7.817V12.5071H17.4414V0.924606H21.3591C21.8267 0.914767 22.2917 0.998308 22.7271 1.17041C23.1625 1.34251 23.5598 1.59976 23.896 1.92732C24.2356 2.23499 24.5058 2.61232 24.6886 3.03394C24.8714 3.45556 24.9625 3.91171 24.9557 4.37173C24.9654 4.8342 24.8757 5.29333 24.6928 5.71764C24.5099 6.14195 24.2381 6.5214 23.896 6.83C23.2109 7.488 22.3653 7.81669 21.3591 7.81608H18.9186V7.817ZM18.9186 2.35059V6.39379H21.3958C21.6674 6.4019 21.9377 6.35283 22.1893 6.24971C22.441 6.14659 22.6685 5.99169 22.8574 5.79494C23.0452 5.61097 23.1946 5.39093 23.2965 5.14783C23.3985 4.90472 23.451 4.64349 23.451 4.37958C23.451 4.11567 23.3985 3.85444 23.2965 3.61134C23.1946 3.36824 23.0452 3.1482 22.8574 2.96423C22.6709 2.76332 22.4442 2.60464 22.1922 2.49868C21.9402 2.39273 21.6687 2.34194 21.3958 2.34966H18.9186V2.35059Z" fill="white"/>
<path id="Vector_2" d="M28.3583 4.32324C29.4501 4.32324 30.3119 4.61713 30.9438 5.20489C31.5756 5.79266 31.8913 6.59853 31.8906 7.6225V12.5067H30.4777V11.4069H30.4135C29.8018 12.3126 28.9883 12.7655 27.9729 12.7655C27.1062 12.7655 26.3811 12.5067 25.7976 11.9892C25.5175 11.7516 25.2936 11.4541 25.1422 11.1184C24.9908 10.7827 24.9157 10.4171 24.9223 10.0484C24.9223 9.22838 25.2299 8.57623 25.8453 8.09197C26.4606 7.60771 27.2821 7.36496 28.3097 7.36373C29.1868 7.36373 29.9092 7.52546 30.4768 7.84892V7.50883C30.4785 7.25747 30.4246 7.00889 30.319 6.78111C30.2135 6.55333 30.059 6.35206 29.8667 6.1919C29.476 5.83691 28.9669 5.64321 28.4409 5.64941C27.6157 5.64941 26.9628 5.99998 26.482 6.70111L25.181 5.87583C25.8967 4.84077 26.9558 4.32324 28.3583 4.32324ZM26.4472 10.0808C26.4462 10.2701 26.4901 10.457 26.5753 10.6258C26.6606 10.7946 26.7846 10.9404 26.9371 11.0511C27.2638 11.31 27.6693 11.4471 28.0849 11.4393C28.7082 11.4382 29.3057 11.1883 29.7465 10.7443C30.2358 10.2804 30.4805 9.73605 30.4805 9.11132C30.0199 8.74166 29.3776 8.55682 28.5537 8.55682C27.9537 8.55682 27.4533 8.70253 27.0527 8.99395C26.6481 9.28968 26.4472 9.64918 26.4472 10.0808Z" fill="white"/>
<path id="Vector_3" d="M40.0031 4.58203L35.0706 16H33.5458L35.3762 12.0049L32.1328 4.58203H33.7384L36.0826 10.2749H36.1147L38.3947 4.58203H40.0031Z" fill="white"/>
<path id="Vector_4" d="M12.949 6.80512C12.9496 6.35168 12.9115 5.89903 12.8353 5.45215H6.60547V8.01485H10.1736C10.1006 8.42415 9.94605 8.81432 9.7193 9.16184C9.49255 9.50936 9.19829 9.80703 8.85425 10.0369V11.7004H10.9838C12.2306 10.5424 12.949 8.82996 12.949 6.80512Z" fill="#4285F4"/>
<path id="Vector_5" d="M6.60537 13.3082C8.38806 13.3082 9.88908 12.7186 10.9836 11.702L8.85415 10.0385C8.26144 10.4433 7.49809 10.6743 6.60537 10.6743C4.88231 10.6743 3.41983 9.50435 2.89685 7.92773H0.703125V9.64205C1.25295 10.7441 2.09604 11.6705 3.13828 12.3179C4.18052 12.9653 5.38089 13.3081 6.60537 13.3082Z" fill="#34A853"/>
<path id="Vector_6" d="M2.89715 7.92732C2.62067 7.10116 2.62067 6.20649 2.89715 5.38033V3.66602H0.703417C0.240886 4.59309 0 5.61627 0 6.65383C0 7.69139 0.240886 8.71457 0.703417 9.64164L2.89715 7.92732Z" fill="#FBBC04"/>
<path id="Vector_7" d="M6.60537 2.6343C7.54744 2.61879 8.45773 2.97732 9.13949 3.63239L11.0249 1.73324C9.82936 0.602136 8.2455 -0.0188591 6.60537 0.000436562C5.38089 0.000492774 4.18052 0.343351 3.13828 0.990733C2.09604 1.63812 1.25295 2.56454 0.703125 3.66658L2.89685 5.3809C3.41983 3.80428 4.88231 2.6343 6.60537 2.6343Z" fill="#EA4335"/>
</g>
<defs>
<clipPath id="clip0_2_18177">
<rect width="40" height="16" fill="white"/>
</clipPath>
</defs>
</svg>
