<svg width="28" height="16" viewBox="0 0 28 16" fill="none" xmlns="http://www.w3.org/2000/svg">
<g id="mastercard-logo">
<path id="Vector" fill-rule="evenodd" clip-rule="evenodd" d="M10.2163 14.2893H17.7863V1.70801H10.2148V14.2867L10.2163 14.2893Z" fill="#FF5F00"/>
<path id="Vector_2" fill-rule="evenodd" clip-rule="evenodd" d="M10.6968 8C10.6954 6.78864 10.9922 5.59288 11.5647 4.50324C12.1371 3.4136 12.9702 2.45864 14.0008 1.71067C12.7243 0.782948 11.1913 0.205982 9.57685 0.0457241C7.96246 -0.114534 6.33186 0.148381 4.87144 0.804417C3.41103 1.46045 2.17973 2.48314 1.31828 3.75558C0.456832 5.02802 0 6.49887 0 8C0 9.50113 0.456832 10.972 1.31828 12.2444C2.17973 13.5169 3.41103 14.5395 4.87144 15.1956C6.33186 15.8516 7.96246 16.1145 9.57685 15.9543C11.1913 15.794 12.7243 15.2171 14.0008 14.2893C12.9702 13.5413 12.1372 12.5863 11.5648 11.4967C10.9924 10.4071 10.6955 9.21134 10.6968 8Z" fill="#EB001B"/>
<path id="Vector_3" fill-rule="evenodd" clip-rule="evenodd" d="M28.0017 8.0002C28.001 9.50073 27.5438 10.9708 26.6824 12.2426C25.821 13.5143 24.5901 14.5365 23.1303 15.1923C21.6704 15.848 20.0405 16.111 18.4267 15.9511C16.813 15.7913 15.2803 15.215 14.0039 14.2882C15.0336 13.5396 15.8661 12.5846 16.4385 11.4953C17.0109 10.4059 17.3083 9.21063 17.3083 7.99953C17.3083 6.78844 17.0109 5.59315 16.4385 4.5038C15.8661 3.41445 15.0336 2.45947 14.0039 1.71087C15.2802 0.783502 16.8129 0.206792 18.4269 0.0466501C20.0409 -0.113492 21.671 0.149394 23.1311 0.805264C24.5911 1.46113 25.8221 2.48353 26.6834 3.7556C27.5447 5.02768 28.0015 6.49812 28.0017 7.99887V8.0002Z" fill="#F79E1B"/>
</g>
</svg>
