<svg width="204" height="58" viewBox="0 0 204 58" fill="none" xmlns="http://www.w3.org/2000/svg">
<g id="tether-269fd7c3">
<g id="Group">
<path id="Vector" d="M50.9967 26.8173V29.9416C50.8559 29.9532 50.1011 30.0151 48.5936 30.0151C47.3369 30.0151 46.4271 29.9629 46.1109 29.9416V26.8135C41.2598 27.0165 37.6367 27.8188 37.6367 28.7758C37.6367 29.7328 41.2577 30.5351 46.1109 30.7381V30.7343C46.423 30.7497 47.3084 30.7826 48.5711 30.7826C50.1501 30.7826 50.858 30.7439 50.9967 30.7343V30.7401C55.8376 30.5332 59.4504 29.7347 59.4504 28.7777C59.4504 27.8207 55.8396 27.0223 50.9967 26.8154V26.8173Z" fill="#404F55"/>
<path id="Vector_2" d="M48.8776 10.1655C37.9024 10.1655 29.0039 18.5987 29.0039 29.0001C29.0039 39.4014 37.9024 47.8346 48.8776 47.8346C59.8528 47.8346 68.7513 39.4014 68.7513 29.0001C68.7513 18.5987 59.8528 10.1655 48.8776 10.1655ZM50.9992 31.5037V40.4725H46.1134V31.5037C40.6237 31.2621 36.4927 30.2316 36.4927 28.9962C36.4927 27.7608 40.6217 26.7303 46.1134 26.4925V23.695H39.3549V19.4281H57.7516V23.695H50.9931V26.4925L50.9971 26.4964C56.4807 26.7361 60.6015 27.7685 60.6015 29.0001C60.6015 30.2316 56.4807 31.2659 50.9971 31.5037H50.9992Z" fill="#404F55"/>
</g>
<path id="Vector_3" d="M85.6328 20.5938V25.1178H90.2718V28.5127H85.6002V35.3954C85.6002 36.915 86.4856 37.6574 87.783 37.6574C88.4317 37.6574 89.1824 37.464 89.7965 37.1721L90.9572 40.5342C89.7659 40.9846 88.7744 41.1799 87.5137 41.2128C83.8642 41.3423 81.4774 39.3722 81.4774 35.3954V28.5127H78.3398V25.1178H81.4774V21.0152L85.6349 20.5938H85.6328ZM165.615 24.9051L165.921 26.7456C167.219 24.7736 168.957 24.4836 170.662 24.4836C172.368 24.4836 174.071 25.1294 174.991 26.0013L173.116 29.4252C172.263 28.7466 171.48 28.389 170.115 28.389C167.933 28.389 165.921 29.489 165.921 32.4277V40.83H161.762V24.8974L165.615 24.9032V24.9051ZM155.419 31.0125C155.148 28.9438 153.442 27.9095 151.056 27.9095C148.806 27.9095 146.963 28.9458 146.349 31.0125H155.421H155.419ZM146.282 34.276C146.553 36.248 148.363 37.6709 151.294 37.6709C152.828 37.6709 154.842 37.1199 155.797 36.1842L158.455 38.6724C156.682 40.4162 153.783 41.2592 151.225 41.2592C145.429 41.2592 141.982 37.8642 141.982 32.7602C141.982 27.6562 145.462 24.4218 150.919 24.4218C156.376 24.4218 160.06 27.72 159.411 34.2779H146.282V34.276ZM127.936 18.2119V27.0666C129.438 25.226 131.278 24.675 133.189 24.675C137.963 24.675 140.078 27.7452 140.078 32.4335V40.8358H135.919V32.4664C135.919 29.5567 134.315 28.331 132.098 28.331C129.642 28.331 127.938 30.303 127.938 32.6945V40.8396H123.779V18.2177L127.938 18.2138L127.936 18.2119ZM116.888 20.4101V24.9341H121.527V28.329H116.855V35.2117C116.855 36.7313 117.742 37.4737 119.038 37.4737C119.687 37.4737 120.437 37.2804 121.051 36.9884L122.212 40.3505C121.021 40.801 120.029 40.9962 118.769 41.0291C115.119 41.1586 112.732 39.1847 112.732 35.2117V28.329H109.595V24.9341H112.732V20.8316L116.89 20.4101H116.888ZM105.394 31.0106C105.123 28.9419 103.418 27.9076 101.031 27.9076C98.7806 27.9076 96.9385 28.9438 96.3245 31.0106H105.396H105.394ZM96.2572 34.274C96.5285 36.246 98.338 37.669 101.269 37.669C102.804 37.669 104.817 37.118 105.772 36.1822L108.43 38.6704C106.657 40.4143 103.758 41.2572 101.2 41.2572C95.4004 41.2572 91.9568 37.8623 91.9568 32.7583C91.9568 27.6543 95.4371 24.4198 100.89 24.4198C106.343 24.4198 110.027 27.7181 109.383 34.276H96.2572V34.274Z" fill="#404F55"/>
</g>
</svg>
