<svg width="16" height="16" viewBox="0 0 16 16" fill="none" xmlns="http://www.w3.org/2000/svg">
<path d="M8 16C12.4183 16 16 12.4183 16 8C16 3.58172 12.4183 0 8 0C3.58172 0 0 3.58172 0 8C0 12.4183 3.58172 16 8 16Z" fill="#F0F0F0"/>
<path d="M1.6555 3.12891C1.02709 3.9465 0.55325 4.88884 0.277344 5.91256H4.43916L1.6555 3.12891Z" fill="#0052B4"/>
<path d="M15.7242 5.91253C15.4483 4.88884 14.9745 3.9465 14.3461 3.12891L11.5625 5.91253H15.7242Z" fill="#0052B4"/>
<path d="M0.277344 10.0869C0.553281 11.1106 1.02712 12.0529 1.6555 12.8705L4.43906 10.0869H0.277344Z" fill="#0052B4"/>
<path d="M12.8735 1.65358C12.0559 1.02517 11.1136 0.551328 10.0898 0.275391V4.43717L12.8735 1.65358Z" fill="#0052B4"/>
<path d="M3.13281 14.3461C3.95041 14.9745 4.89275 15.4483 5.91644 15.7242V11.5625L3.13281 14.3461Z" fill="#0052B4"/>
<path d="M5.91641 0.275391C4.89272 0.551328 3.95038 1.02517 3.13281 1.65355L5.91641 4.43714V0.275391Z" fill="#0052B4"/>
<path d="M10.0898 15.7242C11.1135 15.4483 12.0559 14.9745 12.8734 14.3461L10.0898 11.5625V15.7242Z" fill="#0052B4"/>
<path d="M11.5625 10.0869L14.3461 12.8705C14.9745 12.053 15.4483 11.1106 15.7242 10.0869H11.5625Z" fill="#0052B4"/>
<path d="M15.9323 6.95653H9.04353H9.0435V0.0677188C8.70191 0.02325 8.35366 0 8 0C7.64628 0 7.29809 0.02325 6.95653 0.0677188V6.95647V6.9565H0.0677188C0.02325 7.29809 0 7.64634 0 8C0 8.35372 0.02325 8.70191 0.0677188 9.04347H6.95647H6.9565V15.9323C7.29809 15.9768 7.64628 16 8 16C8.35366 16 8.70191 15.9768 9.04347 15.9323V9.04353V9.0435H15.9323C15.9768 8.70191 16 8.35372 16 8C16 7.64634 15.9768 7.29809 15.9323 6.95653Z" fill="#D80027"/>
<path d="M10.0859 10.0869L13.6558 13.6568C13.82 13.4927 13.9766 13.3211 14.1261 13.1432L11.0698 10.0869H10.0859V10.0869Z" fill="#D80027"/>
<path d="M5.91366 10.0869H5.91359L2.34375 13.6568C2.50787 13.8209 2.67947 13.9776 2.85734 14.127L5.91366 11.0706V10.0869Z" fill="#D80027"/>
<path d="M5.91122 5.91274V5.91268L2.34134 2.34277C2.17716 2.5069 2.02053 2.67849 1.87109 2.85637L4.92744 5.91271H5.91122V5.91274Z" fill="#D80027"/>
<path d="M10.0859 5.9132L13.6558 2.34327C13.4917 2.17908 13.3201 2.02245 13.1423 1.87305L10.0859 4.92939V5.9132Z" fill="#D80027"/>
</svg>
