<svg width="69" height="68" viewBox="0 0 69 68" fill="none" xmlns="http://www.w3.org/2000/svg">
<g id="5 1" clip-path="url(#clip0_2_6231)">
<g id="Group">
<g id="Group_2">
<g id="Group_3">
<path id="Vector" d="M68.1109 12.4732L56.0249 0.389008C55.7759 0.139984 55.4382 0 55.0859 0H15.6406C13.4436 0 11.6562 1.78739 11.6562 3.98438V6.51631C5.13184 9.07561 0.5 15.4348 0.5 22.8558C0.5 23.5892 1.09473 24.184 1.82812 24.184H18.0433C18.7767 24.184 19.3715 23.5892 19.3715 22.8558V6.64062C19.3715 5.90723 18.7767 5.3125 18.0433 5.3125C16.7633 5.3125 15.5154 5.45155 14.3125 5.71319V3.98438C14.3125 3.25205 14.9083 2.65625 15.6406 2.65625H53.7578V10.7578C53.7578 12.9548 55.5452 14.7422 57.7422 14.7422H65.8438V64.0156C65.8438 64.748 65.248 65.3438 64.5156 65.3438H15.6406C14.9083 65.3438 14.3125 64.748 14.3125 64.0156V52.638C14.3125 51.9046 13.7178 51.3099 12.9844 51.3099C12.251 51.3099 11.6562 51.9046 11.6562 52.638V64.0156C11.6562 66.2126 13.4436 68 15.6406 68H64.5156C66.7126 68 68.5 66.2126 68.5 64.0156V13.4123C68.5 13.0601 68.36 12.7222 68.1109 12.4732ZM16.7151 8.02759V21.5277H3.21495C3.84993 14.376 9.56352 8.66256 16.7151 8.02759ZM57.7422 12.0859C57.0099 12.0859 56.4141 11.4901 56.4141 10.7578V4.53422L63.9668 12.0859H57.7422Z" fill="white"/>
</g>
</g>
<g id="Group_4">
<g id="Group_5">
<path id="Vector_2" d="M13.9232 46.8735C13.6763 46.6264 13.3337 46.4844 12.9844 46.4844C12.6351 46.4844 12.2924 46.6264 12.0454 46.8735C11.7984 47.1205 11.6562 47.4632 11.6562 47.8125C11.6562 48.1618 11.7982 48.5045 12.0454 48.7514C12.2924 48.9985 12.6351 49.1406 12.9844 49.1406C13.3337 49.1406 13.6763 48.9985 13.9232 48.7514C14.1704 48.5045 14.3125 48.1618 14.3125 47.8125C14.3125 47.4632 14.1704 47.1205 13.9232 46.8735Z" fill="white"/>
</g>
</g>
<g id="Group_6">
<g id="Group_7">
<path id="Vector_3" d="M22.8005 10.0693C22.0671 10.0693 21.4724 10.6641 21.4724 11.3975V26.2844H6.58545C5.85206 26.2844 5.25732 26.8791 5.25732 27.6125C5.25732 37.2859 13.1271 45.1559 22.8005 45.1559C32.4739 45.1559 40.3439 37.2859 40.3439 27.6125C40.3439 17.9391 32.4739 10.0693 22.8005 10.0693ZM24.1287 12.7844C27.2378 13.0604 30.0748 14.2969 32.3412 16.1937L24.1287 24.4062V12.7844ZM22.8005 42.4996C15.0394 42.4996 8.64617 36.5298 7.97241 28.9407H22.8005C23.1671 28.9407 23.4989 28.7922 23.7392 28.5521C23.7394 28.5519 23.7395 28.5519 23.7398 28.5517L34.2199 18.0717C36.3835 20.6571 37.6876 23.9854 37.6876 27.6125C37.6876 35.8213 31.0093 42.4996 22.8005 42.4996Z" fill="white"/>
</g>
</g>
<g id="Group_8">
<g id="Group_9">
<path id="Vector_4" d="M58.6815 41.916C56.4845 41.916 54.6971 43.7034 54.6971 45.9004C54.6971 46.451 54.8095 46.9758 55.0123 47.4532L47.3606 55.105C46.8348 54.8488 46.2445 54.7047 45.6214 54.7047C45.013 54.7047 44.4363 54.8423 43.92 55.087L38.8389 50.0059C39.015 49.5565 39.1128 49.0678 39.1128 48.5565C39.1128 46.3595 37.3254 44.5721 35.1284 44.5721C32.9314 44.5721 31.144 46.3595 31.144 48.5565C31.144 49.1518 31.2762 49.7165 31.5112 50.2242L26.6377 55.0978C26.1185 54.8494 25.5376 54.7101 24.9248 54.7101C22.7278 54.7101 20.9404 56.4975 20.9404 58.6945C20.9404 60.8915 22.7278 62.6789 24.9248 62.6789C27.1218 62.6789 28.9092 60.8915 28.9092 58.6945C28.9092 58.0786 28.7687 57.4951 28.5182 56.974L33.3645 52.1277C33.8967 52.3917 34.4954 52.5409 35.1287 52.5409C35.8439 52.5409 36.515 52.3506 37.0957 52.0193L42.0336 56.9572C41.7796 57.4811 41.637 58.0687 41.637 58.689C41.637 60.886 43.4244 62.6734 45.6214 62.6734C47.8184 62.6734 49.6058 60.886 49.6058 58.689C49.6058 58.0837 49.4695 57.5097 49.2268 56.9954L56.8071 49.4151C57.3661 49.7145 58.0043 49.8848 58.6815 49.8848C60.8785 49.8848 62.6659 48.0974 62.6659 45.9004C62.6659 43.7034 60.8785 41.916 58.6815 41.916ZM24.9247 60.0227C24.1923 60.0227 23.5965 59.4269 23.5965 58.6946C23.5965 57.9623 24.1923 57.3665 24.9247 57.3665C25.2813 57.3665 25.6047 57.5085 25.8435 57.738C25.8488 57.7435 25.8534 57.7495 25.8589 57.755C25.8653 57.7613 25.8722 57.7667 25.8787 57.7728C26.1098 58.0118 26.2528 58.3367 26.2528 58.6946C26.2528 59.4268 25.657 60.0227 24.9247 60.0227ZM35.1284 49.8846C34.3961 49.8846 33.8003 49.2888 33.8003 48.5565C33.8003 47.8242 34.3961 47.2284 35.1284 47.2284C35.8607 47.2284 36.4565 47.8242 36.4565 48.5565C36.4565 49.2888 35.8607 49.8846 35.1284 49.8846ZM45.6211 60.0172C44.8888 60.0172 44.293 59.4214 44.293 58.689C44.293 57.9567 44.8888 57.3609 45.6211 57.3609C46.3534 57.3609 46.9492 57.9567 46.9492 58.689C46.9492 59.4214 46.3534 60.0172 45.6211 60.0172ZM58.6812 47.2284C57.9489 47.2284 57.3531 46.6326 57.3531 45.9003C57.3531 45.1679 57.949 44.5721 58.6812 44.5721C59.4136 44.5721 60.0094 45.1679 60.0094 45.9003C60.0094 46.6326 59.4136 47.2284 58.6812 47.2284Z" fill="#33C16C"/>
</g>
</g>
<g id="Group_10">
<g id="Group_11">
<path id="Vector_5" d="M52.0432 31.2109H45.0334C44.3001 31.2109 43.7053 31.8057 43.7053 32.5391C43.7053 33.2725 44.2999 33.8672 45.0334 33.8672H52.0432C52.7765 33.8672 53.3713 33.2725 53.3713 32.5391C53.3713 31.8057 52.7765 31.2109 52.0432 31.2109Z" fill="#33C16C"/>
</g>
</g>
<g id="Group_12">
<g id="Group_13">
<path id="Vector_6" d="M59.0289 31.6001C58.782 31.353 58.4394 31.2109 58.0901 31.2109C57.7408 31.2109 57.3981 31.3529 57.1511 31.6001C56.9041 31.8471 56.762 32.1898 56.762 32.5391C56.762 32.8884 56.9039 33.231 57.1511 33.4779C57.3981 33.7249 57.7395 33.8672 58.0901 33.8672C58.4394 33.8672 58.782 33.7251 59.0289 33.4779C59.276 33.231 59.4182 32.8884 59.4182 32.5391C59.4182 32.1898 59.2761 31.8471 59.0289 31.6001Z" fill="#33C16C"/>
</g>
</g>
<g id="Group_14">
<g id="Group_15">
<path id="Vector_7" d="M61.257 18.4609H45.0334C44.3001 18.4609 43.7053 19.0557 43.7053 19.7891C43.7053 20.5225 44.2999 21.1172 45.0334 21.1172H61.257C61.9904 21.1172 62.5851 20.5225 62.5851 19.7891C62.5851 19.0557 61.9904 18.4609 61.257 18.4609Z" fill="#33C16C"/>
</g>
</g>
<g id="Group_16">
<g id="Group_17">
<path id="Vector_8" d="M61.257 24.8359H45.0334C44.3001 24.8359 43.7053 25.4307 43.7053 26.1641C43.7053 26.8975 44.2999 27.4922 45.0334 27.4922H61.257C61.9904 27.4922 62.5851 26.8975 62.5851 26.1641C62.5851 25.4307 61.9904 24.8359 61.257 24.8359Z" fill="#33C16C"/>
</g>
</g>
</g>
</g>
<defs>
<clipPath id="clip0_2_6231">
<rect width="68" height="68" fill="white" transform="translate(0.5)"/>
</clipPath>
</defs>
</svg>
