<svg width="69" height="68" viewBox="0 0 69 68" fill="none" xmlns="http://www.w3.org/2000/svg">
<g id="333 3333334" clip-path="url(#clip0_2_6205)">
<g id="Group">
<g id="Group_2">
<path id="Vector" d="M34.5 0C33.511 0 32.7105 0.800328 32.7105 1.78952V18.9433L25.0284 11.2612C24.3294 10.5622 23.197 10.5622 22.4979 11.2612C21.7989 11.9602 21.7989 13.0925 22.4979 13.7916L33.2347 24.5285C33.5843 24.878 34.0421 25.0527 34.4999 25.0527C34.9577 25.0527 35.4156 24.8779 35.765 24.5285L46.5019 13.7916C47.2009 13.0927 47.2009 11.9603 46.5019 11.2612C45.8029 10.5622 44.6705 10.5622 43.9714 11.2612L36.2893 18.9433V1.78952C36.2895 0.800328 35.4891 0 34.5 0V0Z" fill="#33C16C"/>
<path id="Vector_2" d="M59.5527 21.4736H45.2368C44.2478 21.4736 43.4473 22.274 43.4473 23.2631C43.4473 24.2523 44.2476 25.0527 45.2368 25.0527H50.8203C51.6574 32.485 57.4924 38.3532 64.9211 39.1902V50.2853C57.4888 51.1224 51.6399 56.9872 50.8045 64.4211H18.185C17.3479 56.987 11.5078 51.1206 4.0789 50.2836V39.1779C11.5129 38.3408 17.3741 32.4849 18.2112 25.0527H23.7632C24.7522 25.0527 25.5527 24.2523 25.5527 23.2631C25.5527 22.274 24.7524 21.4736 23.7632 21.4736H9.44731C4.51412 21.4736 0.5 25.4878 0.5 30.4211V59.0527C0.5 63.9859 4.51412 68 9.44731 68H59.5526C64.4859 68 68.5 63.9859 68.5 59.0527V30.4211C68.5 25.4878 64.4859 21.4736 59.5527 21.4736ZM54.4236 25.0527H59.5526C62.5128 25.0527 64.921 27.4608 64.921 30.4211V35.6147C59.4688 34.8213 55.2188 30.5119 54.4236 25.0527ZM9.44731 25.0527H14.6322C13.8388 30.5102 9.53988 34.7829 4.07877 35.5763V30.4211C4.0789 27.4607 6.48705 25.0527 9.44731 25.0527ZM4.0789 59.0527V53.8625C9.53643 54.6559 13.8074 58.9601 14.6008 64.4211H9.44731C6.48705 64.4211 4.0789 62.0129 4.0789 59.0527ZM59.5527 64.4211H54.4166C55.21 58.9618 59.4669 54.654 64.921 53.8608V59.0527C64.9211 62.0129 62.5129 64.4211 59.5527 64.4211Z" fill="white"/>
<path id="Vector_3" d="M21.9736 44.7373C21.9736 51.6435 27.5937 57.2636 34.5 57.2636C41.4062 57.2636 47.0263 51.6435 47.0263 44.7373C47.0263 37.831 41.4062 32.2109 34.5 32.2109C27.5937 32.2109 21.9736 37.831 21.9736 44.7373ZM43.4473 44.7373C43.4473 49.6706 39.4332 53.6846 34.5 53.6846C29.5668 53.6846 25.5527 49.6705 25.5527 44.7373C25.5527 39.8041 29.5668 35.79 34.5 35.79C39.4332 35.79 43.4473 39.804 43.4473 44.7373Z" fill="#33C16C"/>
</g>
</g>
</g>
<defs>
<clipPath id="clip0_2_6205">
<rect width="68" height="68" fill="white" transform="translate(0.5)"/>
</clipPath>
</defs>
</svg>
