<svg width="69" height="68" viewBox="0 0 69 68" fill="none" xmlns="http://www.w3.org/2000/svg">
<g id="6 1" clip-path="url(#clip0_2_6264)">
<g id="Group">
<path id="Vector" d="M0.5 11.9531L2.00348 13.3923C2.28207 13.6589 8.92114 19.9219 17.3262 19.9219C20.2481 19.9219 22.9567 19.1644 25.2586 18.1657C22.9681 22.491 21.6338 27.2738 21.3635 32.2459C12.3857 33.2161 5.37308 40.8388 5.37308 50.0703C5.37308 59.9565 13.4165 68 23.3028 68C27.7364 68 31.9906 66.3533 35.2616 63.4268C38.4351 66.2688 42.6234 68 47.209 68C57.0958 68 65.1387 59.9565 65.1387 50.0703C65.1387 40.8575 58.1536 33.2462 49.2012 32.2522V21.2303C49.2012 14.4952 51.8242 8.1633 56.5863 3.40073L59.9875 0H55.1778C46.34 0 38.0076 3.42096 31.6456 9.6424C29.4552 7.85876 23.9373 3.98438 17.3262 3.98438C8.92114 3.98438 2.28207 10.2473 2.00348 10.514L0.5 11.9531ZM9.35745 50.0703C9.35745 42.3807 15.6136 36.125 23.3028 36.125C26.7507 36.125 30.0596 37.4054 32.6038 39.6819C30.5115 42.6147 29.2793 46.2011 29.2793 50.0703C29.2793 53.9395 30.5115 57.526 32.6038 60.4587C30.0596 62.7352 26.7507 64.0156 23.3028 64.0156C15.6136 64.0156 9.35745 57.7599 9.35745 50.0703ZM61.1543 50.0703C61.1543 57.7599 54.8987 64.0156 47.209 64.0156C39.5199 64.0156 33.2637 57.7599 33.2637 50.0703C33.2637 42.3807 39.5199 36.125 47.209 36.125C54.8987 36.125 61.1543 42.3807 61.1543 50.0703ZM50.5957 4.3382C47.2007 9.12308 45.2168 15.0099 45.2168 21.2303V32.2516C41.4156 32.674 37.9692 34.289 35.2616 36.7138C32.499 34.2418 29.035 32.6843 25.3536 32.2594C26.221 18.0532 36.8839 6.47617 50.5957 4.3382ZM17.3262 7.96875C21.8403 7.96875 25.8895 10.349 28.1094 11.9568C25.8978 13.5635 21.8631 15.9375 17.3262 15.9375C12.8121 15.9375 8.76187 13.5562 6.54297 11.9495C8.75461 10.3428 12.7893 7.96875 17.3262 7.96875Z" fill="white"/>
<path id="Vector_2" d="M37.248 50.0703H41.2324C41.2324 46.7749 43.9136 44.0938 47.209 44.0938V40.1094C41.7165 40.1094 37.248 44.5778 37.248 50.0703Z" fill="#33C16C"/>
<path id="Vector_3" d="M13.3418 50.0703H17.3262C17.3262 46.7749 20.0073 44.0938 23.3027 44.0938V40.1094C17.8102 40.1094 13.3418 44.5778 13.3418 50.0703Z" fill="#33C16C"/>
</g>
</g>
<defs>
<clipPath id="clip0_2_6264">
<rect width="68" height="68" fill="white" transform="translate(0.5)"/>
</clipPath>
</defs>
</svg>
