<svg width="83" height="68" viewBox="0 0 83 68" fill="none" xmlns="http://www.w3.org/2000/svg">
<g id="Group">
<g id="Group_2">
<g id="Group_3">
<path id="Vector" d="M70.4883 35.9464H62.4616C61.3691 35.9464 60.3115 36.0956 59.3049 36.3702C57.3193 32.4664 53.2654 29.7842 48.5941 29.7842H34.4059C29.7346 29.7842 25.6807 32.4664 23.6951 36.3702C22.6885 36.0956 21.6309 35.9464 20.5384 35.9464H12.5117C5.88846 35.9464 0.5 41.3354 0.5 47.9593V60.7921C0.5 64.7664 3.73307 67.9999 7.70703 67.9999H75.293C79.2669 67.9999 82.5 64.7664 82.5 60.7921V47.9593C82.5 41.3354 77.1115 35.9464 70.4883 35.9464ZM22.3942 41.7975V63.1948H7.70703C6.38238 63.1948 5.30469 62.117 5.30469 60.7922V47.9595C5.30469 43.9851 8.53776 40.7517 12.5117 40.7517H20.5384C21.1906 40.7517 21.8221 40.8403 22.4233 41.0035C22.406 41.2663 22.3942 41.5306 22.3942 41.7975ZM55.8012 63.1948H27.1988V41.7973C27.1988 37.8229 30.4319 34.5895 34.4059 34.5895H48.5941C52.5681 34.5895 55.8012 37.8229 55.8012 41.7973V63.1948ZM77.6953 60.7922C77.6953 62.117 76.6176 63.1948 75.293 63.1948H60.6058V41.7973C60.6058 41.5303 60.594 41.266 60.5767 41.0033C61.1779 40.8403 61.8094 40.7515 62.4616 40.7515H70.4883C74.4622 40.7515 77.6953 43.985 77.6953 47.9593V60.7922Z" fill="white"/>
</g>
</g>
<g id="Group_4">
<g id="Group_5">
<path id="Vector_2" d="M16.5253 13.2588C10.6398 13.2588 5.85156 18.0475 5.85156 23.9337C5.8514 29.8199 10.6398 34.6086 16.5253 34.6086C22.4108 34.6086 27.1991 29.8199 27.1991 23.9337C27.1991 18.0475 22.4109 13.2588 16.5253 13.2588ZM16.5252 29.8034C13.2889 29.8034 10.6561 27.1703 10.6561 23.9337C10.6561 20.6971 13.2889 18.064 16.5252 18.064C19.7615 18.064 22.3943 20.6971 22.3943 23.9337C22.3943 27.1703 19.7615 29.8034 16.5252 29.8034Z" fill="#33C16C"/>
</g>
</g>
<g id="Group_6">
<g id="Group_7">
<path id="Vector_3" d="M41.5019 0C33.6389 0 27.2419 6.39763 27.2419 14.2615C27.2419 22.1253 33.6389 28.523 41.5019 28.523C49.365 28.523 55.7619 22.1253 55.7619 14.2615C55.7619 6.39779 49.365 0 41.5019 0ZM41.5019 23.7178C36.2882 23.7178 32.0466 19.4758 32.0466 14.2615C32.0466 9.04737 36.2882 4.80519 41.5019 4.80519C46.7157 4.80519 50.9572 9.04721 50.9572 14.2615C50.9572 19.4758 46.7157 23.7178 41.5019 23.7178Z" fill="#33C16C"/>
</g>
</g>
<g id="Group_8">
<g id="Group_9">
<path id="Vector_4" d="M66.4706 13.2588C60.5852 13.2588 55.7969 18.0475 55.7969 23.9337C55.797 29.8199 60.5852 34.6086 66.4706 34.6086C72.3562 34.6086 77.1444 29.8199 77.1444 23.9337C77.1444 18.0475 72.3562 13.2588 66.4706 13.2588ZM66.4706 29.8034C63.2345 29.8034 60.6016 27.1703 60.6016 23.9337C60.6017 20.6971 63.2345 18.064 66.4706 18.064C69.7069 18.064 72.3397 20.6971 72.3397 23.9337C72.3397 27.1703 69.7069 29.8034 66.4706 29.8034Z" fill="#33C16C"/>
</g>
</g>
</g>
</svg>
