<svg width="69" height="68" viewBox="0 0 69 68" fill="none" xmlns="http://www.w3.org/2000/svg">
<g id="4 7" clip-path="url(#clip0_2_6218)">
<g id="Group">
<path id="Vector" d="M16.0506 58.3083L14.9641 50.6307C14.8094 49.5379 13.7971 48.7752 12.7054 48.932C11.6124 49.0865 10.8519 50.0979 11.0066 51.1907L11.2499 52.9101C9.17507 50.3494 7.52298 47.4459 6.37851 44.3165C-1.72288 22.1666 17.8422 -0.17248 40.6532 4.69347C41.7324 4.92316 42.7942 4.23541 43.0247 3.15595C43.2551 2.0765 42.5667 1.01476 41.4872 0.784402C15.729 -4.7112 -6.61307 20.433 2.62479 45.6896C3.91902 49.2284 5.78642 52.5137 8.13239 55.4123L6.20131 55.0414C5.11705 54.8334 4.06984 55.543 3.8616 56.6269C3.65335 57.7109 4.36322 58.7583 5.44707 58.9666L13.5242 60.5182C14.9788 60.9287 16.2435 59.6691 16.0506 58.3083Z" fill="white"/>
<path id="Vector_2" d="M66.4181 22.3327C65.1239 18.7939 63.2565 15.5087 60.9105 12.61L62.8417 12.981C63.925 13.1888 64.9732 12.4793 65.1814 11.3955C65.3897 10.3115 64.6798 9.26401 63.5959 9.05577L55.5172 7.50373C54.0811 7.0995 52.7966 8.33178 52.9924 9.71381L54.079 17.3915C54.2202 18.3894 55.0754 19.1102 56.0552 19.1102C57.2768 19.1102 58.2061 18.0306 58.0364 16.8314L57.7931 15.112C59.8679 17.6726 61.52 20.5762 62.6645 23.7054C68.3382 39.2182 60.3582 56.4628 44.8759 62.1466C39.5792 64.0911 33.8784 64.4996 28.3898 63.3286C27.3108 63.0984 26.2487 63.7867 26.0183 64.8661C25.7879 65.9456 26.4764 67.0073 27.5558 67.2377C33.7827 68.5663 40.2481 68.1032 46.2532 65.8987C63.8448 59.4409 72.8635 39.9551 66.4181 22.3327Z" fill="white"/>
<path id="Vector_3" d="M55.2381 34.1159C55.2381 22.6734 45.9446 13.3643 34.5213 13.3643C23.098 13.3643 13.8044 22.6734 13.8044 34.1159C13.8044 45.5583 23.098 54.8675 34.5213 54.8675C45.9446 54.8675 55.2381 45.5583 55.2381 34.1159ZM17.8014 34.1159C17.8014 24.8773 25.3019 17.3613 34.5213 17.3613C43.7406 17.3613 51.2411 24.8773 51.2411 34.1159C51.2411 43.3544 43.7406 50.8705 34.5213 50.8705C25.3019 50.8705 17.8014 43.3544 17.8014 34.1159Z" fill="white"/>
<path id="Vector_4" d="M36.5197 45.3418V43.6736C39.9828 43.6736 42.3925 40.9556 42.3925 37.8958C42.3925 34.7098 39.8036 32.1179 36.6216 32.1179H32.4209C31.4427 32.1179 30.647 31.319 30.647 30.337C30.647 29.3891 31.393 28.5562 32.4487 28.5562H36.4707C37.1764 28.5632 37.8748 28.8812 38.3876 29.4295C39.1415 30.2356 40.4061 30.2777 41.2123 29.5237C42.0184 28.7697 42.0605 27.5051 41.3065 26.699C40.053 25.359 38.3095 24.5807 36.5197 24.5601V22.8911C36.5197 21.7874 35.6249 20.8926 34.5212 20.8926C33.4175 20.8926 32.5227 21.7874 32.5227 22.8911V24.5593C29.0596 24.5593 26.6499 27.2772 26.6499 30.3371C26.6499 33.5231 29.2388 36.115 32.4208 36.115H36.6215C37.5997 36.115 38.3953 36.9139 38.3953 37.8959C38.3953 38.8847 37.5974 39.6769 36.6217 39.6769C36.6124 39.6769 36.6028 39.6767 36.5935 39.6767H32.2051C31.7072 39.6717 31.1776 39.4911 30.7131 39.1685C29.8066 38.5385 28.5613 38.7628 27.9315 39.669C27.3015 40.5754 27.5256 41.8206 28.432 42.4507C29.8003 43.4017 31.0739 43.6739 32.5226 43.6739V45.3421C32.5226 46.4458 33.4174 47.3406 34.5211 47.3406C35.6249 47.3403 36.5197 46.4455 36.5197 45.3418Z" fill="#33C16C"/>
</g>
</g>
<defs>
<clipPath id="clip0_2_6218">
<rect width="68" height="68" fill="white" transform="translate(0.5)"/>
</clipPath>
</defs>
</svg>
