<svg width="150" height="35" viewBox="0 0 150 35" fill="none" xmlns="http://www.w3.org/2000/svg">
<g id="amatic 1" clip-path="url(#clip0_2_18445)">
<path id="Vector" d="M0 33.737H150V34.769H0V33.737ZM46.303 24.922H46.373L52.587 7.948H58.237V8.51C57.745 8.51 57.323 8.557 57.017 8.651C56.7263 8.73008 56.4654 8.89323 56.267 9.12C56.08 9.331 55.963 9.66 55.892 10.058C55.822 10.456 55.799 10.948 55.799 11.558V27.313C55.799 27.946 55.846 28.462 55.916 28.861C55.986 29.259 56.126 29.587 56.315 29.798C56.502 30.033 56.737 30.174 57.065 30.244C57.393 30.314 57.792 30.361 58.26 30.361V30.924H49.703V30.361C50.266 30.361 50.735 30.338 51.11 30.267C51.485 30.197 51.79 30.057 52 29.845C52.212 29.635 52.376 29.33 52.47 28.907C52.563 28.509 52.61 27.97 52.61 27.29V11.816H52.54L45.577 30.947H45.178L38.238 12.238H38.168V27.313C38.168 27.993 38.215 28.533 38.285 28.931C38.355 29.329 38.52 29.634 38.731 29.869C38.941 30.079 39.247 30.22 39.598 30.291C39.973 30.361 40.418 30.384 41.005 30.384V30.947H34.159V30.384C34.699 30.384 35.144 30.338 35.496 30.267C35.8151 30.206 36.1086 30.051 36.339 29.822C36.551 29.611 36.691 29.306 36.761 28.884C36.831 28.485 36.879 27.946 36.879 27.29V11.535C36.879 10.925 36.855 10.433 36.785 10.035C36.715 9.635 36.574 9.331 36.386 9.097C36.199 8.862 35.894 8.721 35.542 8.627C35.191 8.534 34.722 8.487 34.159 8.487V7.924H40.091L46.303 24.922ZM69.936 29.072C69.936 29.517 70.1 29.869 70.428 30.08C70.757 30.314 71.366 30.408 72.28 30.385V30.947H65.74V30.384C66.161 30.384 66.536 30.338 66.865 30.244C67.1769 30.1551 67.4598 29.9854 67.685 29.752C67.92 29.517 68.131 29.189 68.318 28.767C68.506 28.345 68.693 27.829 68.881 27.196L75.071 7.432H75.633L82.291 27.196C82.549 27.97 82.784 28.556 82.971 28.978C83.182 29.4 83.393 29.728 83.628 29.916C83.862 30.126 84.12 30.244 84.401 30.291C84.683 30.338 85.034 30.361 85.456 30.361V30.924H77.204V30.361C77.954 30.361 78.494 30.267 78.798 30.056C79.103 29.846 79.267 29.517 79.267 29.048C79.267 28.861 79.244 28.673 79.197 28.485C79.15 28.298 79.056 27.97 78.915 27.525L77.579 23.585H71.483L70.1 28.04C70.006 28.556 69.936 28.884 69.936 29.072ZM74.367 14.137L71.882 22.343H77.157L74.437 14.137H74.367ZM99.453 28.93C99.547 29.33 99.711 29.634 99.922 29.869C100.156 30.079 100.461 30.22 100.883 30.291C101.305 30.361 101.821 30.384 102.454 30.384V30.947H92.842V30.384C93.475 30.384 94.014 30.361 94.412 30.291C94.834 30.244 95.139 30.103 95.374 29.892C95.608 29.682 95.749 29.352 95.843 28.954C95.936 28.532 95.983 27.994 95.983 27.314V9.236H93.475C92.748 9.236 92.115 9.306 91.622 9.447C91.107 9.587 90.708 9.799 90.38 10.127C90.052 10.432 89.817 10.854 89.677 11.347C89.512 11.839 89.442 12.448 89.419 13.198H88.856V7.971H106.486V13.176H105.924C105.877 11.746 105.549 10.714 104.939 10.128C104.329 9.542 103.321 9.238 101.868 9.238H99.312V27.313C99.312 27.993 99.359 28.533 99.453 28.931V28.93ZM122.992 8.534C122.405 8.534 121.913 8.557 121.515 8.628C121.116 8.698 120.811 8.838 120.6 9.073C120.389 9.308 120.225 9.613 120.131 10.011C120.038 10.41 120.014 10.925 120.014 11.581V27.337C120.014 28.04 120.061 28.579 120.178 28.977C120.295 29.377 120.46 29.681 120.671 29.916C120.905 30.126 121.186 30.267 121.585 30.314C121.96 30.361 122.429 30.408 122.992 30.408V30.971H113.707V30.408C114.317 30.408 114.833 30.361 115.208 30.291C115.606 30.221 115.888 30.056 116.122 29.821C116.333 29.587 116.474 29.283 116.568 28.884C116.661 28.485 116.685 27.97 116.685 27.36V11.605C116.685 10.949 116.638 10.433 116.568 10.035C116.474 9.635 116.333 9.331 116.099 9.097C115.864 8.862 115.56 8.721 115.184 8.651C114.786 8.581 114.294 8.557 113.707 8.557V7.995H122.992V8.534ZM147.866 15.052C147.702 13.082 147.069 11.488 145.991 10.339C144.912 9.167 143.506 8.581 141.818 8.581C139.59 8.581 137.949 9.565 136.894 11.511C135.839 13.457 135.3 16.365 135.3 20.186C135.3 21.968 135.464 23.492 135.769 24.781C136.097 26.071 136.543 27.102 137.152 27.946C137.762 28.766 138.489 29.376 139.356 29.751C140.223 30.127 141.185 30.314 142.24 30.314C143.646 30.314 144.842 29.962 145.827 29.236C146.788 28.509 147.702 27.384 148.523 25.836L149.086 26.118C147.421 29.705 144.795 31.51 141.255 31.51C140 31.5115 138.757 31.2644 137.598 30.783C136.407 30.2866 135.33 29.5526 134.433 28.626C133.495 27.665 132.745 26.493 132.182 25.062C131.619 23.656 131.338 22.015 131.338 20.139C131.338 18.31 131.596 16.646 132.088 15.099C132.604 13.551 133.307 12.215 134.222 11.089C135.136 9.964 136.214 9.073 137.434 8.44C138.676 7.807 140.036 7.502 141.489 7.502C142.193 7.502 142.826 7.572 143.389 7.713C143.881 7.83068 144.359 7.99579 144.819 8.206C145.217 8.393 145.569 8.557 145.874 8.698C146.178 8.838 146.436 8.909 146.647 8.909C146.759 8.91031 146.868 8.88027 146.964 8.82229C147.059 8.76431 147.137 8.68071 147.187 8.581C147.304 8.37 147.398 7.995 147.468 7.479H148.077L148.5 15.075H147.866V15.052ZM7.338 28.65C7.338 29.236 7.573 29.681 8.042 29.986C8.51 30.291 9.354 30.408 10.621 30.384V31.134H1.43V30.384C2.015 30.384 2.554 30.314 3 30.197C3.44249 30.0875 3.84733 29.8609 4.172 29.541C4.5 29.236 4.805 28.791 5.063 28.251C5.321 27.711 5.603 27.008 5.86 26.164L14.536 0H15.333L24.617 26.211C24.992 27.219 25.297 28.017 25.578 28.579C25.86 29.142 26.164 29.564 26.493 29.822C26.821 30.08 27.196 30.244 27.595 30.314C27.993 30.384 28.485 30.408 29.072 30.408V31.158H17.537V30.408C18.592 30.408 19.342 30.268 19.764 30.009C20.186 29.751 20.397 29.306 20.397 28.673C20.4004 28.4274 20.3688 28.1826 20.303 27.946C20.233 27.688 20.116 27.266 19.905 26.68L18.029 21.452H9.52L7.597 27.337C7.41 27.97 7.339 28.415 7.339 28.65H7.338ZM13.528 8.862L10.058 19.717H17.443L13.62 8.862H13.527H13.528Z" fill="white"/>
</g>
<defs>
<clipPath id="clip0_2_18445">
<rect width="150" height="35" fill="white"/>
</clipPath>
</defs>
</svg>
