<svg width="170" height="32" viewBox="0 0 170 32" fill="none" xmlns="http://www.w3.org/2000/svg">
<g id="bgaming 1" clip-path="url(#clip0_2_18420)">
<path id="Vector" fill-rule="evenodd" clip-rule="evenodd" d="M0 0H24.906V31.304H0V0ZM6.032 26.551V5.667H12.156C14.304 5.667 15.995 6.124 17.183 7.083C18.371 8.043 19.011 9.46 19.011 11.333C19.011 12.247 18.782 13.161 18.371 13.983C17.9145 14.7538 17.227 15.3615 16.406 15.72C16.9067 15.8134 17.3818 16.0126 17.7994 16.3042C18.2171 16.5958 18.5677 16.9731 18.828 17.411C19.3765 18.3187 19.6466 19.3673 19.605 20.427C19.605 22.438 19.056 23.947 17.914 24.952C16.771 25.957 15.126 26.505 13.024 26.505L6.032 26.551ZM9.825 17.32V23.306H12.705C13.0584 23.3284 13.4126 23.2748 13.7436 23.1489C14.0746 23.023 14.3748 22.8276 14.624 22.576C15.0866 21.9588 15.3136 21.1967 15.264 20.427C15.3115 19.6278 15.1204 18.8324 14.715 18.142C14.304 17.594 13.664 17.274 12.979 17.32H9.825ZM9.825 14.487H12.065C12.4186 14.5091 12.7728 14.4553 13.1038 14.329C13.4349 14.2027 13.735 14.007 13.984 13.755C14.441 13.207 14.715 12.475 14.624 11.745C14.669 10.968 14.441 10.191 13.938 9.597C13.39 9.094 12.613 8.866 11.882 8.911H9.825V14.487Z" fill="#FFCD00"/>
<path id="Vector_2" d="M50.2696 31.258H48.8076V0H50.2696V31.258ZM75.6776 31.258H74.2156V0H75.6776V31.258ZM101.041 31.258H99.5786V0H101.041V31.258ZM126.45 31.258H125.033V0H126.45V31.258ZM151.904 31.258H150.442V0H151.904V31.258ZM43.2316 23.078C42.6836 24.038 41.8616 24.814 40.9016 25.363C39.6676 26.094 38.2046 26.414 36.7886 26.368C34.5946 26.368 32.8126 25.683 31.4876 24.358C30.1616 23.032 29.4766 21.158 29.4766 18.691V12.521C29.4766 10.1 30.1166 8.226 31.3966 6.901C32.6756 5.575 34.3666 4.89 36.4686 4.935C38.6166 4.935 40.2156 5.484 41.3586 6.535C42.5006 7.586 43.0946 9.095 43.1866 11.059L43.1406 11.15H40.3986C40.3526 9.825 40.0326 8.82 39.3926 8.18C38.7526 7.54 37.7936 7.175 36.5596 7.175C35.985 7.1533 35.4132 7.26582 34.8897 7.50363C34.3662 7.74144 33.9053 8.09799 33.5436 8.545C32.8126 9.46 32.4466 10.785 32.4466 12.521V18.737C32.4466 20.519 32.8586 21.89 33.6346 22.804C34.0277 23.2648 34.5194 23.6313 35.0733 23.8764C35.6272 24.1215 36.2291 24.239 36.8346 24.22C37.6566 24.266 38.4336 24.083 39.1646 23.718C39.6676 23.398 40.1246 22.941 40.3986 22.438V17.64H36.8336V15.538H43.3236V23.078H43.2316ZM59.4096 18.92H64.7096L62.1516 9.78H62.0596L59.4096 18.92ZM65.3956 21.204H58.7706L57.2606 26.46H54.2906L60.6876 5.62H63.5216L69.8736 26.459H66.9036L65.3946 21.203L65.3956 21.204ZM82.7156 5.621L87.6056 22.621H87.6966L92.5866 5.621H96.3336V26.46H93.4546V18.462L93.6836 10.465L93.5916 10.419L88.6116 26.459H86.6916L81.6646 10.465H81.6186L81.8476 18.462V26.46H78.9676V5.62H82.7156V5.621ZM114.385 26.46H111.506V5.62H114.385V26.46ZM145.689 26.46H142.764L134.859 10.968H134.767V26.46H131.888V5.62H134.767L142.673 21.066H142.764V5.621H145.689V26.46ZM170.001 23.215C169.407 24.175 168.63 24.952 167.67 25.5C166.436 26.231 164.974 26.551 163.557 26.505C161.364 26.505 159.627 25.865 158.256 24.54C156.931 23.215 156.246 21.341 156.246 18.874V12.613C156.246 10.191 156.885 8.317 158.165 6.992C159.445 5.667 161.135 4.982 163.192 4.982C165.34 4.982 166.939 5.53 168.082 6.581C169.224 7.631 169.818 9.14 169.91 11.105L169.864 11.196H167.122C167.076 9.871 166.756 8.911 166.117 8.226C165.477 7.54 164.517 7.22 163.283 7.22C162.708 7.19842 162.136 7.31109 161.613 7.54908C161.089 7.78706 160.628 8.14381 160.267 8.591C159.536 9.505 159.17 10.831 159.17 12.567V18.782C159.17 20.564 159.582 21.936 160.359 22.849C160.751 23.3099 161.243 23.6766 161.796 23.9218C162.35 24.1671 162.951 24.2848 163.557 24.266C164.38 24.312 165.157 24.129 165.888 23.763C166.391 23.443 166.848 22.987 167.122 22.483V17.731H163.557V15.63H170.001V23.216V23.215Z" fill="#FFCD00"/>
</g>
<defs>
<clipPath id="clip0_2_18420">
<rect width="170" height="32" fill="white"/>
</clipPath>
</defs>
</svg>
