<svg width="24" height="24" viewBox="0 0 24 24" fill="none" xmlns="http://www.w3.org/2000/svg">
<g id="icon-all-games">
<g id="Group">
<g id="Group_2">
<g id="Group_3">
<g id="Group_4">
<path id="Vector" d="M16.6627 16.6302V6.99331C16.6627 5.89432 15.7687 5 14.6694 5H9.32925C8.22997 5 7.33594 5.89432 7.33594 6.99331V16.6304C7.33594 17.7294 8.23 18.624 9.32925 18.624H14.6694C15.7684 18.624 16.6627 17.7294 16.6627 16.6302ZM15.6392 16.6302C15.6392 17.1648 15.2041 17.5996 14.6694 17.5996H9.32925C8.79458 17.5996 8.35978 17.1648 8.35978 16.6302V6.99331C8.35978 6.45864 8.79461 6.02384 9.32925 6.02384H14.6694C15.2041 6.02384 15.6392 6.45867 15.6392 6.99331V16.6302Z" />
<path id="Vector_2" d="M19.6651 7.03423C19.37 6.59025 18.9216 6.28797 18.4022 6.18345L17.3911 5.97908C17.1116 5.9228 16.8437 6.1022 16.7877 6.3795C16.7314 6.65652 16.9108 6.92664 17.1879 6.98267L18.1992 7.18676C18.4507 7.23722 18.6681 7.38419 18.8115 7.60024C18.9551 7.81655 19.0062 8.07389 18.9551 8.32569L17.0456 17.7773C16.9951 18.0285 16.8479 18.2462 16.6318 18.3896C16.4155 18.533 16.1576 18.584 15.9064 18.5332C15.6288 18.4772 15.359 18.6564 15.3032 18.9337C15.2472 19.2107 15.4263 19.4808 15.7036 19.5368C15.8354 19.5637 15.9679 19.5768 16.0996 19.5768C16.4867 19.5768 16.8664 19.4628 17.1986 19.2429C17.6423 18.9481 17.9449 18.4994 18.0497 17.98L19.9593 8.52868C20.0641 8.00898 19.9598 7.47819 19.6651 7.03423Z" />
<path id="Vector_3" d="M8.09191 18.5333C7.8401 18.5837 7.58277 18.533 7.36646 18.3896C7.15044 18.2462 7.00347 18.0286 6.95272 17.7773L5.04313 8.32572C4.99238 8.0742 5.04341 7.81658 5.18678 7.60056C5.33043 7.38453 5.54811 7.23785 5.8002 7.18707L6.81101 6.98242C7.08803 6.92639 7.26718 6.6563 7.21118 6.379C7.15515 6.10223 6.88729 5.92339 6.60777 5.97883L5.59805 6.18348C5.0781 6.28804 4.62911 6.59003 4.33434 7.03426C4.03928 7.47797 3.93473 8.00876 4.03982 8.52871L5.94938 17.9798C6.05419 18.4992 6.35646 18.9479 6.80045 19.2426C7.13184 19.4625 7.51174 19.5765 7.89888 19.5765C8.03031 19.5765 8.16315 19.5638 8.29462 19.5369C8.57192 19.4808 8.75107 19.2108 8.69504 18.9337C8.63904 18.6564 8.36865 18.4784 8.09191 18.5333Z" />
<path id="Vector_4" d="M10.2927 8.46321V8.27244H10.4843C10.7669 8.27244 10.9962 8.0431 10.9962 7.76052C10.9962 7.47793 10.7672 7.24859 10.4843 7.24859H10.2927V7.05782C10.2927 6.77523 10.0636 6.5459 9.78077 6.5459C9.49791 6.5459 9.26885 6.77495 9.26885 7.05782V7.24859H9.07833C8.79546 7.24859 8.56641 7.47793 8.56641 7.76052C8.56641 8.0431 8.79546 8.27244 9.07833 8.27244H9.26885V8.46324C9.26885 8.74583 9.49791 8.97517 9.78077 8.97517C10.0634 8.97513 10.2924 8.74608 10.2927 8.46321Z" />
<path id="Vector_5" d="M14.9215 15.3512H14.7304V15.1606C14.7304 14.8778 14.5014 14.6484 14.2185 14.6484C13.9357 14.6484 13.7066 14.8778 13.7066 15.1606V15.3512H13.5158C13.233 15.3512 13.0039 15.5802 13.0039 15.8631C13.0039 16.146 13.233 16.375 13.5158 16.375H13.7066V16.5661C13.7066 16.8489 13.9357 17.078 14.2185 17.078C14.5014 17.078 14.7304 16.8489 14.7304 16.5661V16.375H14.9215C15.2041 16.375 15.4334 16.146 15.4334 15.8631C15.4334 15.5802 15.2044 15.3512 14.9215 15.3512Z" />
<path id="Vector_6" d="M12.0019 11.0897C12.3848 11.0897 12.6952 10.7793 12.6952 10.3964C12.6952 10.0135 12.3848 9.70312 12.0019 9.70312C11.619 9.70312 11.3086 10.0135 11.3086 10.3964C11.3086 10.7793 11.619 11.0897 12.0019 11.0897Z" />
<path id="Vector_7" d="M12.0019 13.9208C12.3848 13.9208 12.6952 13.6104 12.6952 13.2275C12.6952 12.8446 12.3848 12.5342 12.0019 12.5342C11.619 12.5342 11.3086 12.8446 11.3086 13.2275C11.3086 13.6104 11.619 13.9208 12.0019 13.9208Z" />
<path id="Vector_8" d="M14.1092 11.8115C14.1092 11.4288 13.7989 11.1182 13.4165 11.1182C13.0335 11.1182 12.7227 11.4287 12.7227 11.8115C12.7227 12.1944 13.0335 12.505 13.4165 12.505C13.7989 12.505 14.1092 12.1947 14.1092 11.8115Z" />
<path id="Vector_9" d="M10.5842 12.5053C10.9672 12.5053 11.2778 12.1948 11.2778 11.8117C11.2778 11.4287 10.9672 11.1182 10.5842 11.1182C10.2011 11.1182 9.89062 11.4287 9.89062 11.8117C9.89062 12.1948 10.2011 12.5053 10.5842 12.5053Z" />
</g>
</g>
</g>
</g>
</g>
</svg>
