<svg width="40" height="33" viewBox="0 0 40 33" fill="none" xmlns="http://www.w3.org/2000/svg">
<g id="card 1">
<g id="Group">
<path id="Vector" d="M36 10.834V9.14648C36 7.21348 34.384 5.64648 32.3906 5.64648H6.60938C4.61597 5.64648 3 7.21348 3 9.14648V10.834C3 10.9169 3.03395 10.9964 3.09439 11.055C3.15483 11.1136 3.2368 11.1465 3.32227 11.1465H35.6777C35.7632 11.1465 35.8452 11.1136 35.9056 11.055C35.966 10.9964 36 10.9169 36 10.834ZM3 13.459V24.1465C3 26.0795 4.61597 27.6465 6.60938 27.6465H32.3906C34.384 27.6465 36 26.0795 36 24.1465V13.459C36 13.3761 35.966 13.2966 35.9056 13.238C35.8452 13.1794 35.7632 13.1465 35.6777 13.1465H3.32227C3.2368 13.1465 3.15483 13.1794 3.09439 13.238C3.03395 13.2966 3 13.3761 3 13.459ZM11.25 21.6465C11.25 22.1987 10.7883 22.6465 10.2188 22.6465H9.1875C8.61799 22.6465 8.15625 22.1987 8.15625 21.6465V20.6465C8.15625 20.0942 8.61799 19.6465 9.1875 19.6465H10.2188C10.7883 19.6465 11.25 20.0942 11.25 20.6465V21.6465Z" fill="white"/>
</g>
</g>
</svg>
