<svg width="24" height="24" viewBox="0 0 24 24" fill="none" xmlns="http://www.w3.org/2000/svg">
<g id="icon-crypto">
<g id="Group">
<g id="Group_2">
<path id="Vector" d="M6.30777 17.6922C7.82815 19.2126 9.84986 20.05 12 20.05C14.1501 20.05 16.1719 19.2126 17.6922 17.6922C19.2126 16.1718 20.05 14.1501 20.05 12C20.05 9.84986 19.2126 7.82815 17.6922 6.30777C16.1719 4.78739 14.1501 3.95 12 3.95C9.84987 3.95 7.82812 4.78736 6.30777 6.30777C4.78742 7.82818 3.95 9.84986 3.95 12C3.95 14.1501 4.78739 16.1719 6.30777 17.6922ZM5.05 12C5.05 8.1678 8.1678 5.05 12 5.05C15.8322 5.05 18.95 8.1678 18.95 12C18.95 15.8322 15.8322 18.95 12 18.95C8.1678 18.95 5.05 15.8322 5.05 12Z" fill="currentColor" stroke="white" stroke-width="0.1"/>
<path id="Vector_2" d="M13.8208 12C14.2368 11.6332 14.5 11.0969 14.5 10.5C14.5 9.66237 13.9822 8.94381 13.25 8.64647V8C13.25 7.72387 13.0262 7.5 12.75 7.5C12.4738 7.5 12.25 7.72387 12.25 8V8.5H11.25V8C11.25 7.72387 11.0262 7.5 10.75 7.5C10.4738 7.5 10.25 7.72387 10.25 8V8.5H9.25C8.97384 8.5 8.75 8.72388 8.75 9C8.75 9.27612 8.97384 9.5 9.25 9.5H9.75V12V14.5H9.25C8.97384 14.5 8.75 14.7239 8.75 15C8.75 15.2761 8.97384 15.5 9.25 15.5H10.25V16C10.25 16.2761 10.4738 16.5 10.75 16.5C11.0262 16.5 11.25 16.2761 11.25 16V15.5H12.25V16C12.25 16.2761 12.4738 16.5 12.75 16.5C13.0262 16.5 13.25 16.2761 13.25 16V15.3535C13.9822 15.0562 14.5 14.3376 14.5 13.5C14.5 12.9031 14.2368 12.3668 13.8208 12ZM10.75 9.5H12.5C13.0514 9.5 13.5 9.94859 13.5 10.5C13.5 11.0514 13.0514 11.5 12.5 11.5H10.75V9.5ZM12.5 14.5H10.75V12.5H12.5C13.0514 12.5 13.5 12.9486 13.5 13.5C13.5 14.0514 13.0514 14.5 12.5 14.5Z" fill="currentColor"/>
</g>
</g>
</g>
</svg>
