<svg width="24" height="24" viewBox="0 0 24 24" fill="none" xmlns="http://www.w3.org/2000/svg">
    <g id="icon-like-game">
        <g id="Group">
            <path id="Vector"
                  d="M15.3759 5C14.7431 5.00074 14.1171 5.13112 13.5366 5.3831C12.9561 5.63508 12.4333 6.00333 12.0006 6.46511C11.3665 5.78834 10.5436 5.31782 9.63867 5.11464C8.73377 4.91146 7.78868 4.985 6.9261 5.32572C6.06352 5.66644 5.32329 6.2586 4.8015 7.02532C4.27971 7.79205 4.00046 8.69793 4 9.62536C4 14.2307 11.4281 18.7511 11.7506 18.9286C11.8284 18.9753 11.9174 19 12.0081 19C12.0989 19 12.1879 18.9753 12.2656 18.9286C12.5732 18.7511 20.0013 14.2307 20.0013 9.62536C19.9999 8.39905 19.5122 7.22334 18.6451 6.3562C17.7779 5.48906 16.6022 5.00132 15.3759 5ZM12.0006 17.911C10.708 17.0859 5.00008 13.2306 5.00008 9.62536C5.00072 8.85529 5.24656 8.10542 5.70197 7.48444C6.15738 6.86346 6.7987 6.40363 7.53298 6.17159C8.26727 5.93955 9.05636 5.94736 9.78591 6.19388C10.5155 6.4404 11.1476 6.91283 11.5906 7.5427C11.6368 7.60822 11.698 7.66168 11.7691 7.69858C11.8403 7.73549 11.9192 7.75475 11.9994 7.75475C12.0795 7.75475 12.1585 7.73549 12.2296 7.69858C12.3008 7.66168 12.362 7.60822 12.4082 7.5427C12.8508 6.91175 13.4831 6.4383 14.2131 6.19108C14.9431 5.94387 15.7329 5.93575 16.4679 6.16792C17.2028 6.40008 17.8447 6.86044 18.3002 7.48216C18.7558 8.10388 19.0013 8.85461 19.0012 9.62536C19.0012 13.2281 13.2932 17.0834 12.0006 17.911Z"/>
        </g>
    </g>
</svg>
