<svg width="36" height="36" viewBox="0 0 36 36" fill="none" xmlns="http://www.w3.org/2000/svg">
<g id="icon-all-games">
<g id="icon-game-studio">
<g id="Group">
<g id="XMLID_1338_">
<g id="XMLID_180_">
<path id="XMLID_201_" d="M11.6434 9.39451L11.6434 9.39451C11.846 9.59708 12.1744 9.59708 12.377 9.39451L12.377 9.39451L14.6371 7.13446L14.6371 7.13445C14.7319 7.03964 14.8577 6.98757 14.9917 6.98757C15.1258 6.98757 15.2516 7.03968 15.3463 7.13445L15.3463 7.13446L22.8496 14.6378C23.0452 14.8333 23.0452 15.1516 22.8496 15.3471L22.885 15.3824L22.8496 15.3471L15.3463 22.8504C15.2515 22.9451 15.1258 22.9972 14.9917 22.9972C14.8576 22.9972 14.7319 22.9451 14.6371 22.8503L14.6017 22.8857L14.6371 22.8503L7.13375 15.3471C6.93821 15.1515 6.93821 14.8332 7.13375 14.6377L9.39379 12.3777C9.59637 12.1751 9.59636 11.8467 9.39379 11.644L9.39378 11.644C9.19116 11.4415 8.86279 11.4415 8.66012 11.644L8.66011 11.644L6.40007 13.9041C5.79998 14.5042 5.79998 15.4806 6.40007 16.0807L13.9034 23.5839C14.194 23.8746 14.5807 24.0348 14.9917 24.0348C15.4027 24.0348 15.7894 23.8746 16.08 23.584L16.0447 23.5486L16.08 23.584L16.3605 23.3035V28.5116C16.3605 29.3603 17.0509 30.0506 17.8997 30.0506H28.5109C29.3596 30.0506 30.05 29.3603 30.05 28.5116V17.9003C30.0499 17.0516 29.3595 16.3612 28.5108 16.3612H23.3028L23.5833 16.0807C24.1834 15.4806 24.1834 14.5043 23.5833 13.9041L23.548 13.9395L23.5833 13.9041L16.08 6.40078C15.7893 6.11015 15.4026 5.95 14.9917 5.95C14.5807 5.95 14.194 6.11015 13.9034 6.40078L11.6434 8.66087C11.4408 8.86345 11.4408 9.19193 11.6434 9.39451ZM29.0124 28.4616H29.0124V28.5116C29.0124 28.7881 28.7874 29.0131 28.5108 29.0131H17.8996C17.6231 29.0131 17.398 28.7881 17.398 28.5116V22.2659L22.2653 17.3987H28.5108C28.7874 17.3987 29.0124 17.6238 29.0124 17.9003V28.4616Z"   stroke-width="0.1"/>
<path id="XMLID_1113_" d="M23.2066 21.4717C22.2505 21.4717 21.4727 22.2495 21.4727 23.2056C21.4727 24.1617 22.2505 24.9396 23.2066 24.9396C24.1627 24.9396 24.9406 24.1617 24.9406 23.2056C24.9406 22.2495 24.1627 21.4717 23.2066 21.4717ZM23.2066 24.0021C22.7675 24.0021 22.4102 23.6448 22.4102 23.2056C22.4102 22.7665 22.7675 22.4092 23.2066 22.4092C23.6457 22.4092 24.003 22.7665 24.003 23.2056C24.003 23.6448 23.6457 24.0021 23.2066 24.0021Z" />
<path id="XMLID_1160_" d="M11.4128 16.7256C11.8569 16.7256 12.3008 16.5566 12.6389 16.2185C12.6389 16.2185 12.6389 16.2185 12.6389 16.2185C13.315 15.5424 13.315 14.4424 12.6389 13.7663C11.9628 13.0903 10.8627 13.0903 10.1867 13.7664C9.51068 14.4424 9.51068 15.5424 10.1867 16.2185C10.5247 16.5566 10.9688 16.7256 11.4128 16.7256ZM10.8496 14.4293C11.0049 14.274 11.2088 14.1964 11.4128 14.1964C11.6168 14.1964 11.8207 14.274 11.976 14.4292C12.2865 14.7397 12.2865 15.2451 11.976 15.5556C11.6654 15.8661 11.1602 15.8661 10.8497 15.5556C10.5391 15.2451 10.5391 14.7398 10.8496 14.4293Z" />
<path id="XMLID_1205_" d="M16.2178 12.6399C16.8939 11.9638 16.8939 10.8638 16.2178 10.1877C15.5418 9.51167 14.4418 9.51162 13.7657 10.1877C13.4382 10.5152 13.2578 10.9507 13.2578 11.4138C13.2578 11.8769 13.4382 12.3124 13.7657 12.6399C14.1037 12.9779 14.5478 13.1469 14.9917 13.1469C15.4357 13.147 15.8798 12.9779 16.2178 12.6399ZM14.1953 11.4138C14.1953 11.2011 14.2781 11.0011 14.4286 10.8506C14.5838 10.6954 14.7878 10.6178 14.9918 10.6178C15.1957 10.6178 15.3996 10.6954 15.5549 10.8506C15.8654 11.1612 15.8654 11.6665 15.5549 11.977C15.2444 12.2876 14.7391 12.2875 14.4286 11.977C14.2781 11.8266 14.1953 11.6265 14.1953 11.4138Z" />
<path id="XMLID_1209_" d="M13.7657 19.7971C14.0932 20.1246 14.5286 20.305 14.9918 20.305C15.4549 20.305 15.8904 20.1246 16.2178 19.7971C16.5453 19.4696 16.7258 19.0342 16.7258 18.571C16.7258 18.1078 16.5453 17.6724 16.2179 17.3449C15.5418 16.6689 14.4418 16.6689 13.7657 17.3449C13.4382 17.6724 13.2578 18.1078 13.2578 18.571C13.2579 19.0342 13.4382 19.4696 13.7657 19.7971ZM14.4287 18.0079C14.5839 17.8526 14.7879 17.775 14.9918 17.775C15.1958 17.775 15.3997 17.8526 15.555 18.0079C15.7055 18.1583 15.7883 18.3583 15.7883 18.571C15.7883 18.7837 15.7055 18.9837 15.555 19.1341C15.555 19.1341 15.555 19.1341 15.555 19.1341C15.4046 19.2846 15.2045 19.3674 14.9919 19.3674C14.7791 19.3674 14.5791 19.2846 14.4286 19.1341C14.2782 18.9837 14.1954 18.7837 14.1954 18.571C14.1954 18.3583 14.2782 18.1583 14.4287 18.0079Z" />
<path id="XMLID_1212_" d="M19.7951 16.2185C19.7952 16.2185 19.7952 16.2185 19.7952 16.2185C20.4712 15.5424 20.4712 14.4424 19.7951 13.7663C19.119 13.0902 18.0189 13.0903 17.343 13.7663C16.6669 14.4424 16.6669 15.5424 17.343 16.2185C17.681 16.5565 18.125 16.7255 18.5691 16.7255C19.013 16.7255 19.4571 16.5565 19.7951 16.2185ZM18.0059 15.5556C17.6954 15.2451 17.6954 14.7398 18.0059 14.4292C18.1612 14.274 18.3651 14.1964 18.5691 14.1964C18.773 14.1964 18.977 14.274 19.1322 14.4292C19.4427 14.7398 19.4427 15.2451 19.1323 15.5556C18.8216 15.8661 18.3164 15.866 18.0059 15.5556Z" />
<path id="XMLID_1249_" d="M10.8156 10.8156L10.8155 10.8156C10.7378 10.8934 10.6296 10.9383 10.5195 10.9383C10.4095 10.9383 10.3013 10.8934 10.2235 10.8156L10.2235 10.8156C10.1456 10.7378 10.1008 10.6296 10.1008 10.5195C10.1008 10.4095 10.1457 10.3013 10.2235 10.2235L10.2236 10.2234C10.3013 10.1453 10.4094 10.1008 10.5195 10.1008C10.6296 10.1008 10.7378 10.1457 10.8155 10.2235L10.8156 10.2235C10.8934 10.3013 10.9383 10.4091 10.9383 10.5195C10.9383 10.6295 10.8934 10.7378 10.8156 10.8156Z"   stroke-width="0.1"/>
</g>
</g>
</g>
</g>
</g>
</svg>
