<svg width="36" height="36" viewBox="0 0 36 36" fill="none" xmlns="http://www.w3.org/2000/svg">
<g id="icon-hot">
<g id="Group">
<g id="Group_2">
<path id="Vector" d="M27.0241 11.5991C26.5188 11.0235 25.5978 11.1196 25.2201 11.782C24.6179 12.8378 23.6025 14.0509 21.9819 14.5419C22.9429 10.2818 21.5186 6.05668 18.7885 3.32616C18.3537 2.89128 17.6486 2.89128 17.2138 3.32616L9.5169 11.023C4.82795 15.7121 4.82745 23.3018 9.5169 27.9914C14.206 32.6803 21.7957 32.681 26.4854 27.9914C30.9711 23.5055 31.1764 16.3283 27.0241 11.5991ZM15.9546 28.4309C14.8236 27.2999 14.8233 25.4691 15.9547 24.3379L18.0012 22.2913L20.0477 24.3379H20.0477C21.1787 25.4689 21.179 27.2996 20.0477 28.431C18.9186 29.56 17.0846 29.5609 15.9546 28.4309ZM22.8684 27.9805C23.4492 26.2035 23.0373 24.1781 21.6224 22.7631L18.7886 19.9293C18.3537 19.4945 17.6486 19.4945 17.2138 19.9293L14.38 22.7631C12.9669 24.1763 12.5525 26.2012 13.1339 27.9805C7.54417 24.7716 6.56663 17.1228 11.0917 12.5978L17.9495 5.73989C19.961 8.34209 20.7359 11.8883 19.3782 15.4857C19.1036 16.2134 19.6423 16.9924 20.42 16.9924C22.728 16.9924 24.7435 16.0239 26.228 14.2319C29.2202 18.8848 27.7437 25.1817 22.8684 27.9805Z" fill="url(#paint0_linear_2_18074)"/>
</g>
</g>
</g>
<defs>
<linearGradient id="paint0_linear_2_18074" x1="6" y1="31.5083" x2="30" y2="31.5083" gradientUnits="userSpaceOnUse">
<stop stop-color="#3DC68D"/>
<stop offset="1" stop-color="#278B62"/>
</linearGradient>
</defs>
</svg>
