<svg width="16" height="17" viewBox="0 0 16 17" fill="none" xmlns="http://www.w3.org/2000/svg">
<g id="error">
<path id="Vector" d="M8.00065 2.27441C4.32065 2.27441 1.33398 5.26108 1.33398 8.94108C1.33398 12.6211 4.32065 15.6077 8.00065 15.6077C11.6807 15.6077 14.6673 12.6211 14.6673 8.94108C14.6673 5.26108 11.6807 2.27441 8.00065 2.27441ZM8.00065 9.60775C7.63398 9.60775 7.33398 9.30775 7.33398 8.94108V6.27441C7.33398 5.90775 7.63398 5.60775 8.00065 5.60775C8.36732 5.60775 8.66732 5.90775 8.66732 6.27441V8.94108C8.66732 9.30775 8.36732 9.60775 8.00065 9.60775ZM8.66732 12.2744H7.33398V10.9411H8.66732V12.2744Z" fill="#33C16C"/>
</g>
</svg>
