<svg width="24" height="24" viewBox="0 0 24 24" fill="none" xmlns="http://www.w3.org/2000/svg">
<g id="icon-home">
<g id="Group">
<g id="Group_2">
<g id="Group_3">
<g id="Group_4">
<path id="Vector" d="M12.0022 13.1045C12.0907 13.1549 12.1866 13.179 12.2817 13.179C12.4775 13.179 12.6678 13.0767 12.7719 12.8949C12.9262 12.6243 12.8324 12.28 12.5618 12.1255C10.4116 10.8966 9.26518 9.5287 8.95361 7.82051C8.81525 7.0605 8.97592 5.93486 9.64578 5.13179C10.2017 4.46526 11.0054 4.1274 12.0336 4.1274C13.6394 4.1274 14.7853 5.01721 15.0981 6.50666C15.4063 7.97288 14.7596 9.87871 12.928 10.6839C12.643 10.8097 12.5132 11.1424 12.6387 11.4274C12.7643 11.7124 13.0966 11.841 13.3822 11.7167C15.7636 10.6696 16.6033 8.18642 16.2017 6.27512C15.869 4.69167 14.5995 3 12.0336 3C10.3166 3 9.3165 3.76641 8.77949 4.40943C7.8142 5.56654 7.67188 7.07888 7.84384 8.02248C8.33748 10.7301 10.4534 12.2199 12.0022 13.1045Z" />
<path id="Vector_2" d="M19.4358 19.4951H5.13022C5.14977 17.114 5.29671 15.551 5.56735 14.8438C5.92778 13.9035 7.48505 13.0519 8.4314 12.6353C9.2302 13.9582 10.6039 14.7879 12.0561 14.7879H12.0564C13.4857 14.7879 14.7625 13.9931 15.5567 12.6365C16.5027 13.0528 18.0554 13.902 18.4164 14.8444C18.7683 15.7602 18.7497 16.8305 18.7332 17.7753C18.7298 17.9785 18.7262 18.1764 18.7262 18.3673C18.7262 18.6789 18.9785 18.9312 19.2901 18.9312C19.6016 18.9312 19.8543 18.6789 19.8543 18.3673C19.8543 18.1828 19.8573 17.9913 19.861 17.7949C19.8793 16.7477 19.8998 15.5604 19.4697 14.4406C18.7842 12.6502 15.8245 11.5154 15.4892 11.392C15.213 11.2909 14.9051 11.4183 14.782 11.6856C14.205 12.9407 13.2116 13.6604 12.0566 13.6604C10.8567 13.6607 9.76318 12.9038 9.20267 11.6856C9.07986 11.4183 8.77256 11.2909 8.49552 11.392C8.16042 11.5154 5.20109 12.6502 4.5147 14.4402C4.05345 15.6432 4 18.2231 4 20.059C4 20.3703 4.25264 20.6226 4.56389 20.6226H19.4355C19.7471 20.6226 20 20.3705 20 20.059C20 19.7474 19.7474 19.4951 19.4358 19.4951Z" />
<path id="Vector_3" d="M12.0019 16.9814C12.4237 16.9814 12.7656 16.6395 12.7656 16.2178C12.7656 15.796 12.4237 15.4541 12.0019 15.4541C11.5802 15.4541 11.2383 15.796 11.2383 16.2178C11.2383 16.6395 11.5802 16.9814 12.0019 16.9814Z" />
<path id="Vector_4" d="M14.7915 15.2203C14.6071 14.9689 14.2539 14.9155 14.0035 15.1L13.1008 15.7641C12.9563 15.8703 12.8711 16.039 12.8711 16.2186C12.8714 16.3979 12.9566 16.5665 13.1014 16.6728L14.0038 17.3357C14.1043 17.4093 14.2213 17.445 14.337 17.445C14.5105 17.445 14.6816 17.365 14.7922 17.2153C14.9764 16.9645 14.922 16.6114 14.6712 16.4269L14.3868 16.2182L14.6715 16.0087C14.9229 15.8243 14.9763 15.4708 14.7915 15.2203Z" />
<path id="Vector_5" d="M9.20732 17.215C9.31791 17.3652 9.48897 17.4453 9.66217 17.4453C9.77796 17.4453 9.89495 17.4096 9.99542 17.3353L10.8978 16.6725C11.0422 16.5665 11.1278 16.3976 11.1278 16.2182C11.1278 16.0387 11.0426 15.8703 10.8981 15.7637L9.99573 15.0996C9.74495 14.9157 9.39181 14.9689 9.20732 15.22C9.02283 15.4705 9.0766 15.8239 9.32737 16.0084L9.61206 16.2179L9.32796 16.4266C9.07687 16.611 9.0228 16.9642 9.20732 17.215Z" />
</g>
</g>
</g>
</g>
</g>
</svg>
