<svg width="24" height="24" viewBox="0 0 24 24" fill="none" xmlns="http://www.w3.org/2000/svg">
<path d="M24 4.85C24 5.07543 23.9097 5.29163 23.7489 5.45104C23.5882 5.61045 23.3702 5.7 23.1429 5.7H0.857143C0.629814 5.7 0.411797 5.61045 0.251051 5.45104C0.0903058 5.29163 0 5.07543 0 4.85C0 4.62457 0.0903058 4.40837 0.251051 4.24896C0.411797 4.08955 0.629814 4 0.857143 4H23.1429C23.3702 4 23.5882 4.08955 23.7489 4.24896C23.9097 4.40837 24 4.62457 24 4.85ZM19.7143 11.65H0.857143C0.629814 11.65 0.411797 11.7396 0.251051 11.899C0.0903058 12.0584 0 12.2746 0 12.5C0 12.7254 0.0903058 12.9416 0.251051 13.101C0.411797 13.2604 0.629814 13.35 0.857143 13.35H19.7143C19.9416 13.35 20.1596 13.2604 20.3204 13.101C20.4811 12.9416 20.5714 12.7254 20.5714 12.5C20.5714 12.2746 20.4811 12.0584 20.3204 11.899C20.1596 11.7396 19.9416 11.65 19.7143 11.65ZM12 19.3H0.857143C0.629814 19.3 0.411797 19.3896 0.251051 19.549C0.0903058 19.7084 0 19.9246 0 20.15C0 20.3754 0.0903058 20.5916 0.251051 20.751C0.411797 20.9104 0.629814 21 0.857143 21H12C12.2273 21 12.4453 20.9104 12.6061 20.751C12.7668 20.5916 12.8571 20.3754 12.8571 20.15C12.8571 19.9246 12.7668 19.7084 12.6061 19.549C12.4453 19.3896 12.2273 19.3 12 19.3Z" fill="white"/>
</svg>
