<svg width="14" height="10" viewBox="0 0 14 10" fill="none" xmlns="http://www.w3.org/2000/svg">
<g id="eye">
<path id="Subtract" fill-rule="evenodd" clip-rule="evenodd" d="M12.8962 4.94173C13.3835 4.48682 13.3834 4.48672 13.3833 4.4866L12.8962 4.94173ZM13.3833 4.4866L13.3797 4.48272L13.3709 4.47338L13.3388 4.43965C13.3111 4.4107 13.2709 4.36911 13.2193 4.31667C13.1162 4.21185 12.9672 4.06343 12.7807 3.88592C12.4085 3.53165 11.8831 3.05782 11.2721 2.58229C10.6631 2.10834 9.95599 1.62239 9.22057 1.25243C8.49288 0.886355 7.68789 0.608398 6.89616 0.608398C6.10442 0.608398 5.29944 0.886355 4.57175 1.25243C3.83633 1.62239 3.12919 2.10834 2.52021 2.58229C1.90919 3.05782 1.38379 3.53165 1.01159 3.88592C0.825101 4.06343 0.676104 4.21185 0.57299 4.31667C0.521411 4.36911 0.48125 4.4107 0.453553 4.43965L0.421465 4.47338L0.412663 4.48272L0.410115 4.48543L0.40931 4.4863C0.4092 4.48641 0.408818 4.48682 0.896159 4.94173L0.408818 4.48682C0.169717 4.74297 0.169717 5.1405 0.408818 5.39664C0.408709 5.39653 0.408818 5.39664 0.896159 4.94173L0.408818 5.39664L0.410115 5.39803L0.412663 5.40075L0.421465 5.41009L0.453553 5.44382C0.48125 5.47276 0.521411 5.51436 0.57299 5.56679C0.676104 5.67162 0.825101 5.82003 1.01159 5.99754C1.38379 6.35181 1.90919 6.82565 2.52021 7.30118C3.12919 7.77512 3.83633 8.26107 4.57175 8.63103C5.29944 8.99711 6.10442 9.27507 6.89616 9.27507C7.68789 9.27507 8.49288 8.99711 9.22057 8.63103C9.95599 8.26107 10.6631 7.77512 11.2721 7.30118C11.8831 6.82565 12.4085 6.35181 12.7807 5.99754C12.9672 5.82003 13.1162 5.67162 13.2193 5.56679C13.2709 5.51436 13.3111 5.47276 13.3388 5.44382L13.3709 5.41009L13.3797 5.40075L13.383 5.39717C13.3831 5.39705 13.3835 5.39664 12.8962 4.94173L13.3835 5.39664C13.6226 5.1405 13.6224 4.74275 13.3833 4.4866ZM5.89616 4.94173C5.89616 4.38945 6.34387 3.94173 6.89616 3.94173C7.44844 3.94173 7.89616 4.38945 7.89616 4.94173C7.89616 5.49402 7.44844 5.94173 6.89616 5.94173C6.34387 5.94173 5.89616 5.49402 5.89616 4.94173ZM6.89616 2.6084C5.60749 2.6084 4.56283 3.65307 4.56283 4.94173C4.56283 6.2304 5.60749 7.27507 6.89616 7.27507C8.18482 7.27507 9.22949 6.2304 9.22949 4.94173C9.22949 3.65307 8.18482 2.6084 6.89616 2.6084Z" fill="#404F55"/>
</g>
</svg>
