<svg width="36" height="36" viewBox="0 0 36 36" fill="none" xmlns="http://www.w3.org/2000/svg">
<g id="icon-all-games">
<g id="icon-results-p-layers">
<g id="Group">
<g id="Group_2">
<path id="Vector" d="M26.4844 18.5202H24.1351C23.8154 18.5202 23.5058 18.5639 23.2112 18.6442C22.63 17.5018 21.4435 16.7168 20.0763 16.7168H15.9237C14.5565 16.7168 13.37 17.5018 12.7888 18.6442C12.4942 18.5639 12.1846 18.5202 11.8649 18.5202H9.51562C7.57711 18.5202 6 20.0973 6 22.0358V25.7913C6 26.9544 6.94627 27.9007 8.10938 27.9007H27.8906C29.0537 27.9007 30 26.9544 30 25.7913V22.0358C30 20.0973 28.4229 18.5202 26.4844 18.5202ZM12.408 20.2325V26.4945H8.10938C7.72167 26.4945 7.40625 26.1791 7.40625 25.7914V22.0358C7.40625 20.8727 8.35252 19.9265 9.51562 19.9265H11.8649C12.0558 19.9265 12.2406 19.9524 12.4166 20.0002C12.4115 20.0771 12.408 20.1544 12.408 20.2325ZM22.1857 26.4945H13.8143V20.2325C13.8143 19.0694 14.7606 18.1231 15.9237 18.1231H20.0763C21.2394 18.1231 22.1857 19.0694 22.1857 20.2325V26.4945ZM28.5938 25.7914C28.5938 26.1791 28.2783 26.4945 27.8906 26.4945H23.592V20.2325C23.592 20.1543 23.5885 20.077 23.5834 20.0001C23.7594 19.9524 23.9442 19.9264 24.1351 19.9264H26.4844C27.6475 19.9264 28.5938 20.8727 28.5938 22.0358V25.7914Z" fill="white"/>
</g>
</g>
<g id="Group_3">
<g id="Group_4">
<path id="Vector_2" d="M10.6904 11.8799C8.96783 11.8799 7.56641 13.2813 7.56641 15.0039C7.56636 16.7265 8.96783 18.1279 10.6904 18.1279C12.413 18.1279 13.8145 16.7265 13.8145 15.0039C13.8145 13.2813 12.413 11.8799 10.6904 11.8799ZM10.6904 16.7217C9.74319 16.7217 8.97261 15.9511 8.97261 15.0039C8.97261 14.0567 9.74319 13.2861 10.6904 13.2861C11.6376 13.2861 12.4082 14.0567 12.4082 15.0039C12.4082 15.9511 11.6376 16.7217 10.6904 16.7217Z" fill="white"/>
</g>
</g>
<g id="Group_5">
<g id="Group_6">
<path id="Vector_3" d="M18.0018 8C15.7004 8 13.8281 9.87228 13.8281 12.1737C13.8281 14.475 15.7004 16.3473 18.0018 16.3473C20.3032 16.3473 22.1754 14.475 22.1754 12.1737C22.1754 9.87233 20.3032 8 18.0018 8ZM18.0018 14.9411C16.4758 14.9411 15.2344 13.6996 15.2344 12.1737C15.2344 10.6477 16.4758 9.40625 18.0018 9.40625C19.5277 9.40625 20.7692 10.6477 20.7692 12.1737C20.7692 13.6996 19.5277 14.9411 18.0018 14.9411Z" fill="white"/>
</g>
</g>
<g id="Group_7">
<g id="Group_8">
<path id="Vector_4" d="M25.3076 11.8799C23.5851 11.8799 22.1836 13.2813 22.1836 15.0039C22.1836 16.7265 23.5851 18.1279 25.3076 18.1279C27.0302 18.1279 28.4317 16.7265 28.4317 15.0039C28.4317 13.2813 27.0302 11.8799 25.3076 11.8799ZM25.3076 16.7217C24.3605 16.7217 23.5898 15.9511 23.5898 15.0039C23.5899 14.0567 24.3605 13.2861 25.3076 13.2861C26.2548 13.2861 27.0254 14.0567 27.0254 15.0039C27.0254 15.9511 26.2548 16.7217 25.3076 16.7217Z" fill="white"/>
</g>
</g>
</g>
</g>
</svg>
