<svg width="36" height="36" viewBox="0 0 36 36" fill="none" xmlns="http://www.w3.org/2000/svg">
<g id="icon-all-games">
<g id="icon-popular-games">
<g id="Group">
<path id="Vector" d="M18.6054 28.6158L18.6195 28.5977C18.6195 28.5977 18.6195 28.5976 18.6196 28.5976L29.8373 14.2232C30.0178 13.9919 30.0511 13.6778 29.9221 13.4141C29.7936 13.1499 29.5257 12.9827 29.232 12.9827H8.21409L10.8087 9.14665L13.3069 12.2439C13.4412 12.4107 13.6397 12.5139 13.8543 12.528C13.871 12.5292 13.8876 12.5297 13.9043 12.5297C14.101 12.5297 14.2911 12.454 14.4351 12.3175L18.0007 8.91705L21.5654 12.3175C21.721 12.466 21.9332 12.543 22.1458 12.528C22.3596 12.5139 22.5585 12.4111 22.6932 12.2439L25.2051 9.1301L27.3213 12.1278C27.4711 12.3396 27.7082 12.4527 27.9495 12.4527C28.1021 12.4527 28.2569 12.4074 28.3917 12.3121C28.7383 12.0675 28.8206 11.5882 28.576 11.2417L25.8922 7.44026C25.8488 7.37295 25.7946 7.31107 25.7289 7.25805C25.7008 7.23546 25.6713 7.216 25.6413 7.19796C25.6383 7.19617 25.6353 7.19449 25.6323 7.19275C25.6104 7.18 25.5882 7.16842 25.5655 7.15806C25.5614 7.15619 25.5573 7.15427 25.5532 7.15244C25.5275 7.14128 25.5016 7.13139 25.4752 7.12319C25.4743 7.12291 25.4734 7.12253 25.4725 7.12225C25.4609 7.11869 25.4491 7.1155 25.4374 7.1125C25.428 7.11006 25.4185 7.10795 25.409 7.10589C25.3948 7.10284 25.3807 7.10008 25.3664 7.09783C25.3529 7.09567 25.3394 7.09384 25.3259 7.09239C25.3177 7.09155 25.3094 7.09075 25.3012 7.09014C25.2827 7.08878 25.2642 7.08789 25.2455 7.08789H25.2402C25.2391 7.08789 25.2381 7.08789 25.2371 7.08789H21.1125C20.6881 7.08789 20.3445 7.43192 20.3445 7.85582C20.3445 8.27972 20.6881 8.62374 21.1125 8.62374H23.6405L22.0219 10.6301L18.5308 7.30043C18.2341 7.01711 17.7678 7.01711 17.4704 7.30043L13.9784 10.6301L12.3602 8.62374H14.8881C15.3124 8.62374 15.656 8.27972 15.656 7.85582C15.656 7.43192 15.3124 7.08789 14.8881 7.08789H10.764C10.763 7.08789 10.7619 7.08789 10.7609 7.08789H10.7542C10.7351 7.08789 10.7162 7.08883 10.6973 7.09023C10.6907 7.0907 10.6842 7.09141 10.6776 7.09206C10.6601 7.0938 10.6428 7.09609 10.6256 7.099C10.6209 7.0998 10.6162 7.10041 10.6115 7.1013C10.592 7.10495 10.5729 7.10964 10.5539 7.11475C10.547 7.11663 10.5401 7.11855 10.5333 7.12056C10.5142 7.12633 10.4952 7.13261 10.4767 7.13983C10.4712 7.14194 10.4658 7.14442 10.4604 7.14667C10.4446 7.15324 10.4289 7.16031 10.4136 7.16791C10.4083 7.17053 10.4029 7.17302 10.3976 7.17578C10.3791 7.18549 10.3611 7.19608 10.3434 7.20728C10.3382 7.21061 10.3331 7.21399 10.3279 7.21746C10.31 7.22941 10.2924 7.24193 10.2756 7.25543C10.2744 7.25636 10.2731 7.25707 10.272 7.258C10.2691 7.2603 10.2667 7.26293 10.2638 7.26527C10.2497 7.27704 10.236 7.28932 10.2226 7.30212C10.2183 7.30624 10.2138 7.31027 10.2096 7.31449C10.1956 7.32855 10.1823 7.34332 10.1694 7.35846C10.1639 7.36488 10.1586 7.37135 10.1534 7.37791C10.1429 7.39113 10.1327 7.40473 10.123 7.41874C10.1198 7.42338 10.1165 7.42788 10.1134 7.43257L6.13199 13.3205C5.97265 13.5559 5.95643 13.86 6.08956 14.1109C6.22269 14.3617 6.48393 14.5186 6.76805 14.5186H12.8702L15.9744 24.2997L8.96331 15.316C8.70207 14.9816 8.21906 14.9221 7.88544 15.1829C7.5514 15.4437 7.49149 15.9263 7.75273 16.2608L17.38 28.5971C17.3814 28.599 17.3829 28.6007 17.3844 28.6026L17.3921 28.6125C17.397 28.6189 17.4021 28.6251 17.4073 28.6313C17.4161 28.642 17.4252 28.6523 17.4345 28.6625C17.4409 28.6695 17.4473 28.6766 17.454 28.6834C17.4636 28.6931 17.4736 28.7023 17.4837 28.7114C17.4941 28.7209 17.5047 28.7302 17.5157 28.7391C17.5177 28.7407 17.5198 28.7422 17.5218 28.7439C17.5322 28.7521 17.5425 28.7605 17.5533 28.7682C17.5625 28.7748 17.5721 28.7808 17.5817 28.787C17.5824 28.7874 17.583 28.7879 17.5837 28.7883C17.586 28.7898 17.5882 28.7914 17.5906 28.7929C17.5973 28.7971 17.6041 28.8013 17.611 28.8053C17.6206 28.8109 17.6303 28.8163 17.6402 28.8215C17.6473 28.8253 17.6545 28.8291 17.6618 28.8327C17.6639 28.8337 17.666 28.8346 17.6681 28.8356C17.6706 28.8368 17.6733 28.838 17.6758 28.8391C17.6844 28.8431 17.6927 28.8472 17.7014 28.8509C17.7132 28.8559 17.7253 28.8603 17.7373 28.8646C17.7406 28.8659 17.7439 28.8672 17.7473 28.8683C17.7533 28.8705 17.7591 28.8728 17.7652 28.8748C17.7661 28.875 17.7669 28.8754 17.7677 28.8757C17.7773 28.8787 17.7869 28.881 17.7966 28.8836C17.8055 28.8861 17.8143 28.8888 17.8233 28.891C17.8338 28.8935 17.8443 28.8952 17.8548 28.8973C17.8638 28.899 17.8728 28.9011 17.8819 28.9026C17.891 28.904 17.9002 28.9048 17.9093 28.9059C17.9114 28.9061 17.9135 28.9064 17.9156 28.9066C17.9166 28.9067 17.9177 28.9068 17.9187 28.907C17.9261 28.9078 17.9335 28.9089 17.9409 28.9095C17.9608 28.9111 17.9806 28.9119 18.0003 28.9119C18.0199 28.9119 18.0396 28.9111 18.0595 28.9096C18.0679 28.9089 18.0763 28.9076 18.0846 28.9067C18.087 28.9064 18.0894 28.9062 18.0918 28.9058C18.1006 28.9048 18.1094 28.904 18.1183 28.9026C18.1293 28.9009 18.1401 28.8984 18.151 28.8963C18.1595 28.8946 18.1679 28.8932 18.1764 28.8912C18.1916 28.8876 18.2065 28.8832 18.2214 28.8787C18.2249 28.8776 18.2285 28.8768 18.232 28.8757C18.2323 28.8756 18.2325 28.8755 18.2328 28.8754C18.2393 28.8734 18.2457 28.8709 18.2521 28.8687C18.2564 28.8672 18.2607 28.8655 18.2651 28.8639C18.2769 28.8595 18.2888 28.8551 18.3005 28.8502C18.307 28.8474 18.3132 28.8443 18.3195 28.8413C18.3227 28.8399 18.3259 28.8385 18.3291 28.837C18.3327 28.8352 18.3364 28.8337 18.3401 28.8319C18.3474 28.8283 18.3546 28.8244 18.3618 28.8205C18.3704 28.8159 18.3789 28.8112 18.3873 28.8063C18.3943 28.8023 18.4011 28.7982 18.408 28.7939C18.4122 28.7913 18.4162 28.7884 18.4204 28.7857C18.4206 28.7856 18.4207 28.7855 18.4209 28.7853C18.4293 28.7798 18.4378 28.7745 18.4458 28.7688C18.4558 28.7617 18.4654 28.754 18.475 28.7464C18.4788 28.7434 18.4827 28.7406 18.4864 28.7375C18.4881 28.7361 18.49 28.7348 18.4917 28.7333C18.4988 28.7274 18.5055 28.7212 18.5124 28.7151C18.524 28.7047 18.5354 28.6941 18.5464 28.6831C18.5467 28.6827 18.5472 28.6823 18.5476 28.6819C18.5532 28.6762 18.5584 28.6703 18.5638 28.6645C18.5742 28.6533 18.5842 28.6418 18.5939 28.63C18.5977 28.6253 18.6016 28.6206 18.6054 28.6158ZM20.0252 24.3007L23.1294 14.5186H27.659L20.0252 24.3007ZM21.518 14.5185L17.9998 25.6055L14.4816 14.5185H21.518Z" />
</g>
</g>
</g>
</svg>
