<svg width="16" height="17" viewBox="0 0 16 17" fill="none" xmlns="http://www.w3.org/2000/svg">
<g id="r 1">
<g id="Group">
<path id="Vector" d="M8.01247 1.95557C4.42866 1.95557 1.51477 4.86934 1.51477 8.45327C1.51477 12.0371 4.42854 14.9512 8.01247 14.9512C11.5963 14.9512 14.5104 12.0371 14.5104 8.45327C14.5104 4.86946 11.5962 1.95557 8.01247 1.95557ZM8.01247 2.76238C11.1509 2.76238 13.7036 5.31497 13.7036 8.45327C13.7036 11.5917 11.1509 14.1444 8.01247 14.1444C4.87429 14.1444 2.32158 11.5917 2.32158 8.45327C2.32158 5.31509 4.87417 2.76238 8.01247 2.76238ZM8.01247 3.55513C5.30256 3.55513 3.11433 5.74335 3.11433 8.45327C3.11433 11.1633 5.30256 13.3518 8.01247 13.3518C10.7225 13.3518 12.911 11.1633 12.911 8.45327C12.911 5.74335 10.7225 3.55513 8.01247 3.55513ZM6.5511 5.02005H9.25463C9.29798 5.02005 9.34109 5.02725 9.38219 5.04131C9.83678 5.19641 10.2265 5.49891 10.4896 5.90079C10.7519 6.30316 10.8723 6.78162 10.8318 7.26024C10.7958 7.67621 10.6398 8.07276 10.3826 8.40165C10.125 8.73024 9.7774 8.97689 9.38219 9.11161C9.34111 9.12555 9.29802 9.13265 9.25463 9.13264H6.94724V9.74563L9.23739 9.76015C9.34248 9.76083 9.44301 9.80322 9.51684 9.87801C9.59068 9.9528 9.63178 10.0539 9.63111 10.159C9.63044 10.264 9.58804 10.3646 9.51325 10.4384C9.43846 10.5122 9.33741 10.5533 9.23231 10.5527L6.94724 10.5381V11.4905C6.94724 11.5956 6.90549 11.6963 6.83118 11.7707C6.75686 11.845 6.65607 11.8867 6.55098 11.8867C6.44588 11.8867 6.34509 11.845 6.27078 11.7707C6.19647 11.6963 6.15472 11.5956 6.15472 11.4905V10.5333L5.65405 10.5301C5.54896 10.5294 5.44844 10.487 5.3746 10.4123C5.30076 10.3375 5.25966 10.2364 5.26033 10.1313C5.26101 10.0262 5.3034 9.9257 5.37819 9.85186C5.45298 9.77802 5.55404 9.73692 5.65913 9.73759L6.15472 9.74078V9.13275H5.58189C5.47679 9.13275 5.376 9.09101 5.30169 9.01669C5.22738 8.94238 5.18563 8.84159 5.18563 8.73649C5.18563 8.6314 5.22738 8.53061 5.30169 8.4563C5.376 8.38198 5.47679 8.34024 5.58189 8.34024H6.15472V5.41654C6.1547 5.36449 6.16494 5.31294 6.18485 5.26485C6.20475 5.21675 6.23394 5.17304 6.27073 5.13623C6.30753 5.09941 6.35122 5.0702 6.3993 5.05026C6.44739 5.03033 6.49904 5.02006 6.5511 5.02005ZM6.94736 5.8128V8.34H9.16782C9.44585 8.29276 9.60767 8.10532 9.75837 7.91291C9.91994 7.70485 10.0184 7.4548 10.0421 7.19244C10.066 6.89039 9.99006 6.58884 9.82593 6.33414C9.67144 6.09745 9.43085 5.91319 9.16593 5.81268L6.94736 5.8128Z" fill="#33C16C"/>
</g>
</g>
</svg>
