<svg width="24" height="24" viewBox="0 0 24 24" fill="none" xmlns="http://www.w3.org/2000/svg">
<g id="icon-search">
<g id="Group">
<g id="Group_2">
<g id="Group_3">
<path id="Vector" d="M19.8045 18.8619L15.2545 14.3119C16.1359 13.2233 16.6665 11.8399 16.6665 10.3333C16.6665 6.84132 13.8252 4 10.3333 4C6.84128 4 4 6.84128 4 10.3333C4 13.8252 6.84132 16.6665 10.3333 16.6665C11.8399 16.6665 13.2233 16.1359 14.3119 15.2545L18.8619 19.8045C18.9919 19.9345 19.1625 19.9998 19.3332 19.9998C19.5039 19.9998 19.6745 19.9345 19.8045 19.8045C20.0652 19.5438 20.0652 19.1225 19.8045 18.8619ZM10.3333 15.3332C7.57597 15.3332 5.33333 13.0906 5.33333 10.3333C5.33333 7.57593 7.57597 5.3333 10.3333 5.3333C13.0906 5.3333 15.3332 7.57593 15.3332 10.3333C15.3332 13.0906 13.0906 15.3332 10.3333 15.3332Z" />
</g>
</g>
</g>
</g>
</svg>
