<svg width="24" height="24" viewBox="0 0 24 24" fill="none" xmlns="http://www.w3.org/2000/svg">
    <g id="icon-home">
        <g id="Group">
            <g id="Group_2">
                <g id="Group_3">
                    <g id="Group_4">
                        <path id="Vector"
                              d="M19.4673 4.84863C19.4665 4.84863 19.4656 4.84863 19.4647 4.84863C19.1707 4.84863 18.9319 5.08593 18.9305 5.38026L18.9079 10.0692C17.098 11.1154 13.5757 14.3752 14.4456 19.6268H7.00299C6.70781 19.6268 6.46875 19.8661 6.46875 20.1613C6.46875 20.4565 6.70781 20.6955 7.00299 20.6955H15.0953C15.2577 20.6955 15.4119 20.6217 15.5135 20.4944C15.6148 20.367 15.6527 20.2006 15.6165 20.0421C14.4097 14.7682 18.1395 11.6311 19.6783 10.8674C19.8595 10.7774 19.9741 10.5933 19.9749 10.3913L19.999 5.38548C20.0004 5.09027 19.7625 4.85007 19.4673 4.84863Z"
                              fill="currentColor"/>
                        <path id="Vector_2"
                              d="M13.2844 19.2197C13.4352 19.2197 13.5784 19.1561 13.6797 19.0447C13.781 18.9333 13.8305 18.7845 13.8163 18.6346C13.5243 15.5802 15.2272 12.2958 18.3712 9.84856C18.5012 9.74727 18.5773 9.59156 18.5773 9.42689V4.84188C18.5773 4.54696 18.3382 4.30764 18.043 4.30764H15.5982C15.366 4.30764 15.1603 4.45754 15.0894 4.67867L15.0182 4.90093C13.6675 4.22631 12.7461 4 11.493 4C10.1437 4 9.00147 4.26655 7.67977 4.90553L7.60712 4.67893C7.53623 4.45784 7.33046 4.3079 7.09835 4.3079H4.53424C4.23906 4.3079 4 4.54696 4 4.84214V10.4447C4 10.7399 4.23906 10.979 4.53424 10.9793H7.42017C7.66471 10.9793 7.87801 10.8129 7.9382 10.5758C8.26319 9.29172 9.6127 9.00955 10.0185 8.95369C10.6453 8.86773 11.2762 8.95891 11.7002 9.1696C8.85678 10.8951 5.27799 14.8292 6.26371 18.814C6.32273 19.0522 6.53662 19.2198 6.78233 19.2198H13.2844V19.2197ZM13.7625 9.38668C14.0478 9.31116 14.2177 9.01855 14.1419 8.73322C14.0661 8.44815 13.7755 8.27741 13.4884 8.35381C13.2621 8.41371 13.015 8.50199 12.7533 8.61628C12.1326 8.02618 11.0317 7.73622 9.87289 7.89509C8.50603 8.08322 7.47401 8.82495 7.03411 9.91052H5.06819V5.37641H6.70883L6.85498 5.83105C6.90361 5.98213 7.01705 6.10396 7.16435 6.16327C7.31165 6.22259 7.47776 6.21304 7.61756 6.13751C9.25963 5.25021 10.3545 5.06845 11.493 5.06845C12.7397 5.06845 13.544 5.30835 15.0789 6.13751C15.2193 6.21304 15.3849 6.22259 15.5321 6.16327C15.6794 6.10396 15.7929 5.9821 15.8415 5.83105L15.9874 5.37641H17.5088V9.16875C14.3983 11.6709 12.6431 14.9748 12.7177 18.151H7.21874C6.5404 13.8649 11.8478 9.89457 13.7625 9.38668Z"
                              fill="currentColor"/>
                    </g>
                </g>
            </g>
        </g>
    </g>
</svg>
