<svg width="24" height="24" viewBox="0 0 24 24" fill="none" xmlns="http://www.w3.org/2000/svg">
<g id="icon-support">
<g id="Group">
<g id="Group_2">
<g id="Group_3">
<g id="Group_4">
<g id="Group_5">
<path id="Vector" d="M11.3724 13.3628C11.0042 13.5737 10.8765 14.043 11.087 14.4112C11.2284 14.6591 11.4876 14.7981 11.7542 14.7981C11.8832 14.7981 12.0147 14.7652 12.1349 14.6966C13.947 13.6595 16.4231 11.9131 17.0014 8.73765C17.2256 7.51083 16.9177 5.63381 15.7267 4.20562C14.7944 3.08779 13.5202 2.49707 12.0413 2.49707C10.4001 2.49707 9.01852 3.2122 8.15114 4.51139C7.16147 5.99278 6.99797 8.00255 7.72514 9.75601C7.88738 10.1475 8.33625 10.3338 8.72855 10.1712C9.12001 10.0085 9.30638 9.55965 9.14372 9.16777C8.61915 7.90186 8.73061 6.4088 9.42868 5.36419C9.83387 4.75682 10.6168 4.03256 12.0412 4.03256C13.0637 4.03256 13.907 4.42153 14.5468 5.18906C15.3772 6.18375 15.6497 7.58817 15.4903 8.46183C15.1381 10.3996 13.8293 11.9567 11.3724 13.3628Z" fill="white"/>
<path id="Vector_2" d="M21.1617 22.4649H3.63062C3.65893 19.7759 3.83781 17.9845 4.16434 17.1346C4.58823 16.0272 6.40497 15.0154 7.56438 14.4958C8.79162 16.8014 10.5426 18.0311 12.4467 17.9046C14.1872 17.7857 15.6949 16.5177 16.5177 14.5337C17.663 15.0596 19.4281 16.0609 19.8396 17.1346C20.2647 18.245 20.2447 19.3249 20.2239 20.4681C20.2193 20.7111 20.2152 20.9523 20.2152 21.1915C20.2152 21.6158 20.5589 21.9595 20.9832 21.9595C21.4075 21.9595 21.7511 21.6158 21.7511 21.1915C21.7511 20.961 21.7557 20.7298 21.7598 20.4959C21.7815 19.314 21.8056 17.9745 21.2739 16.585C20.4174 14.3506 16.7461 12.9441 16.3305 12.791C16.1312 12.7169 15.9099 12.7298 15.7202 12.8255C15.5305 12.9212 15.3891 13.0905 15.3288 13.2944C14.7946 15.1032 13.6506 16.2826 12.3418 16.372C10.934 16.466 9.58948 15.3103 8.63721 13.1958C8.47122 12.8288 8.05024 12.6512 7.67163 12.7906C7.25603 12.9437 3.58431 14.3502 2.72982 16.5842C2.15696 18.0764 2.09082 21.0933 2.09082 23.2328C2.09082 23.6568 2.43446 24.0004 2.85878 24.0004H21.1616C21.5855 24.0004 21.9295 23.6572 21.9295 23.2328C21.9295 22.8085 21.586 22.4649 21.1617 22.4649Z" fill="white"/>
<path id="Vector_3" d="M5.30096 10.3761C5.46652 10.9045 5.82681 11.6321 6.60142 12.0872C7.05943 12.3567 7.59029 12.4911 8.18973 12.4911C8.89075 12.4911 9.68584 12.3071 10.5699 11.9396C10.677 11.9771 10.7921 11.9977 10.9121 11.9977C11.4858 11.9977 11.9513 11.5305 11.9513 10.9577C11.9513 10.384 11.4858 9.91764 10.9121 9.91764C10.4914 9.91764 10.1298 10.1679 9.96625 10.5271C8.82466 11.0001 7.93754 11.0839 7.38765 10.7684C6.77654 10.4169 6.69418 9.60607 6.69376 9.60438C6.66381 9.20374 6.32973 8.89427 5.92787 8.89427C5.48148 8.89427 5.14163 8.76986 4.91738 8.52527C4.72187 8.311 4.61368 8.00111 4.61368 7.65287C4.61368 7.03928 5.01929 6.06498 6.10674 6.06498C6.47157 6.06498 6.78611 5.80787 6.85932 5.45054C6.89218 5.29079 7.70715 1.53507 11.8864 1.53507C16.2516 1.53507 17.1722 5.15851 17.2084 5.30954C17.2891 5.65815 17.5994 5.90486 17.9568 5.90486C19.0206 5.90486 19.5946 6.77762 19.5946 7.59925C19.5946 7.96075 19.4806 8.28273 19.2739 8.50492C19.0334 8.76325 18.6686 8.89431 18.1897 8.89431C17.7654 8.89431 17.4218 9.23796 17.4218 9.66227C17.4218 10.0866 17.7654 10.4302 18.1897 10.4302C19.3387 10.4302 20.0248 9.95303 20.3979 9.55244C20.8709 9.04535 21.1313 8.35183 21.1313 7.60009C21.1313 6.17528 20.1754 4.70631 18.5437 4.41971C17.9056 2.64165 15.9346 0 11.8872 0C7.97219 0 6.0976 2.7444 5.50313 4.58607C3.97346 4.88227 3.07861 6.28881 3.07861 7.6533C3.07861 8.3867 3.32949 9.06522 3.78582 9.5628C4.07457 9.87775 4.55504 10.2409 5.30096 10.3761Z" fill="white"/>
</g>
</g>
</g>
</g>
</g>
</g>
</svg>
