<svg width="24" height="25" viewBox="0 0 24 25" fill="none" xmlns="http://www.w3.org/2000/svg">
<g id="trx" clip-path="url(#clip0_1_3212)">
<g id="tron">
<path id="Vector" d="M23.0813 7.31088C21.9563 6.27213 20.4 4.68588 19.1325 3.56088L19.0575 3.50839C18.9328 3.40818 18.7921 3.32959 18.6413 3.27589C15.585 2.70589 1.3613 0.0471349 1.0838 0.0808849C1.00604 0.0917749 0.931718 0.119967 0.866299 0.163385L0.795049 0.219635C0.707315 0.308735 0.64068 0.416376 0.600049 0.534635L0.581299 0.583385V0.849635V0.890885C2.18255 5.34964 8.50505 19.9559 9.75005 23.3834C9.82505 23.6159 9.96755 24.0584 10.2338 24.0809H10.2938C10.4363 24.0809 11.0438 23.2784 11.0438 23.2784C11.0438 23.2784 21.9038 10.1084 23.0025 8.70588C23.1448 8.53313 23.2703 8.3473 23.3775 8.15088C23.4049 7.99721 23.392 7.83906 23.3401 7.69185C23.2882 7.54465 23.199 7.41339 23.0813 7.31088ZM13.83 8.84464L18.465 5.00089L21.1838 7.50588L13.83 8.84464ZM12.0301 8.59338L4.05005 2.05339L16.9613 4.43464L12.0301 8.59338ZM12.75 10.3071L20.9175 8.99088L11.58 20.2409L12.75 10.3071ZM2.9663 2.70588L11.3625 9.83088L10.1475 20.2484L2.9663 2.70588Z" fill="#FF060A"/>
</g>
</g>
<defs>
<clipPath id="clip0_1_3212">
<rect width="24" height="24" fill="white" transform="translate(0 0.0810547)"/>
</clipPath>
</defs>
</svg>
