<svg width="24" height="22" viewBox="0 0 24 22" fill="none" xmlns="http://www.w3.org/2000/svg">
<g id="usdt" clip-path="url(#clip0_1_3183)">
<path id="Vector" fill-rule="evenodd" clip-rule="evenodd" d="M4.39452 0.306152L0.0184792 9.49803C0.00182707 9.53222 -0.00344987 9.57084 0.00342004 9.60824C0.01029 9.64565 0.0289463 9.67987 0.0566608 9.70591L11.8753 21.031C11.9089 21.0632 11.9536 21.0812 12.0001 21.0812C12.0466 21.0812 12.0913 21.0632 12.1249 21.031L23.9435 9.70662C23.9712 9.68058 23.9899 9.64635 23.9968 9.60895C24.0036 9.57155 23.9984 9.53293 23.9817 9.49874L19.6057 0.306859C19.5915 0.275989 19.5688 0.249838 19.5402 0.231531C19.5117 0.213225 19.4784 0.203538 19.4445 0.203627H4.55715C4.52304 0.203203 4.48953 0.212657 4.46068 0.230849C4.43182 0.24904 4.40885 0.275193 4.39452 0.306152Z" fill="#50AF95"/>
<path id="Vector_2" fill-rule="evenodd" clip-rule="evenodd" d="M13.5184 10.4421C13.4335 10.4485 12.9951 10.4747 12.0173 10.4747C11.2395 10.4747 10.6873 10.4513 10.4935 10.4421C7.4878 10.3099 5.24427 9.7867 5.24427 9.16023C5.24427 8.53377 7.4878 8.01125 10.4935 7.8769V9.92104C10.6901 9.93518 11.2529 9.96841 12.0307 9.96841C12.964 9.96841 13.4314 9.92952 13.5155 9.92175V7.87832C16.5149 8.01196 18.7535 8.53519 18.7535 9.16023C18.7535 9.78528 16.5156 10.3085 13.5155 10.4414L13.5184 10.4421ZM13.5184 7.66691V5.83772H17.7042V3.04834H6.3077V5.83772H10.4928V7.6662C7.09113 7.82246 4.53296 8.4963 4.53296 9.30377C4.53296 10.1112 7.09113 10.7844 10.4928 10.9413V16.8029H13.5177V10.9392C16.9116 10.783 19.4655 10.1098 19.4655 9.30306C19.4655 8.4963 16.9137 7.82317 13.5177 7.6662L13.5184 7.66691Z" fill="white"/>
</g>
<defs>
<clipPath id="clip0_1_3183">
<rect width="24" height="20.8776" fill="white" transform="translate(0 0.203613)"/>
</clipPath>
</defs>
</svg>
