<svg width="24" height="18" viewBox="0 0 24 18" fill="none" xmlns="http://www.w3.org/2000/svg">
<g id="ymo" clip-path="url(#clip0_2_6051)">
<path id="Vector" d="M15.4742 0C10.7425 0 6.94849 3.83659 6.94849 8.52575C6.94849 13.2575 10.7851 17.0515 15.4742 17.0515C20.1634 17.0515 24 13.2149 24 8.52575C24 3.83659 20.1634 0 15.4742 0ZM15.4742 11.6377C13.7265 11.6377 12.2771 10.1883 12.2771 8.4405C12.2771 6.69272 13.7265 5.24334 15.4742 5.24334C17.222 5.24334 18.6714 6.69272 18.6714 8.4405C18.6288 10.2735 17.222 11.6377 15.4742 11.6377ZM6.90586 2.42984V14.8348H3.87922L0 2.42984H6.90586Z" fill="#8B3FFD"/>
</g>
<defs>
<clipPath id="clip0_2_6051">
<rect width="24" height="17.641" fill="white"/>
</clipPath>
</defs>
</svg>
