<svg width="16" height="16" viewBox="0 0 16 16" fill="none" xmlns="http://www.w3.org/2000/svg">
<path d="M16 2.52632V4.21053H13.4737V6.73684H11.7895V4.21053H9.26316V2.52632H11.7895V0H13.4737V2.52632H16ZM13.4737 14.3158H1.68421V2.52632H6.73684V0.842105H1.68421C0.757895 0.842105 0 1.6 0 2.52632V14.3158C0 15.2421 0.757895 16 1.68421 16H13.4737C14.4 16 15.1579 15.2421 15.1579 14.3158V9.26316H13.4737V14.3158ZM10.1053 9.26316V12.6316H11.7895V9.26316H10.1053ZM6.73684 12.6316H8.42105V5.89474H6.73684V12.6316ZM5.05263 12.6316V7.57895H3.36842V12.6316H5.05263Z" fill="white"/>
</svg>
