<svg width="13" height="16" viewBox="0 0 13 16" fill="none" xmlns="http://www.w3.org/2000/svg">
<path d="M11.5556 9.45455V12.3636H10.1111V9.45455H11.5556ZM2.88889 9.45455V12.3636H2.16667C1.76944 12.3636 1.44444 12.0364 1.44444 11.6364V9.45455H2.88889ZM6.5 0C2.91056 0 0 2.93091 0 6.54545V11.6364C0 12.8436 0.967778 13.8182 2.16667 13.8182H4.33333V8H1.44444V6.54545C1.44444 3.73091 3.705 1.45455 6.5 1.45455C9.295 1.45455 11.5556 3.73091 11.5556 6.54545V8H8.66667V13.8182H11.5556V14.5455H6.5V16H10.8333C12.0322 16 13 15.0255 13 13.8182V6.54545C13 2.93091 10.0894 0 6.5 0Z" fill="white"/>
</svg>
