<svg width="20" height="20" viewBox="0 0 20 20" fill="none" xmlns="http://www.w3.org/2000/svg">
<path d="M17.1579 6.56667V4.66667C17.1579 3.75 16.4 3 15.4737 3H3.68421C2.74947 3 2 3.75 2 4.66667V16.3333C2 17.25 2.74947 18 3.68421 18H15.4737C16.4 18 17.1579 17.25 17.1579 16.3333V14.4333C17.6547 14.1417 18 13.6167 18 13V8C18 7.38333 17.6547 6.85833 17.1579 6.56667ZM16.3158 8V13H10.4211V8H16.3158ZM3.68421 16.3333V4.66667H15.4737V6.33333H10.4211C9.49474 6.33333 8.73684 7.08333 8.73684 8V13C8.73684 13.9167 9.49474 14.6667 10.4211 14.6667H15.4737V16.3333H3.68421Z" fill="white"/>
<path d="M13.5 11C14.3284 11 15 10.5523 15 10C15 9.44772 14.3284 9 13.5 9C12.6716 9 12 9.44772 12 10C12 10.5523 12.6716 11 13.5 11Z" fill="white"/>
</svg>
