<svg width="24" height="24" viewBox="0 0 24 24" fill="none" xmlns="http://www.w3.org/2000/svg">
<g id="icon-all-games">
<g id="Group">
<g id="Group_2">
<g id="Group_3">
<g id="Group_4">
<path id="Vector" d="M18.7936 16.2199C18.8211 16.1859 18.8432 16.1491 18.8607 16.1106C19.5837 14.9086 20.0001 13.5021 20.0001 12C20.0001 11.361 19.9243 10.7395 19.7821 10.1434C19.7781 10.1212 19.7729 10.0995 19.7662 10.0784C19.2595 8.0313 17.9628 6.29276 16.2192 5.20607C16.1856 5.17888 16.1491 5.15704 16.1111 5.13966C14.9089 4.41653 13.5023 4 12 4C11.3587 4 10.735 4.07634 10.137 4.21953C10.1218 4.22247 10.1069 4.22625 10.0922 4.2305C8.03636 4.73541 6.29051 6.03685 5.20166 7.78786C5.17829 7.81783 5.15888 7.84977 5.1431 7.88308C4.41781 9.08658 4 10.4954 4 12C4 12.642 4.0765 13.2664 4.22 13.865C4.22228 13.8766 4.22534 13.888 4.22841 13.8994C4.73157 15.9579 6.0332 17.7063 7.78533 18.7967C7.81689 18.8217 7.8508 18.8421 7.88617 18.8586C9.08899 19.5827 10.4967 19.9998 12 19.9998C12.6389 19.9998 13.2604 19.9241 13.8564 19.7819C13.8789 19.7779 13.901 19.7727 13.9225 19.7658C15.9689 19.2591 17.707 17.9628 18.7936 16.2199ZM8.94936 18.2725L9.13793 18.084C9.42024 17.8019 9.56393 17.3984 9.53174 16.9768C9.50152 16.5786 9.32208 16.1967 9.02699 15.9019L8.09902 14.9739C7.59342 14.4683 6.83492 14.3219 6.25417 14.6178C6.00207 14.746 5.90223 15.0541 6.03063 15.3062C6.15904 15.5583 6.46745 15.6587 6.71926 15.53C6.87982 15.4482 7.15636 15.4795 7.37489 15.6978L8.30286 16.6257C8.42324 16.7464 8.49892 16.9025 8.51058 17.0548C8.51611 17.1269 8.51086 17.2628 8.4138 17.3598L8.03645 17.7372C6.82814 16.8999 5.89591 15.6914 5.40616 14.2778H5.67426C6.48157 14.2778 7.13858 13.5504 7.13886 12.6562V11.3436C7.13886 10.6283 6.70595 9.98852 6.08635 9.78746C5.8176 9.70065 5.52835 9.84737 5.44126 10.1164C5.35388 10.3854 5.50116 10.6744 5.77016 10.7615C5.94129 10.8172 6.1146 11.0349 6.1146 11.3439V12.6565C6.1146 12.9743 5.9091 13.2536 5.67448 13.2536H5.137C5.06288 12.8468 5.02394 12.4279 5.02394 12C5.02394 10.9064 5.27719 9.8709 5.72766 8.94865L5.91641 9.1374C6.17267 9.39393 6.52848 9.53565 6.90732 9.53565C6.94589 9.53565 6.9847 9.53427 7.02354 9.53177C7.4218 9.50127 7.80342 9.32212 8.09849 9.02702L9.02646 8.09905C9.53259 7.5932 9.67874 6.83467 9.38283 6.2542C9.25443 6.0021 8.94574 5.90198 8.69421 6.03066C8.44211 6.15907 8.34227 6.46748 8.47067 6.71929C8.55249 6.87961 8.52114 7.15611 8.30261 7.37464L7.37464 8.30261C7.25401 8.42299 7.09786 8.49867 6.94589 8.51033C6.87432 8.51561 6.73789 8.51061 6.64082 8.41355L6.2631 8.03583C7.10054 6.82764 8.30914 5.89554 9.72284 5.40594V5.67401C9.72284 6.48132 10.45 7.13833 11.3442 7.13833H12.6565C13.3715 7.13833 14.0116 6.70567 14.2129 6.08582C14.3003 5.81682 14.1533 5.5281 13.884 5.44072C13.6161 5.35363 13.3263 5.50063 13.2389 5.76963C13.1832 5.94104 12.9652 6.11435 12.6565 6.11435H11.3442C11.0258 6.11435 10.7468 5.90885 10.7468 5.67423V5.13694C11.1535 5.06285 11.5723 5.02394 12 5.02394C13.0939 5.02394 14.1295 5.27722 15.0519 5.72782L14.863 5.9167C14.2919 6.48745 14.3421 7.46617 14.9742 8.0982L15.9025 9.02646C16.2331 9.35734 16.6723 9.53452 17.0986 9.53452C17.3241 9.53452 17.546 9.48487 17.7462 9.38283C17.9983 9.25443 18.0984 8.9463 17.97 8.69421C17.8419 8.44239 17.534 8.34255 17.2816 8.47039C17.1208 8.55221 16.8443 8.52058 16.6263 8.30261L15.698 7.37436C15.4731 7.14917 15.421 6.80639 15.5868 6.64054L15.9643 6.26307C17.1724 7.10045 18.1045 8.30899 18.5941 9.72259H18.3261C17.519 9.72259 16.862 10.4498 16.862 11.3439V12.6565C16.862 13.3712 17.2949 14.011 17.9142 14.2127C17.9666 14.2296 18.0202 14.2376 18.0726 14.2376C18.2883 14.2376 18.4891 14.1001 18.5596 13.884C18.6467 13.615 18.4997 13.326 18.2307 13.2389C18.0595 13.1829 17.8859 12.9652 17.8859 12.6565V11.3439C17.8859 11.0255 18.0914 10.7465 18.3261 10.7465H18.8631C18.9372 11.1533 18.9761 11.5722 18.9761 12.0001C18.9761 13.0937 18.7229 14.1292 18.2724 15.0515L18.0837 14.8628C17.5132 14.2917 16.5342 14.3422 15.9019 14.974L14.9739 15.9022C14.4683 16.4076 14.3219 17.1658 14.6178 17.7462C14.7085 17.9237 14.8879 18.0261 15.0743 18.0261C15.1525 18.0261 15.2318 18.0081 15.3064 17.9695C15.5585 17.8414 15.6586 17.533 15.5302 17.2812C15.4484 17.1209 15.4798 16.8444 15.698 16.6261L16.626 15.6979C16.8512 15.473 17.1934 15.4211 17.3598 15.5866L17.7371 15.964C16.8998 17.1721 15.6913 18.1042 14.2778 18.5938V18.3262C14.2778 17.5186 13.5506 16.8618 12.6562 16.8618H11.3439C10.6289 16.8618 9.98909 17.2947 9.78774 17.914C9.70065 18.1833 9.84765 18.472 10.1167 18.5591C10.3851 18.6467 10.6744 18.4995 10.7617 18.2302C10.8175 18.0591 11.0355 17.8858 11.3442 17.8858H12.6565C12.9749 17.8858 13.2539 18.0916 13.2539 18.3262V18.8629C12.847 18.937 12.428 18.976 12 18.976C10.9067 18.9759 9.87143 18.7228 8.94936 18.2725Z" fill=""/>
<path id="Vector_2" d="M15.0658 10.5798C15.6585 11.8591 15.3861 13.3892 14.3883 14.3873C14.1883 14.587 14.1883 14.9112 14.3883 15.1112C14.4884 15.211 14.619 15.2612 14.7502 15.2612C14.8811 15.2612 15.0123 15.2113 15.1118 15.1112C16.4125 13.8107 16.7672 11.8167 15.9949 10.1493C15.8759 9.89281 15.5714 9.78131 15.3151 9.90003C15.0589 10.019 14.9471 10.3233 15.0658 10.5798Z" fill=""/>
<path id="Vector_3" d="M13.9359 15.9529C14.1896 15.8284 14.295 15.5216 14.1702 15.2679C14.0454 15.0141 13.7395 14.9093 13.4849 15.0335C12.1892 15.6689 10.6325 15.4101 9.61082 14.3884C8.97294 13.7503 8.62157 12.9024 8.62157 12.0006C8.62157 11.0987 8.97266 10.2506 9.61054 9.61271C10.9273 8.29592 13.0695 8.29592 14.3863 9.61271C14.586 9.81268 14.9102 9.81296 15.1104 9.61271C15.3104 9.41274 15.3104 9.08855 15.1104 8.88858C13.3945 7.1727 10.6026 7.17242 8.88672 8.88858C8.05553 9.71977 7.59766 10.8249 7.59766 12.0003C7.59766 13.1759 8.05553 14.2808 8.88701 15.1123C9.73232 15.957 10.8589 16.4019 12.0012 16.4019C12.6579 16.4019 13.3196 16.2549 13.9359 15.9529Z" fill=""/>
</g>
</g>
</g>
</g>
</g>
</svg>
