<svg width="38" height="16" viewBox="0 0 38 16" fill="none" xmlns="http://www.w3.org/2000/svg">
<g id="apay-logo" clip-path="url(#clip0_2_18173)">
<path id="XMLID_34_" d="M6.94643 2.0628C6.50112 2.60324 5.78862 3.0295 5.07612 2.9686C4.98705 2.23787 5.33588 1.46147 5.74408 0.981922C6.1894 0.426261 6.96869 0.0304472 7.59955 0C7.67377 0.76118 7.38432 1.50714 6.94643 2.0628ZM7.59213 3.11323C6.56049 3.05233 5.67729 3.71456 5.18744 3.71456C4.69018 3.71456 3.94057 3.14367 3.12416 3.1589C2.06283 3.17412 1.07572 3.79068 0.533928 4.7726C-0.579353 6.73644 0.244475 9.64415 1.32065 11.2426C1.8476 12.0343 2.47846 12.902 3.30971 12.8716C4.09643 12.8411 4.40815 12.3463 5.35815 12.3463C6.31557 12.3463 6.59018 12.8716 7.42143 12.8563C8.28237 12.8411 8.82416 12.0647 9.35112 11.2731C9.95229 10.3749 10.1972 9.49952 10.2121 9.45385C10.1972 9.43863 8.54955 8.79163 8.53471 6.84301C8.51987 5.21408 9.83354 4.43768 9.89291 4.39201C9.15073 3.26546 7.99291 3.14367 7.59213 3.11323ZM13.5519 0.905804V12.7726H15.348V8.71551H17.8343C20.1054 8.71551 21.7011 7.11703 21.7011 4.80304C21.7011 2.48906 20.1351 0.905804 17.8937 0.905804H13.5519ZM15.348 2.45861H17.4187C18.9773 2.45861 19.8679 3.31113 19.8679 4.81066C19.8679 6.31018 18.9773 7.17031 17.4113 7.17031H15.348V2.45861ZM24.9816 12.8639C26.1097 12.8639 27.1562 12.2778 27.6312 11.3492H27.6683V12.7726H29.3308V6.86584C29.3308 5.15319 27.9949 4.04948 25.939 4.04948C24.0316 4.04948 22.6214 5.16841 22.5695 6.70599H24.1874C24.321 5.97526 24.9816 5.49572 25.8871 5.49572C26.9855 5.49572 27.6015 6.02093 27.6015 6.98763V7.64225L25.3601 7.77926C23.2746 7.90866 22.1464 8.78401 22.1464 10.3064C22.1464 11.844 23.3117 12.8639 24.9816 12.8639ZM25.464 11.4558C24.5066 11.4558 23.898 10.9838 23.898 10.2607C23.898 9.51475 24.4843 9.08088 25.605 9.01237L27.6015 8.88297V9.55281C27.6015 10.6641 26.6812 11.4558 25.464 11.4558ZM31.5499 16C33.3015 16 34.1253 15.3149 34.8453 13.2369L37.9996 4.16365H36.1738L34.0585 11.1741H34.0214L31.9062 4.16365H30.0285L33.0714 12.803L32.9081 13.3283C32.6335 14.2188 32.1882 14.5614 31.3941 14.5614C31.2531 14.5614 30.9785 14.5461 30.8671 14.5309V15.9543C30.971 15.9848 31.4163 16 31.5499 16Z" fill="white"/>
</g>
<defs>
<clipPath id="clip0_2_18173">
<rect width="38" height="16" fill="white"/>
</clipPath>
</defs>
</svg>
