<svg width="204" height="58" viewBox="0 0 204 58" fill="none" xmlns="http://www.w3.org/2000/svg">
<g id="bitcoin-cash-1ab4f7ac">
<path id="Vector" d="M16.6271 42.6588C16.0008 42.3746 15.3032 42.3727 14.6442 42.2084C11.3707 41.3882 8.50168 39.5115 6.53168 36.9016C4.56168 34.2917 3.61418 31.1122 3.8525 27.9113C4.09082 24.7103 5.50003 21.6884 7.83721 19.3665C10.1744 17.0447 13.2931 15.5683 16.6557 15.192C24.6994 14.2408 32.1168 19.832 32.9145 27.4396C33.6978 34.8946 28.3775 41.348 20.4705 42.5332C20.3583 42.5506 20.2094 42.4984 20.1584 42.6588H16.6271ZM23.6651 29.2686C24.8585 28.6402 25.2074 28.2845 25.4501 27.4512C25.9458 25.7499 25.2645 24.5396 23.3734 23.7006C22.947 23.5072 22.2738 23.5227 22.1351 23.1322C21.9964 22.7416 22.2902 22.2583 22.3942 21.8136C22.69 20.5531 22.688 20.5628 21.3538 20.3153C21.0131 20.2515 20.852 20.3153 20.7969 20.6556C20.7234 21.106 20.6133 21.5488 20.5113 21.9954C20.3073 22.8634 20.3073 22.8557 19.377 22.6469C19.1037 22.585 18.9915 22.5 19.0731 22.2061C19.2383 21.6126 19.3668 21.0094 19.4811 20.4081C19.5219 20.2148 19.6688 19.9441 19.2771 19.919C18.7793 19.888 18.3122 19.4994 17.794 19.801C17.7328 19.8358 17.7512 19.9944 17.7287 20.0852C17.5961 20.6652 17.4452 21.2452 17.335 21.8252C17.2677 22.179 17.1024 22.268 16.7373 22.1829C15.9029 21.9896 15.0522 21.8523 14.2199 21.6493C13.8527 21.5604 13.767 21.6628 13.6875 21.9857C13.3774 23.2501 13.3631 23.2482 14.6442 23.5923C14.7063 23.6019 14.7677 23.6155 14.8278 23.6329C15.2868 23.8262 15.5337 24.1162 15.4194 24.6112C14.8945 26.9144 14.3722 29.2176 13.8527 31.5209C13.7507 31.9694 13.508 32.1512 13.0102 32.1009C12.6022 32.0545 12.1269 31.7258 11.8188 31.9946C11.5108 32.2633 11.4537 32.7292 11.2844 33.112C11.2579 33.1875 11.2258 33.2612 11.1885 33.3324C10.962 33.694 11.1436 33.7964 11.5108 33.8583C12.1922 33.9743 12.8674 34.1212 13.5508 34.2643C14.4566 34.4576 14.4545 34.4576 14.2526 35.347C14.2056 35.5596 14.1628 35.7742 14.1159 35.9869C13.8466 37.1952 13.8486 37.1856 15.1604 37.4137C15.497 37.4736 15.6561 37.4137 15.7193 37.0754C15.8404 36.4528 15.9764 35.8329 16.1273 35.2155C16.2864 34.5891 16.725 35.0338 17.0372 35.0338C17.3493 35.0338 17.5716 35.0763 17.4452 35.4881C17.2636 36.0681 17.18 36.6887 17.0168 37.2822C16.9127 37.6689 17.0596 37.8004 17.439 37.8796C18.663 38.129 18.663 38.1387 18.9344 36.9806C19.0486 36.4973 19.0098 35.8554 19.3281 35.577C19.679 35.2696 20.3481 35.577 20.8724 35.6118C23.4142 35.7665 24.9258 34.6722 25.3787 32.3406C25.597 31.2116 25.2053 30.3184 24.2363 29.634C24.0568 29.5083 23.8691 29.3865 23.6651 29.2686Z" fill="#404F55"/>
<path id="Vector_2" d="M46.1308 16.3944C45.4576 19.047 44.7905 21.6724 44.1031 24.3752C44.9599 24.1336 45.7228 23.8706 46.5511 23.8532C50.0619 23.7778 52.3508 25.5816 52.9077 29.021C53.7584 34.272 50.4821 39.3876 45.0741 40.795C41.8713 41.6283 38.7154 41.1952 35.6228 40.159C35.1577 40.0024 35.2393 39.7336 35.3209 39.4146C36.4687 34.8752 37.6165 30.3357 38.7644 25.7962C39.4559 23.0644 40.1536 20.3346 40.8248 17.597C40.9145 17.2335 41.0573 17.075 41.4592 17.017C42.9341 16.8236 44.4009 16.5878 45.8738 16.3732C45.96 16.3721 46.0461 16.3792 46.1308 16.3944ZM48.0586 30.9892C48.0841 30.3525 47.9887 29.7166 47.7771 29.1119C47.6787 28.7743 47.4766 28.472 47.1966 28.2434C46.9166 28.0149 46.5712 27.8703 46.2043 27.8282C45.2635 27.6871 44.3 27.8499 43.4686 28.2902C43.3315 28.3602 43.2128 28.4587 43.1213 28.5781C43.0298 28.6976 42.9679 28.8351 42.9403 28.9804C42.297 31.5582 41.6374 34.1321 40.9615 36.7022C40.8595 37.0888 40.9492 37.23 41.345 37.2686C42.7444 37.4078 44.0765 37.2532 45.2312 36.4276C47.1406 35.0646 47.9811 33.199 48.0586 30.9892Z" fill="#404F55"/>
<path id="Vector_3" d="M182.852 40.7526C183.464 38.3437 184.051 35.9792 184.651 33.6147C185.983 28.3599 187.327 23.109 188.635 17.8484C188.776 17.2839 189.008 17.0325 189.628 16.9629C191.056 16.8025 192.484 16.5763 194.037 16.3481C193.362 18.9871 192.703 21.5681 192.027 24.1975C193.168 24.0544 194.229 23.8746 195.326 23.9384C198.574 24.1317 200.083 26.2584 200.187 28.9187C200.261 30.8385 199.633 32.6345 199.194 34.4635C198.731 36.3968 198.207 38.3108 197.737 40.2383C197.642 40.625 197.489 40.7797 197.036 40.7661C195.755 40.7313 194.471 40.7255 193.19 40.7661C192.646 40.7835 192.619 40.6076 192.727 40.1861C193.455 37.3383 194.18 34.4886 194.879 31.635C195.067 30.8617 195.287 30.0883 195.12 29.2879C194.916 28.2729 194.361 27.8205 193.266 27.7761C192.72 27.7712 192.174 27.8061 191.634 27.8805C191.214 27.9249 191.022 28.097 190.934 28.4817C190.181 31.5267 189.41 34.5679 188.643 37.6109C188.409 38.5351 188.17 39.4573 187.935 40.3814C187.886 40.5747 187.87 40.7545 187.564 40.7507C186.009 40.7468 184.457 40.7526 182.852 40.7526Z" fill="#404F55"/>
<path id="Vector_4" d="M160.419 23.8208C162.987 23.8691 165.015 24.105 166.959 24.8203C167.367 24.9653 167.481 25.1181 167.367 25.5589C166.685 28.1283 166.082 30.717 165.392 33.2922C164.807 35.4734 164.893 37.7677 165.639 39.9042C165.784 40.3373 165.735 40.4842 165.231 40.5325C164.189 40.6369 163.148 40.7781 162.118 40.9559C161.567 41.0507 161.173 41.0043 161.037 40.4204C161.032 40.4008 161.024 40.382 161.014 40.3643C160.651 39.6084 160.645 39.6007 159.935 40.055C159.168 40.5656 158.298 40.9196 157.379 41.0943C156.461 41.2691 155.514 41.2608 154.598 41.07C152.11 40.5789 150.706 39.0458 150.145 36.7529C149.111 32.5247 150.865 28.0374 154.525 25.6227C156.439 24.3602 158.574 23.7512 160.419 23.8208ZM154.823 33.9592C154.81 34.5146 154.879 35.069 155.027 35.6064C155.386 36.7973 156.135 37.2884 157.442 37.2304C158.328 37.1898 159.042 36.8205 159.686 36.2773C159.886 36.1054 160.007 35.867 160.025 35.6122C160.145 34.7499 160.266 33.8838 160.468 33.037C160.845 31.4362 161.284 29.847 161.692 28.2539C161.747 28.0413 161.879 27.8344 161.488 27.788C160.025 27.6198 158.646 27.7377 157.444 28.6619C155.663 30.0326 154.902 31.8441 154.823 33.9592Z" fill="#404F55"/>
<path id="Vector_5" d="M106.669 30.6316C106.548 34.3339 105.314 37.549 101.958 39.755C99.702 41.2378 97.1765 41.5414 94.5592 40.915C92.0398 40.3195 90.6628 38.651 90.1201 36.3098C89.1858 32.2923 91.1279 27.5556 94.6653 25.2356C96.9276 23.7508 99.4246 23.4048 102.056 24.0176C104.718 24.6363 106.452 26.7746 106.667 29.5547C106.693 29.9162 106.669 30.2758 106.669 30.6316ZM101.773 31.0182C101.777 30.5802 101.734 30.1429 101.644 29.7132C101.34 28.155 100.279 27.4725 98.6453 27.7992C98.0687 27.9264 97.5367 28.1928 97.101 28.5726C95.2365 30.1192 94.3021 33.7558 95.2059 35.9444C95.3324 36.2946 95.5676 36.6005 95.8807 36.8219C96.1937 37.0434 96.57 37.1701 96.9603 37.1856C97.4526 37.2393 97.9514 37.185 98.418 37.0268C98.8846 36.8685 99.3065 36.6106 99.651 36.273C101.185 34.825 101.665 32.9922 101.764 31.026L101.773 31.0182Z" fill="#404F55"/>
<path id="Vector_6" d="M115.766 40.7548C116.498 37.8722 117.216 35.0437 117.938 32.2172C118.511 29.9668 119.099 27.7183 119.656 25.464C119.681 25.303 119.757 25.153 119.874 25.0336C119.991 24.9142 120.143 24.8311 120.311 24.7951C122.728 24.0342 125.277 23.7159 127.82 23.8574C128.663 23.889 129.493 24.0672 130.268 24.3833C132.273 25.2262 133.04 26.8077 133.163 28.7604C133.253 30.2084 132.851 31.5908 132.502 32.977C131.89 35.4033 131.255 37.8238 130.656 40.2521C130.564 40.6233 130.437 40.7741 130.009 40.7644C128.705 40.7354 127.402 40.7258 126.1 40.7644C125.535 40.7818 125.56 40.5904 125.662 40.1844C126.427 37.1439 127.181 34.0996 127.922 31.0514C128.045 30.5895 128.105 30.1145 128.099 29.6381C128.061 28.4452 127.4 27.8092 126.137 27.7782C125.633 27.7666 125.133 27.8266 124.631 27.8575C124.13 27.8884 123.95 28.076 123.846 28.5013C123.138 31.3723 122.418 34.2394 121.69 37.1085C121.423 38.168 121.151 39.2255 120.9 40.2869C120.821 40.6175 120.696 40.7664 120.288 40.7586C118.791 40.7374 117.3 40.7548 115.766 40.7548Z" fill="#404F55"/>
<path id="Vector_7" d="M173.26 41.2109C171.23 41.151 169.255 40.8706 167.415 39.9871C167.048 39.8112 166.926 39.6816 167.13 39.293C167.568 38.4617 167.97 37.611 168.337 36.7488C168.541 36.2751 168.717 36.1282 169.265 36.4124C170.85 37.2612 172.691 37.5786 174.49 37.3133C174.782 37.2787 175.066 37.2032 175.334 37.089C176.469 36.5767 176.591 35.4786 175.581 34.7787C174.918 34.3186 174.143 34.0498 173.407 33.7192C172.438 33.2823 171.507 32.8028 170.785 32.014C169.153 30.2354 169.39 26.2527 172.656 24.6983C174.482 23.8302 176.434 23.691 178.423 23.7742C179.85 23.8518 181.251 24.17 182.56 24.7138C182.946 24.8684 183.066 25.0173 182.856 25.4117C182.403 26.2585 181.987 27.1227 181.593 27.9966C181.426 28.3697 181.269 28.4451 180.855 28.2692C179.498 27.6892 178.08 27.3837 176.571 27.5345C176.193 27.5587 175.825 27.6568 175.489 27.8226C174.58 28.3059 174.518 29.3982 175.414 29.897C176.434 30.477 177.523 30.9565 178.568 31.5036C179.816 32.159 180.812 33.0058 181.155 34.4036C181.722 36.8029 180.677 38.9837 178.368 40.1534C176.773 40.9692 175.032 41.18 173.26 41.2109Z" fill="#404F55"/>
<path id="Vector_8" d="M76.2965 24.213C75.9824 25.431 75.6743 26.5968 75.3806 27.7665C75.3051 28.07 75.0766 28.041 74.8461 28.041C73.3752 28.041 71.9024 28.0623 70.4336 28.0275C69.9276 28.0159 69.7563 28.1783 69.6522 28.6249C69.1769 30.6549 68.622 32.6675 68.1712 34.6994C67.8081 36.3389 68.5425 37.1451 70.3152 37.1992C71.2619 37.2201 72.2049 37.0806 73.0998 36.7874C73.4283 36.683 73.5527 36.7255 73.5813 37.0619C73.667 38.0286 73.771 38.9953 73.8791 39.9619C73.891 40.0094 73.8924 40.0587 73.8834 40.1067C73.8743 40.1547 73.8549 40.2005 73.8264 40.2411C73.7979 40.2817 73.7609 40.3163 73.7177 40.3428C73.6744 40.3693 73.6259 40.3871 73.5752 40.395C71.2006 41.1587 68.7689 41.4467 66.3291 40.8261C63.9239 40.2152 63.0243 38.4868 63.1202 36.1861C63.2283 33.5529 64.1401 31.0589 64.7379 28.5127C65.3499 25.8853 66.0496 23.2734 66.6983 20.6537C66.7901 20.2671 66.9023 20.0583 67.398 20.0022C68.7914 19.8456 70.1785 19.6155 71.5637 19.3932C71.9533 19.3294 72.0431 19.3932 71.9391 19.7683C71.5862 21.052 71.2863 22.3473 70.9191 23.6349C70.7885 24.0931 70.8273 24.2517 71.3903 24.2401C73.0019 24.1898 74.6196 24.213 76.2965 24.213Z" fill="#404F55"/>
<path id="Vector_9" d="M135.404 34.0149C135.549 30.0438 137.079 26.7765 140.947 24.8606C143.96 23.368 147.116 23.4086 150.276 24.5358C150.672 24.6769 150.727 24.8316 150.551 25.1834C150.086 26.114 149.645 27.0549 149.229 28.0061C149.084 28.3406 148.938 28.4063 148.585 28.2632C147.345 27.7462 145.965 27.611 144.639 27.8766C142.454 28.3135 141.279 29.7113 140.784 31.6717C140.448 32.8452 140.453 34.0831 140.798 35.2542C141.206 36.5166 142.022 37.0986 143.423 37.1875C144.621 37.264 145.822 37.0999 146.949 36.7061C147.301 36.5843 147.473 36.5804 147.501 37.0038C147.571 37.9705 147.679 38.9372 147.771 39.9038C147.793 40.1223 147.828 40.3156 147.516 40.4239C144.847 41.3384 142.136 41.611 139.46 40.5921C136.604 39.5036 135.504 37.2706 135.404 34.4963C135.4 34.332 135.404 34.1734 135.404 34.0149Z" fill="#404F55"/>
<path id="Vector_10" d="M87.6334 36.5557C87.7558 37.7389 87.87 38.8757 87.9924 40.0163C88.0025 40.059 88.0034 40.1032 87.995 40.1463C87.9866 40.1893 87.9691 40.2303 87.9436 40.2668C87.9181 40.3033 87.885 40.3345 87.8464 40.3586C87.8078 40.3826 87.7645 40.3991 87.7191 40.4069C85.0997 41.3175 82.4416 41.5669 79.7855 40.6292C77.2763 39.7418 75.9748 37.8935 75.6831 35.444C75.3159 32.3507 76.0095 29.4777 78.1882 27.0611C80.4995 24.4994 83.5432 23.5811 87.0336 23.7744C88.2258 23.8548 89.3967 24.1159 90.5016 24.5477C90.8607 24.685 90.9096 24.8203 90.7546 25.149C90.3017 26.0615 89.8652 26.9837 89.4653 27.9195C89.298 28.3061 89.1328 28.4279 88.6942 28.2423C87.7853 27.8715 86.7976 27.7066 85.8096 27.7609C83.8574 27.8344 82.3845 28.6425 81.5012 30.2917C80.7175 31.7566 80.5141 33.4392 80.9279 35.0341C81.2666 36.4551 82.1519 37.0951 83.688 37.1879C85.0446 37.2671 86.3217 37.0042 87.6334 36.5557Z" fill="#404F55"/>
<path id="Vector_11" d="M107.176 40.7548C108.004 37.4565 108.808 34.224 109.624 30.9914C110.152 28.8938 110.695 26.798 111.199 24.6946C111.293 24.3079 111.458 24.1958 111.866 24.2035C113.188 24.2267 114.518 24.2306 115.836 24.2035C116.282 24.2035 116.311 24.3446 116.223 24.6868C114.888 29.9184 113.557 35.1513 112.231 40.3855C112.168 40.6368 112.096 40.7722 111.794 40.7606C110.289 40.747 108.777 40.7548 107.176 40.7548Z" fill="#404F55"/>
<path id="Vector_12" d="M62.6476 24.2129C61.9172 27.0994 61.2032 29.9278 60.4872 32.7563C59.8589 35.2387 59.2224 37.7192 58.6063 40.2054C58.5084 40.6095 58.3534 40.7854 57.8678 40.768C56.6092 40.7274 55.3464 40.7294 54.0857 40.768C53.5757 40.7815 53.4982 40.652 53.6124 40.2074C54.6773 36.0326 55.7326 31.8554 56.7785 27.6755C57.0396 26.6373 57.3089 25.5991 57.572 24.559C57.6149 24.3908 57.6067 24.209 57.8903 24.211C59.4611 24.2168 61.0319 24.2129 62.6476 24.2129Z" fill="#404F55"/>
<path id="Vector_13" d="M60.8479 22.208C58.7773 22.208 57.6186 20.6788 58.302 18.8305C58.5612 18.1546 59.0472 17.5779 59.6854 17.1889C60.3236 16.7999 61.0788 16.62 61.8353 16.6768C63.8753 16.8701 64.8259 18.4032 64.0446 20.1877C63.783 20.7868 63.3395 21.2987 62.7703 21.6584C62.2012 22.0181 61.532 22.2094 60.8479 22.208Z" fill="#404F55"/>
<path id="Vector_14" d="M111.82 19.8554C111.828 19.3689 111.951 18.8903 112.18 18.4549C112.409 18.0196 112.738 17.6386 113.144 17.3403C113.549 17.0419 114.021 16.8338 114.522 16.7314C115.024 16.629 115.544 16.6348 116.043 16.7485C117.288 17.0405 117.973 17.8621 117.965 19.055C117.948 21.1701 115.649 22.7283 113.518 22.0671C112.361 21.7095 111.82 21.0038 111.82 19.8554Z" fill="#404F55"/>
<path id="Vector_15" d="M19.5171 33.2668C18.6997 33.2448 17.8874 33.1359 17.0956 32.942C16.8202 32.8859 16.6876 32.8086 16.7631 32.5147C16.9916 31.5693 17.1956 30.6201 17.4159 29.6727C17.4547 29.4987 17.4914 29.3441 17.7811 29.3982C18.8317 29.5915 19.8843 29.7694 20.8268 30.2875C21.6428 30.738 21.9998 31.3451 21.8468 32.0275C21.6673 32.8009 21.0818 33.2127 20.0883 33.2745C19.8945 33.2765 19.7068 33.2668 19.5171 33.2668Z" fill="#404F55"/>
<path id="Vector_16" d="M20.0996 28.0177C19.404 28.0177 18.5533 28.0544 18.1065 27.6755C17.6292 27.2714 18.2453 26.5406 18.2718 25.9355C18.2858 25.8375 18.3097 25.741 18.3432 25.6474C18.6288 24.441 18.6288 24.4449 19.9385 24.7658C20.4495 24.875 20.94 25.0576 21.393 25.3071C22.0805 25.7112 22.3457 26.2738 22.1702 26.9621C22.0193 27.5421 21.4848 27.9384 20.7279 28.0099C20.5188 28.0231 20.3091 28.0257 20.0996 28.0177Z" fill="#404F55"/>
</g>
</svg>
