<svg width="203" height="58" viewBox="0 0 203 58" fill="none" xmlns="http://www.w3.org/2000/svg">
<g id="bitcoin-171b4622">
<path id="Vector" d="M35.1846 23.7085L34.2305 27.3548C35.3125 27.61 38.6498 28.6598 39.1898 26.5969C39.7541 24.4451 36.2686 23.9734 35.1846 23.7085Z" fill="#404F55"/>
<path id="Vector_2" d="M33.7489 29.1934L32.6953 33.2147C33.9945 33.5221 38.0038 34.7478 38.5965 32.48C39.2157 30.1156 35.0481 29.5027 33.7489 29.1934Z" fill="#404F55"/>
<path id="Vector_3" d="M39.4981 12.8526C36.1447 12.0564 32.6187 12.2252 29.366 13.3375C26.1133 14.4498 23.2799 16.4557 21.2242 19.1016C19.1685 21.7475 17.9828 24.9145 17.817 28.2022C17.6512 31.4899 18.5128 34.7505 20.2928 37.5719C22.0728 40.3932 24.6913 42.6485 27.8171 44.0526C30.9429 45.4566 34.4357 45.9464 37.8538 45.4599C41.2719 44.9734 44.4617 43.5326 47.02 41.3195C49.5783 39.1065 51.39 36.2207 52.2262 33.027C52.7814 30.9064 52.8926 28.7024 52.5534 26.5408C52.2143 24.3793 51.4314 22.3026 50.2495 20.4292C49.0675 18.5558 47.5097 16.9225 45.665 15.6225C43.8203 14.3225 41.7248 13.3813 39.4981 12.8526ZM42.9796 26.6296C42.7278 28.2497 41.7839 29.0346 40.5314 29.3111C42.2508 30.1637 43.1257 31.4726 42.2934 33.7404C41.2581 36.5553 38.7998 36.7931 35.5295 36.2054L34.7357 39.233L32.8174 38.7786L33.601 35.7897C33.1036 35.6718 32.5961 35.548 32.0724 35.403L31.2868 38.4055L29.3725 37.9492L30.1662 34.9158C29.7176 34.8056 29.2628 34.6896 28.798 34.5794L26.3031 33.9878L27.2552 31.8998C27.2552 31.8998 28.6762 32.2575 28.6478 32.2304C28.7355 32.2575 28.8279 32.2677 28.9198 32.2605C29.0116 32.2533 29.1011 32.2289 29.183 32.1887C29.2649 32.1484 29.3376 32.0931 29.3969 32.0259C29.4563 31.9588 29.5011 31.8811 29.5288 31.7974L30.7813 27.0085L30.9843 27.0568C30.9183 27.0321 30.8504 27.012 30.7813 26.9969L31.6806 23.5865C31.7029 23.1998 31.5628 22.7088 30.7853 22.5232C30.8158 22.5058 29.3928 22.1945 29.3928 22.1945L29.9043 20.2438L32.5433 20.8721C32.9493 20.9668 33.3553 21.0654 33.7613 21.1466L34.5449 18.148L36.4633 18.6024L35.6919 21.543C36.2061 21.6538 36.7184 21.7685 37.2286 21.8871L37.9939 18.9658L39.9102 19.4202L39.1347 22.4265C41.5565 23.223 43.3267 24.414 42.9796 26.6296Z" fill="#404F55"/>
<path id="Vector_4" d="M69.0182 22.4266C70.2826 22.3976 71.5375 22.6422 72.6884 23.1419C73.6869 23.5948 74.5659 24.2555 75.2604 25.0753C75.9553 25.9262 76.4659 26.9001 76.7626 27.9405C77.0929 29.0932 77.2554 30.2836 77.2457 31.4785C77.2568 35.2058 75.7515 38.7924 73.0457 41.4854C71.7331 42.7707 70.1699 43.7997 68.4437 44.5149C66.632 45.2685 64.6736 45.6493 62.6967 45.6324C62.4308 45.6324 61.9619 45.6324 61.3001 45.6111C60.539 45.5872 59.78 45.5227 59.0265 45.4178C58.1105 45.2922 57.2019 45.1219 56.3043 44.9074C55.365 44.6921 54.4525 44.3823 53.582 43.9833L61.2351 13.3573L68.0904 12.3462L65.3499 23.2135C65.9204 22.9712 66.512 22.7772 67.1181 22.6335C67.7402 22.4912 68.3783 22.4217 69.0182 22.4266ZM63.2692 40.4588C64.2901 40.4596 65.2946 40.2134 66.1883 39.7435C67.1069 39.2645 67.913 38.6118 68.5573 37.8256C69.231 37.0061 69.7609 36.0881 70.1265 35.1073C70.5099 34.0935 70.705 33.0239 70.7031 31.9463C70.7031 30.593 70.4655 29.5471 69.9946 28.7873C69.5236 28.0275 68.6467 27.6466 67.3799 27.6466C66.8372 27.666 66.2979 27.7373 65.7702 27.8593C65.1025 28.005 64.4849 28.3104 63.9756 28.7467L61.0565 40.2867C61.2331 40.3177 61.3894 40.3447 61.5214 40.3718C61.6586 40.4008 61.7976 40.4215 61.9375 40.4337C62.1148 40.4521 62.2931 40.4605 62.4714 40.4588H63.2692ZM84.3507 45.0466H77.804L83.3317 22.8906H89.9272L84.3507 45.0466ZM87.5358 20.1897C86.6435 20.1982 85.7731 19.9264 85.0592 19.4164C84.3183 18.9002 83.9508 18.1056 83.9508 17.0345C83.9472 16.4617 84.0747 15.895 84.3244 15.3738C84.5655 14.8672 84.9042 14.4081 85.3231 14.0205C85.7414 13.6397 86.2274 13.3327 86.7583 13.1137C87.3112 12.8911 87.906 12.7786 88.5062 12.7831C89.3985 12.7747 90.2689 13.0465 90.9828 13.5565C91.7176 14.072 92.0857 14.8653 92.0871 15.9364C92.0904 16.5115 91.9615 17.0803 91.7095 17.6029C91.4717 18.1099 91.1348 18.5692 90.7168 18.9563C90.2986 19.3375 89.8118 19.644 89.2796 19.8611C88.7286 20.0875 88.1339 20.2015 87.5338 20.1955L87.5358 20.1897ZM95.6558 17.369L102.513 16.3637L100.828 22.8945H108.173L106.851 28.0333H99.5534L97.6087 35.7821C97.4397 36.374 97.3363 36.9811 97.3001 37.5936C97.2562 38.0897 97.3311 38.5888 97.5194 39.0533C97.7021 39.4696 98.0407 39.8065 98.4694 39.9987C98.9261 40.2249 99.5798 40.3389 100.436 40.3389C101.128 40.3398 101.819 40.275 102.497 40.1456C103.179 40.0169 103.851 39.8411 104.507 39.6197L104.996 44.4241C104.056 44.7469 103.096 45.0136 102.121 45.2225C100.915 45.4619 99.685 45.5728 98.4532 45.5531C96.4232 45.5531 94.8452 45.267 93.7192 44.6947C92.6659 44.188 91.8222 43.3586 91.3238 42.3399C90.8417 41.2572 90.6331 40.0818 90.7148 38.9083C90.7834 37.5308 90.9872 36.1624 91.3238 34.8212L95.6619 17.3825L95.6558 17.369ZM107.885 36.1997C107.872 34.3611 108.201 32.5349 108.857 30.8057C109.475 29.173 110.424 27.6715 111.648 26.3861C112.882 25.1071 114.382 24.0878 116.053 23.3933C117.874 22.6444 119.84 22.2708 121.823 22.2971C123.02 22.2833 124.215 22.404 125.383 22.6567C126.367 22.876 127.325 23.1935 128.239 23.604L125.982 28.4973C125.378 28.2678 124.766 28.0642 124.145 27.8863C123.39 27.686 122.608 27.5929 121.825 27.6099C119.638 27.6099 117.911 28.3291 116.626 29.7578C115.341 31.1865 114.693 33.116 114.693 35.5307C114.693 36.9627 115.019 38.1227 115.67 39.0107C116.317 39.8962 117.515 40.337 119.251 40.337C120.084 40.3389 120.915 40.2547 121.729 40.0857C122.456 39.9373 123.167 39.7257 123.853 39.4535L124.348 44.4666C123.452 44.7931 122.537 45.0681 121.607 45.2902C120.431 45.5434 119.228 45.6628 118.022 45.6459C116.194 45.6459 114.646 45.3933 113.378 44.8881C112.188 44.4326 111.117 43.7352 110.239 42.8445C109.408 41.9821 108.795 40.9497 108.447 39.8266C108.074 38.6524 107.887 37.4321 107.891 36.2055L107.885 36.1997ZM136.966 45.6343C135.58 45.6612 134.201 45.4314 132.906 44.9577C131.813 44.5469 130.836 43.898 130.054 43.063C129.287 42.2216 128.707 41.2401 128.351 40.1785C127.956 38.9908 127.764 37.7507 127.781 36.5051C127.785 34.7867 128.074 33.0796 128.639 31.4475C129.193 29.7974 130.055 28.2562 131.185 26.8984C132.309 25.545 133.705 24.419 135.292 23.5866C136.916 22.7321 138.771 22.3029 140.862 22.3029C142.248 22.2769 143.627 22.506 144.922 22.9776C146.017 23.3888 146.996 24.0375 147.782 24.8723C148.548 25.7148 149.126 26.6969 149.481 27.7587C149.879 28.9498 150.073 30.194 150.056 31.4437C150.05 33.1603 149.768 34.8659 149.219 36.5013C148.681 38.1442 147.842 39.6836 146.741 41.0485C145.634 42.41 144.241 43.5361 142.65 44.3545C141.017 45.2116 139.122 45.6401 136.966 45.6401V45.6343ZM140.239 27.606C139.315 27.5916 138.412 27.872 137.675 28.4025C136.923 28.9553 136.293 29.643 135.819 30.4267C135.309 31.2621 134.928 32.1634 134.689 33.1025C134.447 34.0036 134.322 34.9294 134.315 35.8594C134.315 37.2669 134.551 38.3624 135.022 39.1461C135.495 39.9291 136.347 40.3235 137.587 40.3235C138.513 40.3383 139.417 40.0556 140.153 39.5211C140.907 38.9723 141.539 38.2878 142.015 37.5066C142.526 36.6713 142.907 35.7701 143.148 34.8309C143.385 33.9297 143.51 33.0049 143.519 32.0759C143.519 30.6742 143.282 29.5761 142.809 28.7892C142.336 28.0023 141.481 27.6099 140.243 27.6099L140.239 27.606ZM157.197 45.0466H150.644L156.174 22.8906H162.768L157.197 45.0466ZM160.378 20.1897C159.486 20.199 158.616 19.9271 157.904 19.4164C157.165 18.9008 156.795 18.1069 156.793 17.0345C156.791 16.4614 156.92 15.8947 157.171 15.3738C157.41 14.8665 157.748 14.4071 158.168 14.0205C158.586 13.6392 159.073 13.3322 159.605 13.1137C160.156 12.8889 160.749 12.7743 161.349 12.7773C162.242 12.7685 163.113 13.0403 163.827 13.5507C164.564 14.0727 164.936 14.8653 164.936 15.9306C164.936 16.5056 164.807 17.0741 164.556 17.5971C164.319 18.104 163.983 18.5633 163.565 18.9505C163.147 19.331 162.66 19.6374 162.128 19.8553C161.576 20.0819 160.98 20.1959 160.378 20.1897ZM167.483 23.8979C167.981 23.7587 168.537 23.5924 169.14 23.4107C169.81 23.2135 170.486 23.0465 171.17 22.9099C172.002 22.7385 172.843 22.6094 173.689 22.5233C174.738 22.4169 175.793 22.3665 176.848 22.3725C180.3 22.3725 182.683 23.3282 183.995 25.2396C185.308 27.151 185.537 29.7629 184.684 33.0754L181.683 45.0466H175.092L178.011 33.3345C178.19 32.6037 178.328 31.8961 178.433 31.2078C178.539 30.6075 178.531 29.9938 178.409 29.3963C178.303 28.8968 178.015 28.449 177.597 28.1319C177.166 27.809 176.513 27.6485 175.628 27.6485C174.751 27.6513 173.878 27.7368 173.019 27.9037L168.724 45.0466H162.132L167.485 23.9017L167.483 23.8979Z" fill="#404F55"/>
</g>
</svg>
