<svg width="69" height="68" viewBox="0 0 69 68" fill="none" xmlns="http://www.w3.org/2000/svg">
<g id="1 1" clip-path="url(#clip0_2_6172)">
<g id="Group">
<g id="Group_2">
<path id="Vector" d="M34.4971 12.0908C22.4165 12.0908 12.5881 21.9192 12.5881 33.9997C12.5881 46.0803 22.4165 55.9087 34.4971 55.9087C46.5776 55.9087 56.406 46.0803 56.406 33.9997C56.406 21.9192 46.5778 12.0908 34.4971 12.0908ZM34.4971 51.9252C24.6129 51.9252 16.5716 43.8839 16.5716 33.9997C16.5716 24.1156 24.6129 16.0743 34.4971 16.0743C44.3812 16.0743 52.4226 24.1156 52.4226 33.9997C52.4226 43.8839 44.3813 51.9252 34.4971 51.9252Z" fill="white"/>
<path id="Vector_2" d="M43.0473 26.6156L32.5053 37.1575L25.9467 30.599C25.169 29.8212 23.9078 29.8212 23.13 30.599C22.3522 31.3769 22.3522 32.6379 23.13 33.4157L31.0969 41.3826C31.4858 41.7715 31.9956 41.9661 32.5052 41.9661C33.0148 41.9661 33.5247 41.7717 33.9134 41.3826L45.8638 29.4323C46.6416 28.6545 46.6416 27.3934 45.8638 26.6156C45.0862 25.8378 43.825 25.8378 43.0473 26.6156Z" fill="#33C16C"/>
<path id="Vector_3" d="M65.648 20.035C65.6413 20.0309 58.6916 15.8709 58.6916 15.8709L57.1315 9.41002C56.4393 6.54313 53.8032 4.62697 50.8622 4.85508L42.9426 5.468C42.9426 5.468 38.3806 1.44181 38.3716 1.43424C36.1266 -0.478079 32.8674 -0.478079 30.6224 1.43424C30.6135 1.44181 26.0514 5.468 26.0514 5.468L18.1318 4.85508C15.2144 4.62856 12.5985 6.51127 11.8801 9.33858L9.70837 16.2586C9.70837 16.2586 3.36049 20.0299 3.35212 20.035C0.839502 21.5793 -0.167645 24.6788 0.957544 27.4051L3.66735 33.9718L0.957544 40.5383C-0.167645 43.2646 0.839502 46.3641 3.35226 47.9084C3.35996 47.9132 10.2962 52.0461 10.2962 52.0461L11.8627 58.5334C12.5176 61.246 14.9127 63.1069 17.6595 63.1067C18.0796 63.1067 17.6077 63.1226 25.9692 62.4818C25.9692 62.4818 30.6151 66.5587 30.6225 66.565C31.745 67.5211 33.121 67.9993 34.4972 67.9993C35.8732 67.9993 37.2494 67.5211 38.3719 66.565C38.3793 66.5586 43.0252 62.4818 43.0252 62.4818L50.8624 63.0883C53.8024 63.3155 56.4396 61.4003 57.1316 58.5334L58.6917 52.0724C67.1959 46.9818 65.3928 48.0659 65.6481 47.9082C68.1606 46.364 69.1677 43.2645 68.0425 40.5382L65.3327 33.9715L68.0425 27.4048C69.1676 24.6788 68.1606 21.5794 65.648 20.035ZM61.3368 34.7316L64.3603 42.058C64.7342 42.9639 64.4018 43.9935 63.5702 44.5098L55.9288 49.084C55.4701 49.3585 55.1411 49.8058 55.0156 50.3254L53.2593 57.5988C53.0287 58.5543 52.1513 59.1925 51.1696 59.117L42.4958 58.4456C41.9616 58.4044 41.4317 58.5804 41.0284 58.9344L35.7793 63.5407C35.0343 64.1677 33.9598 64.1677 33.2148 63.5405L27.9659 58.9344C27.5626 58.5804 27.0325 58.4039 26.4986 58.4456L17.8248 59.117C16.8439 59.1927 15.9657 58.5543 15.7351 57.5986L13.9718 50.2966C13.8461 49.7757 13.5156 49.3274 13.0553 49.0531L5.42843 44.5086C4.59801 43.9919 4.26632 42.9632 4.63997 42.0579L7.6634 34.7314C7.8643 34.2448 7.8643 33.6985 7.6634 33.2119L4.63957 25.8854C4.26619 24.9806 4.59748 23.9525 5.42697 23.4354L12.398 19.2941C12.8197 19.0436 13.1341 18.6463 13.281 18.1782C15.85 9.98735 15.705 10.4682 15.7348 10.3448C15.9654 9.3893 16.8413 8.75009 17.8245 8.82657L26.5841 9.50456C27.1216 9.54598 27.6519 9.36832 28.0557 9.01207L33.2166 4.45714C33.9606 3.83227 35.033 3.83227 35.7771 4.45687L40.9383 9.01207C41.3421 9.36859 41.8737 9.54598 42.4099 9.50456L51.1695 8.82657C52.1493 8.75089 53.0286 9.38917 53.2592 10.3449L55.0155 17.6182C55.141 18.1377 55.47 18.5851 55.9286 18.8597L63.5701 23.4337C64.4017 23.9501 64.7342 24.9796 64.3601 25.8854L61.3367 33.2119C61.1359 33.6987 61.1359 34.2449 61.3368 34.7316Z" fill="white"/>
</g>
</g>
</g>
<defs>
<clipPath id="clip0_2_6172">
<rect width="68" height="68" fill="white" transform="translate(0.5)"/>
</clipPath>
</defs>
</svg>
