<svg width="13" height="12" viewBox="0 0 13 12" fill="none" xmlns="http://www.w3.org/2000/svg">
<path id="Vector" d="M3.6875 3.51562C4.22446 3.51562 4.69742 3.36905 5.08798 3.18201C4.69147 3.92807 4.45389 4.79169 4.40674 5.68231C2.82132 5.85251 1.57812 7.18259 1.57812 8.8125C1.57812 10.5572 2.99747 12 4.74219 12C5.27969 12 5.79459 11.8486 6.25638 11.5952C5.53998 10.8929 5.09375 9.89264 5.09375 8.8125C5.09375 7.73236 5.53998 6.75549 6.25638 6.05319C5.90079 5.85809 5.51334 5.72543 5.10876 5.67389C5.26166 3.18896 7.13831 1.13928 9.55795 0.765289C8.94171 1.63046 8.60938 2.66281 8.60938 3.7467V5.68396C7.03165 5.86148 5.79688 7.18808 5.79688 8.8125C5.79688 10.5572 7.21622 12 8.96094 12C10.7057 12 12.125 10.5572 12.125 8.8125C12.125 7.18808 10.8902 5.86148 9.3125 5.68396V3.7467C9.3125 2.55807 9.7753 1.44058 10.6158 0.600128L11.2159 0H10.3672C8.71594 0 7.21942 0.67337 6.13663 1.75955C5.85236 1.48663 4.94086 0.703125 3.6875 0.703125C2.20435 0.703125 1.18948 1.80826 1.14041 1.85532L0.875 2.10938L1.14041 2.36343C1.18948 2.41049 2.20435 3.51562 3.6875 3.51562ZM8.96094 7.75781C8.37939 7.75781 7.90625 8.23096 7.90625 8.8125H7.20312C7.20312 7.84332 7.99176 7.05469 8.96094 7.05469V7.75781ZM4.74219 7.75781C4.16064 7.75781 3.6875 8.23096 3.6875 8.8125H2.98438C2.98438 7.84332 3.77301 7.05469 4.74219 7.05469V7.75781Z" fill="white"/>
</svg>
