<svg width="34" height="34" viewBox="0 0 34 34" fill="none" xmlns="http://www.w3.org/2000/svg">
    <g id="icon">
        <path id="Vector"
              d="M25.5144 10.9098L19.4535 16.9707L25.5144 23.0316C26.1811 23.6983 26.1811 24.7893 25.5144 25.456C24.8477 26.1227 23.7568 26.1227 23.0901 25.456L17.0292 19.3951L10.9682 25.456C10.3015 26.1227 9.21058 26.1227 8.54387 25.456C7.87717 24.7893 7.87717 23.6983 8.54387 23.0316L14.6048 16.9707L8.54387 10.9098C7.87717 10.2431 7.87717 9.15212 8.54387 8.48542C9.21058 7.81872 10.3015 7.81872 10.9682 8.48542L17.0292 14.5463L23.0901 8.48542C23.7568 7.81872 24.8477 7.81872 25.5144 8.48542C26.1811 9.15212 26.1811 10.2431 25.5144 10.9098Z"
              fill="currentColor"/>
    </g>
</svg>
