<svg width="24" height="24" viewBox="0 0 24 24" fill="none" xmlns="http://www.w3.org/2000/svg">
<g id="icon-home">
<g id="facebook">
<g id="_x30_1._Facebook">
<path id="Icon_11_" d="M10.403 13.0313C10.3429 13.0313 9.02128 13.0313 8.42053 13.0313C8.10013 13.0313 8 12.9111 8 12.6108C8 11.8098 8 10.9887 8 10.1877C8 9.86733 8.12015 9.76721 8.42053 9.76721H10.403C10.403 9.70713 10.403 8.54568 10.403 8.00501C10.403 7.20401 10.5432 6.44305 10.9437 5.74218C11.3642 5.02128 11.965 4.54068 12.7259 4.26033C13.2265 4.0801 13.7272 4 14.2678 4H16.2303C16.5106 4 16.6308 4.12015 16.6308 4.4005V6.68335C16.6308 6.9637 16.5106 7.08385 16.2303 7.08385C15.6896 7.08385 15.1489 7.08385 14.6083 7.10388C14.0676 7.10388 13.7872 7.36421 13.7872 7.92491C13.7672 8.52566 13.7872 9.10638 13.7872 9.72716H16.1101C16.4305 9.72716 16.5507 9.84731 16.5507 10.1677V12.5907C16.5507 12.9111 16.4506 13.0113 16.1101 13.0113C15.3892 13.0113 13.8473 13.0113 13.7872 13.0113V19.5394C13.7872 19.8798 13.6871 20 13.3267 20C12.4856 20 11.6646 20 10.8235 20C10.5232 20 10.403 19.8799 10.403 19.5795C10.403 17.4768 10.403 13.0914 10.403 13.0313Z" fill="currentColor"/>
</g>
</g>
</g>
</svg>
