<svg width="20" height="20" viewBox="0 0 20 20" fill="none" xmlns="http://www.w3.org/2000/svg">
<g id="Frame 26">
<path id="Vector" d="M11.1429 3C7.35619 3 4.28571 6.13444 4.28571 10H2L4.96381 13.0256L5.01714 13.1344L8.09524 10H5.80952C5.80952 6.99 8.19429 4.55556 11.1429 4.55556C14.0914 4.55556 16.4762 6.99 16.4762 10C16.4762 13.01 14.0914 15.4444 11.1429 15.4444C9.67238 15.4444 8.33905 14.83 7.37905 13.8422L6.29714 14.9467C7.53905 16.2144 9.24571 17 11.1429 17C14.9295 17 18 13.8656 18 10C18 6.13444 14.9295 3 11.1429 3ZM10.381 6.88889V10.7778L13.619 12.7378L14.2057 11.7422L11.5238 10.1167V6.88889H10.381Z" fill="white"/>
</g>
</svg>
