<svg width="24" height="24" viewBox="0 0 24 24" fill="none" xmlns="http://www.w3.org/2000/svg">
<g id="icon-home">
<g id="Group">
<g id="Vector">
<mask id="path-1-inside-1_215_27568" fill="white">
<path d="M17.36 20H6.64C5.2 20 4 18.784 4 17.328V11.488C4 10.752 4.32 10.032 4.88 9.536L10.24 4.672C11.28 3.776 12.72 3.776 13.76 4.672L19.12 9.536C19.68 10.016 20 10.752 20 11.488V17.328C19.92 18.864 18.8 20 17.36 20ZM12 5.648C11.76 5.648 11.52 5.728 11.28 5.888L5.92 10.752C5.68 10.912 5.6 11.232 5.6 11.568V17.408C5.6 17.968 6.08 18.464 6.64 18.464H17.28C17.84 18.464 18.32 17.984 18.32 17.408V11.568C18.32 11.248 18.16 11.008 18 10.752L12.64 5.888C12.48 5.728 12.24 5.648 12 5.648Z"/>
</mask>
<path d="M17.36 20H6.64C5.2 20 4 18.784 4 17.328V11.488C4 10.752 4.32 10.032 4.88 9.536L10.24 4.672C11.28 3.776 12.72 3.776 13.76 4.672L19.12 9.536C19.68 10.016 20 10.752 20 11.488V17.328C19.92 18.864 18.8 20 17.36 20ZM12 5.648C11.76 5.648 11.52 5.728 11.28 5.888L5.92 10.752C5.68 10.912 5.6 11.232 5.6 11.568V17.408C5.6 17.968 6.08 18.464 6.64 18.464H17.28C17.84 18.464 18.32 17.984 18.32 17.408V11.568C18.32 11.248 18.16 11.008 18 10.752L12.64 5.888C12.48 5.728 12.24 5.648 12 5.648Z" fill="url(#paint0_linear_215_27568)"/>
<path d="M4.88 9.536L8.27474 13.3688L8.29785 13.3483L8.3207 13.3276L4.88 9.536ZM10.24 4.672L6.89813 0.793044L6.84815 0.836103L6.7993 0.880435L10.24 4.672ZM13.76 4.672L17.2007 0.880435L17.1518 0.836103L17.1019 0.793044L13.76 4.672ZM19.12 9.536L15.6793 13.3276L15.7329 13.3762L15.7879 13.4234L19.12 9.536ZM20 17.328L25.1131 17.5943L25.12 17.4612V17.328H20ZM11.28 5.888L8.43993 1.6279L8.12214 1.83977L7.8393 2.09644L11.28 5.888ZM5.92 10.752L8.76007 15.0121L9.07786 14.8002L9.3607 14.5436L5.92 10.752ZM18 10.752L22.3418 8.03841L21.9659 7.43702L21.4407 6.96044L18 10.752ZM12.64 5.888L9.01961 9.50839L9.10738 9.59615L9.1993 9.67956L12.64 5.888ZM17.36 14.88H6.64V25.12H17.36V14.88ZM6.64 14.88C8.08747 14.88 9.12 16.0165 9.12 17.328H-1.12C-1.12 21.5515 2.31253 25.12 6.64 25.12V14.88ZM9.12 17.328V11.488H-1.12V17.328H9.12ZM9.12 11.488C9.12 12.2112 8.8167 12.8887 8.27474 13.3688L1.48526 5.70323C-0.176704 7.17525 -1.12 9.2928 -1.12 11.488H9.12ZM8.3207 13.3276L13.6807 8.46356L6.7993 0.880435L1.4393 5.74444L8.3207 13.3276ZM13.5819 8.55096C13.1974 8.88217 12.6391 9.12 12 9.12C11.3609 9.12 10.8026 8.88217 10.4181 8.55096L17.1019 0.793044C14.1412 -1.75768 9.85879 -1.75768 6.89813 0.793044L13.5819 8.55096ZM10.3193 8.46356L15.6793 13.3276L22.5607 5.74444L17.2007 0.880435L10.3193 8.46356ZM15.7879 13.4234C15.15 12.8766 14.88 12.1614 14.88 11.488H25.12C25.12 9.34256 24.21 7.15544 22.4521 5.64861L15.7879 13.4234ZM14.88 11.488V17.328H25.12V11.488H14.88ZM14.8869 17.0617C14.9086 16.6451 15.0883 16.1069 15.5467 15.6426C16.0177 15.1657 16.6812 14.88 17.36 14.88V25.12C21.8236 25.12 24.9075 21.5415 25.1131 17.5943L14.8869 17.0617ZM12 0.528C10.5604 0.528 9.34877 1.02201 8.43993 1.6279L14.1201 10.1481C13.6912 10.434 12.9596 10.768 12 10.768V0.528ZM7.8393 2.09644L2.4793 6.96044L9.3607 14.5436L14.7207 9.67956L7.8393 2.09644ZM3.07994 6.4919C0.575049 8.16183 0.48 10.8676 0.48 11.568H10.72C10.72 11.7602 10.703 12.2161 10.4994 12.7945C10.2835 13.4077 9.79024 14.3253 8.76007 15.0121L3.07994 6.4919ZM0.48 11.568V17.408H10.72V11.568H0.48ZM0.48 17.408C0.48 20.6946 3.15227 23.584 6.64 23.584V13.344C7.89506 13.344 8.91181 13.8936 9.5679 14.5635C10.2208 15.2302 10.72 16.2196 10.72 17.408H0.48ZM6.64 23.584H17.28V13.344H6.64V23.584ZM17.28 23.584C20.7181 23.584 23.44 20.761 23.44 17.408H13.2C13.2 15.207 14.9619 13.344 17.28 13.344V23.584ZM23.44 17.408V11.568H13.2V17.408H23.44ZM23.44 11.568C23.44 10.502 23.1615 9.63431 22.8811 9.01733C22.648 8.50453 22.3474 8.04749 22.3418 8.03841L13.6582 13.4656C13.7255 13.5732 13.7141 13.5548 13.7089 13.546C13.6934 13.5199 13.631 13.4132 13.5589 13.2547C13.3985 12.9017 13.2 12.314 13.2 11.568H23.44ZM21.4407 6.96044L16.0807 2.09644L9.1993 9.67956L14.5593 14.5436L21.4407 6.96044ZM16.2604 2.26761C14.9229 0.93015 13.2562 0.528 12 0.528V10.768C11.2238 10.768 10.0371 10.5259 9.01961 9.50839L16.2604 2.26761Z" fill="url(#paint1_linear_215_27568)" mask="url(#path-1-inside-1_215_27568)"/>
</g>
</g>
</g>
<defs>
<linearGradient id="paint0_linear_215_27568" x1="4" y1="20" x2="20" y2="20" gradientUnits="userSpaceOnUse">
<stop stop-color="#3DC68D"/>
<stop offset="1" stop-color="#278B62"/>
</linearGradient>
<linearGradient id="paint1_linear_215_27568" x1="4" y1="20" x2="20" y2="20" gradientUnits="userSpaceOnUse">
<stop stop-color="#3DC68D"/>
<stop offset="1" stop-color="#278B62"/>
</linearGradient>
</defs>
</svg>
