<svg width="24" height="24" viewBox="0 0 24 24" fill="none" xmlns="http://www.w3.org/2000/svg">
<g id="icon-info">
<g id="Group">
<g id="Group_2">
<g id="Group_3">
<path id="Vector" d="M12 4C16.422 4 20 7.57834 20 12C20 16.422 16.4217 20 12 20C7.57803 20 4 16.4217 4 12C4 7.57803 7.57837 4 12 4ZM12 18.75C15.731 18.75 18.75 15.7308 18.75 12C18.75 8.26897 15.7308 5.25 12 5.25C8.26897 5.25 5.25 8.26922 5.25 12C5.25 15.731 8.26925 18.75 12 18.75Z" />
</g>
</g>
<g id="Group_4">
<g id="Group_5">
<path id="Vector_2" d="M12 10.6978C12.3452 10.6978 12.625 10.9776 12.625 11.3228L12.625 15.3475C12.625 15.6927 12.3452 15.9725 12 15.9725C11.6548 15.9725 11.375 15.6927 11.375 15.3475L11.375 11.3228C11.375 10.9776 11.6548 10.6978 12 10.6978Z" />
</g>
</g>
<g id="Group_6">
<g id="Group_7">
<path id="Vector_3" d="M12 9.93262C11.534 9.93262 11.1563 9.55486 11.1563 9.08887C11.1563 8.62288 11.534 8.24512 12 8.24512C12.466 8.24512 12.8438 8.62288 12.8438 9.08887C12.8438 9.55486 12.466 9.93262 12 9.93262Z" />
</g>
</g>
</g>
</g>
</svg>
