<svg width="24" height="24" viewBox="0 0 24 24" fill="none" xmlns="http://www.w3.org/2000/svg">
<g id="icon-home">
<g id="instagram">
<g id="Group">
<g id="Group_2">
<path id="Vector" d="M16.6502 6.96191C16.436 6.96191 16.2617 7.1362 16.2617 7.35035C16.2617 7.56451 16.436 7.73879 16.6502 7.73879C16.8643 7.73879 17.0386 7.56454 17.0386 7.35035C17.0386 7.13616 16.8643 6.96191 16.6502 6.96191Z" fill="currentColor"/>
</g>
</g>
<g id="Group_3">
<g id="Group_4">
<path id="Vector_2" d="M11.9983 8.55713C10.0995 8.55713 8.55469 10.1019 8.55469 12.0008C8.55469 13.8996 10.0995 15.4444 11.9983 15.4444C13.8972 15.4444 15.442 13.8996 15.442 12.0008C15.442 10.102 13.8972 8.55713 11.9983 8.55713Z" fill="currentColor"/>
</g>
</g>
<g id="Group_5">
<g id="Group_6">
<path id="Vector_3" d="M15.6138 4H8.38616C5.96762 4 4 5.96763 4 8.38619V15.6138C4 18.0324 5.96762 20 8.38616 20H15.6138C18.0324 20 20 18.0324 20 15.6138V8.38619C20 5.96763 18.0324 4 15.6138 4ZM12 16.3885C9.58016 16.3885 7.61153 14.4198 7.61153 12C7.61153 9.58016 9.58019 7.61156 12 7.61156C14.4198 7.61156 16.3885 9.58019 16.3885 12C16.3885 14.4198 14.4198 16.3885 12 16.3885ZM16.651 8.68237C15.9158 8.68237 15.3177 8.08425 15.3177 7.34906C15.3177 6.61387 15.9158 6.01572 16.651 6.01572C17.3862 6.01572 17.9843 6.61384 17.9843 7.34903C17.9843 8.08422 17.3862 8.68237 16.651 8.68237Z" fill="currentColor"/>
</g>
</g>
</g>
</g>
</svg>
