<svg width="24" height="24" viewBox="0 0 24 24" fill="none" xmlns="http://www.w3.org/2000/svg">
<g id="icon-home">
<g id="Group">
<g id="Group_2">
<g id="Group_3">
<g id="Group_4">
<path id="Vector" d="M7.74024 14.1943C6.77651 14.1943 5.87059 14.5695 5.18882 15.2513C4.50738 15.9328 4.13217 16.839 4.13281 17.8021C4.13217 18.7661 4.5077 19.6727 5.18915 20.3544C5.87059 21.0359 6.77651 21.4114 7.74057 21.4117C7.74089 21.4117 7.74121 21.4117 7.74121 21.4117C9.73158 21.4111 11.3502 19.7918 11.3496 17.8021C11.3502 16.8387 10.9747 15.9328 10.2923 15.251C9.61021 14.5695 8.70394 14.1943 7.74024 14.1943ZM7.74089 20.2328C7.09202 20.2328 6.48178 19.9799 6.02292 19.521C5.56407 19.0618 5.31148 18.4516 5.31148 17.8021C5.31116 17.1535 5.56375 16.5439 6.02263 16.0851C6.48181 15.6262 7.09206 15.3733 7.74093 15.3733C8.39012 15.3733 9.00004 15.6262 9.45889 16.0848C9.91807 16.544 10.1707 17.1536 10.1707 17.8018C10.1706 19.1416 9.08077 20.2321 7.74089 20.2328Z" />
<path id="Vector_2" d="M16.3899 14.1934C14.3999 14.1934 12.7812 15.8123 12.7812 17.8027C12.7819 19.7921 14.4012 21.4104 16.3903 21.4104H16.3909C18.3803 21.4104 19.999 19.7918 19.9993 17.8021C19.9989 15.8123 18.3797 14.1937 16.3899 14.1934ZM16.3903 20.2315C15.051 20.2315 13.9608 19.1416 13.9602 17.8024C13.9602 16.4625 15.0504 15.3723 16.39 15.3723C17.7295 15.3726 18.82 16.4628 18.8204 17.802C18.8204 19.1416 17.7301 20.2315 16.3903 20.2315Z" />
<path id="Vector_3" d="M14.6947 13.6715C14.7771 13.919 15.0073 14.0752 15.2541 14.0752C15.3158 14.0752 15.3787 14.0653 15.44 14.0451C15.7491 13.9423 15.9158 13.6083 15.8133 13.2995C14.8825 10.5054 15.5422 7.84989 15.5489 7.82433C15.6067 7.60177 15.5297 7.36641 15.3522 7.2208C15.1743 7.0752 14.9284 7.0455 14.7218 7.14575C10.1734 9.34113 8.67539 13.1136 8.61376 13.2733C8.49689 13.5763 8.64792 13.9167 8.95063 14.0342C9.25432 14.1514 9.59504 14.0013 9.7135 13.6986C9.72594 13.6673 10.8861 10.7822 14.202 8.76825C14.0796 9.92362 14.0551 11.7508 14.6947 13.6715Z" />
<path id="Vector_4" d="M14.6478 6.55637L16.7684 7.47666C16.8451 7.50989 16.9246 7.52553 17.0028 7.52553C17.2305 7.52553 17.4473 7.39269 17.5441 7.17075C17.6737 6.87185 17.5368 6.52443 17.2382 6.39512L15.1175 5.47482C14.818 5.34486 14.4715 5.48216 14.3419 5.78074C14.2122 6.07964 14.3492 6.42705 14.6478 6.55637Z" />
<path id="Vector_5" d="M8.35036 8.57222C8.73736 8.64536 9.12598 8.68111 9.51335 8.68111C11.0844 8.68111 12.6328 8.08812 13.9692 6.95642C14.2177 6.74598 14.2483 6.37397 14.0379 6.12552C13.8271 5.87739 13.4554 5.84676 13.207 6.05687C11.8182 7.23328 10.1721 7.71543 8.56878 7.41369C7.2851 7.17196 6.11348 6.43463 5.39597 5.44152C6.63559 4.69556 10.1542 2.99676 13.3612 5.4016C13.6208 5.5964 13.9909 5.54433 14.1864 5.28376C14.3818 5.02352 14.3288 4.65374 14.0685 4.45862C9.47055 1.01028 4.29109 4.7531 4.2397 4.79111C4.00308 4.96544 3.93123 5.28732 4.07108 5.54598C4.90899 7.0944 6.50879 8.22578 8.35036 8.57222Z" />
</g>
</g>
</g>
</g>
</g>
</svg>
