<svg width="24" height="24" viewBox="0 0 24 24" fill="none" xmlns="http://www.w3.org/2000/svg">
<g id="icon-sign-up">
<g id="Group">
<g id="Group_2">
<g id="Group_3">
<path id="Vector" d="M12.4727 10.9091C11.8727 9.21452 10.2618 8 8.36364 8C5.95273 8 4 9.95273 4 12.3636C4 14.7745 5.95273 16.7273 8.36364 16.7273C10.2618 16.7273 11.8727 15.5127 12.4727 13.8182H15.6364V16.7273H18.5454V13.8182H20V10.9091H12.4727ZM8.36364 13.8182C7.56001 13.8182 6.90908 13.1673 6.90908 12.3636C6.90908 11.5599 7.56001 10.9091 8.36364 10.9091C9.16726 10.9091 9.8182 11.56 9.8182 12.3636C9.8182 13.1673 9.16726 13.8182 8.36364 13.8182Z" fill="white"/>
</g>
</g>
</g>
</g>
</svg>
