<svg width="203" height="58" viewBox="0 0 203 58" fill="none" xmlns="http://www.w3.org/2000/svg">
<g id="litecoin-5258e06e">
<path id="Vector" d="M37.6641 11.6582C41.2656 11.6578 44.7864 12.6746 47.7811 14.5799C50.7758 16.4852 53.11 19.1936 54.4886 22.3624C55.8671 25.5312 56.228 29.0181 55.5256 32.3823C54.8232 35.7464 53.0891 38.8366 50.5426 41.2622C47.9961 43.6877 44.7516 45.3395 41.2193 46.0088C37.687 46.6781 34.0257 46.3348 30.6983 45.0223C27.3709 43.7098 24.5269 41.487 22.526 38.6351C20.525 35.7832 19.457 32.4302 19.457 29.0002C19.457 24.4012 21.3752 19.9904 24.7896 16.7382C28.2041 13.486 32.8351 11.6587 37.6641 11.6582ZM34.7774 18.334L31.9456 28.5265L29.9948 29.2457L29.0569 32.5904L31.0077 31.8886L29.3837 37.7195H46.8011L47.9968 33.3927H37.5159L38.7116 29.1529L40.6238 28.4685L41.5617 25.1239L39.6474 25.8257L41.7261 18.3282H34.7774V18.334Z" fill="#404F55"/>
<g id="Group">
<path id="Vector_2" d="M63.7695 39.5888L68.5339 17.9238H73.2029L69.2465 35.9599H80.8175L80.0258 39.581L63.7695 39.5888Z" fill="#404F55"/>
<path id="Vector_3" d="M86.4783 23.894H90.924L87.473 39.5888H83.0273L86.4783 23.894ZM87.7816 17.9238H92.2354L91.397 21.7654H86.9351L87.7816 17.9238Z" fill="#404F55"/>
<path id="Vector_4" d="M92.9766 27.0415L93.6586 23.894H95.8307L96.3748 21.3807L101.48 18.4556L100.285 23.894H103.001L102.315 27.0415H99.5842L98.1409 33.6148C97.8837 34.8083 97.7545 35.4882 97.7532 35.6545C97.7454 35.7965 97.7707 35.9385 97.8272 36.0701C97.8837 36.2018 97.97 36.32 98.08 36.4162C98.2972 36.598 98.689 36.6888 99.2594 36.6888C99.4624 36.6888 99.9476 36.656 100.733 36.5864L100.035 39.7338C99.2583 39.8824 98.4681 39.9569 97.676 39.9562C96.1034 39.9562 94.9606 39.6675 94.2473 39.09C93.5341 38.5126 93.1782 37.7129 93.1796 36.6908C93.1796 36.2087 93.3711 35.0958 93.754 33.3519L95.1345 27.0415H92.9766Z" fill="#404F55"/>
<path id="Vector_5" d="M118.481 33.0597H107.316C107.316 33.2279 107.3 33.3555 107.3 33.4463C107.3 34.4903 107.613 35.3326 108.24 35.9732C108.526 36.2813 108.879 36.5271 109.273 36.6939C109.668 36.8607 110.096 36.9446 110.528 36.9399C112.007 36.9399 113.157 36.2103 113.979 34.7513L117.97 35.3797C117.194 36.907 116.158 38.0522 114.86 38.8152C113.547 39.583 112.032 39.9806 110.491 39.9617C108.276 39.9617 106.476 39.294 105.092 37.9587C103.707 36.6234 103.014 34.8577 103.013 32.6614C102.981 30.6086 103.639 28.5998 104.889 26.9271C106.596 24.6613 109.032 23.5283 112.197 23.5283C114.212 23.5283 115.815 24.1219 117.006 25.3089C118.197 26.496 118.791 28.1587 118.79 30.2969C118.802 31.2262 118.698 32.1535 118.481 33.0597ZM114.728 30.469C114.738 30.2757 114.742 30.1403 114.742 30.0417C114.742 28.8817 114.468 28.0098 113.92 27.4259C113.642 27.1358 113.301 26.9073 112.921 26.7567C112.54 26.606 112.129 26.5368 111.717 26.554C111.257 26.5555 110.8 26.6438 110.375 26.8136C109.95 26.9835 109.565 27.2317 109.241 27.5439C108.511 28.2025 108.018 29.1775 107.761 30.469H114.728Z" fill="#404F55"/>
<path id="Vector_6" d="M131.284 33.6767L135.604 34.3417C134.892 36.1745 133.837 37.5685 132.439 38.5235C131.023 39.4848 129.32 39.9877 127.581 39.9581C125.482 39.9581 123.817 39.362 122.585 38.1697C121.354 36.9775 120.741 35.3387 120.746 33.2533C120.738 31.5831 121.121 29.9322 121.865 28.4199C122.584 26.93 123.757 25.681 125.233 24.8355C126.716 23.9682 128.425 23.5153 130.165 23.5286C132.11 23.5286 133.662 24.0113 134.82 24.9767C135.979 25.942 136.631 27.2129 136.777 28.7892L132.541 29.2184C132.438 28.3407 132.155 27.6962 131.694 27.2851C131.201 26.8595 130.552 26.6364 129.887 26.6645C128.996 26.6755 128.14 26.999 127.484 27.5731C126.739 28.1841 126.168 29.0979 125.768 30.3146C125.389 31.4201 125.188 32.5738 125.172 33.7366C125.172 34.6633 125.41 35.3774 125.886 35.8787C126.107 36.1214 126.382 36.3147 126.69 36.445C126.999 36.5753 127.333 36.6394 127.671 36.6327C128.426 36.6173 129.154 36.3567 129.733 35.8942C130.399 35.4019 130.916 34.6627 131.284 33.6767Z" fill="#404F55"/>
<path id="Vector_7" d="M138.446 33.0717C138.446 30.1639 139.306 27.8439 141.028 26.1117C142.749 24.3794 145.012 23.5152 147.816 23.5191C150.252 23.5191 152.151 24.1564 153.512 25.4311C154.874 26.7058 155.556 28.4226 155.56 30.5815C155.606 33.0071 154.692 35.3604 153.001 37.1742C151.282 39.0302 148.993 39.9582 146.133 39.9582C144.702 39.9848 143.286 39.6803 142.006 39.0708C140.855 38.5242 139.914 37.6444 139.32 36.5575C138.737 35.4802 138.436 34.2839 138.446 33.0717ZM151.137 30.0421C151.137 29.0368 150.829 28.2312 150.213 27.6255C149.905 27.3239 149.534 27.0872 149.124 26.9307C148.714 26.7742 148.274 26.7013 147.832 26.7168C146.901 26.7063 145.995 27.0066 145.272 27.5655C144.521 28.1352 143.937 28.9582 143.521 30.0344C143.132 30.9847 142.922 31.9923 142.899 33.0117C142.899 34.1356 143.22 35.0275 143.862 35.6875C144.166 36.0085 144.54 36.2632 144.958 36.434C145.376 36.6048 145.827 36.6878 146.281 36.6773C147.499 36.6773 148.524 36.1798 149.355 35.1848C150.539 33.7747 151.13 32.0605 151.129 30.0421H151.137Z" fill="#404F55"/>
<path id="Vector_8" d="M160.644 23.894H165.098L161.647 39.5888H157.199L160.644 23.894ZM161.947 17.9238H166.401L165.563 21.7654H161.109L161.947 17.9238Z" fill="#404F55"/>
<path id="Vector_9" d="M169.535 23.8937H173.755L173.321 25.9315C174.201 25.1734 175.198 24.5482 176.276 24.0774C177.192 23.7084 178.177 23.5203 179.171 23.5245C180.524 23.5245 181.592 23.8938 182.375 24.6323C183.157 25.3708 183.547 26.351 183.546 27.5729C183.546 28.1232 183.375 29.1679 183.034 30.7068L181.096 39.5886H176.642L178.597 30.6759C178.888 29.3457 179.032 28.5531 179.031 28.2979C179.044 28.063 179.007 27.8281 178.92 27.6078C178.833 27.3876 178.7 27.1867 178.528 27.018C178.337 26.8565 178.115 26.7324 177.874 26.6528C177.633 26.5732 177.378 26.5396 177.123 26.554C176.471 26.554 175.747 26.815 174.951 27.337C174.15 27.8629 173.504 28.575 173.073 29.4057C172.741 30.0166 172.369 31.263 171.955 33.1447L170.544 39.5886H166.09L169.535 23.8937Z" fill="#404F55"/>
</g>
</g>
</svg>
