<svg width="178" height="24" viewBox="0 0 178 24" fill="none" xmlns="http://www.w3.org/2000/svg">
<g id="ROCKETBET white" clip-path="url(#clip0_215_27545)">
<g id="Group">
<path id="Vector" d="M52.6481 18.2919C50.7693 18.2919 49.8365 17.2577 49.8365 15.1895L50.0364 13.3495C50.3029 11.8587 50.7826 10.6231 51.5022 9.64273C52.2217 8.66232 53.1279 8.1654 54.2339 8.1654C54.8735 8.1654 55.5131 8.36685 56.1394 8.78319C56.4325 9.02494 56.6324 9.32041 56.739 9.65616C56.8456 9.99192 56.8989 10.4754 56.8989 11.0932H62.429L62.3357 9.23982C62.269 8.68918 62.1491 8.15197 61.9626 7.62818C61.6161 6.59405 60.8699 5.70765 59.7372 4.98241C59.2842 4.68694 58.7911 4.4452 58.2714 4.2706C58.0449 4.19002 57.8051 4.12287 57.5652 4.06915C57.4719 4.04229 57.3653 4.02886 57.2587 4.00199C56.5392 3.86769 55.7263 3.78711 54.8202 3.78711C54.1539 3.78711 53.4876 3.85426 52.8214 4.00199C52.4882 4.06915 52.1418 4.16316 51.8087 4.2706C51.3289 4.41833 50.8492 4.59293 50.3828 4.82124C48.8771 5.50619 47.5712 6.55376 46.4519 7.97737C45.3325 9.40099 44.5863 11.2007 44.1999 13.3629L44.0266 14.3836L44 15.4715C44 16.5459 44.1866 17.5532 44.5463 18.4933C44.9461 19.4066 45.4791 20.1587 46.1454 20.7765C47.5579 22.0389 49.53 22.6567 52.0485 22.6567C52.4483 22.6567 52.848 22.6299 53.2478 22.5896C53.6476 22.5359 54.0207 22.4821 54.3671 22.415C55.1533 22.227 55.8462 21.9986 56.4459 21.7166C57.8317 21.0585 58.9644 20.1587 59.8705 19.0305C60.7633 17.9024 61.4162 16.6399 61.8027 15.2298H56.1927C55.5131 17.2712 54.3271 18.2919 52.6481 18.2919Z" fill="white"/>
<path id="Vector_2" d="M138.665 10.8112C139.224 10.1262 139.571 9.3607 139.731 8.50115L139.811 7.64161C139.811 5.07642 137.585 3.78711 133.135 3.78711H124.047L120.742 22.6702H129.99C132.535 22.6702 134.561 22.227 136.053 21.354C137.545 20.481 138.505 19.0574 138.891 17.0831L138.998 16.5056V16.0624C138.998 15.2297 138.785 14.4911 138.345 13.8733C137.905 13.2555 137.306 12.8392 136.519 12.6243C137.426 12.1005 138.145 11.4961 138.665 10.8112ZM132.468 17.7681C131.922 18.1038 131.256 18.265 130.483 18.265H127.645L128.244 14.7865H130.19L131.696 14.8671L132.628 15.0552C133.055 15.2297 133.281 15.6058 133.281 16.1833C133.281 16.9085 133.015 17.4458 132.468 17.7681ZM133.081 10.8112C132.628 11.1738 132.055 11.3618 131.376 11.3618H128.857L129.404 8.19226H131.789C133.108 8.19226 133.761 8.55488 133.761 9.26668C133.774 9.92477 133.548 10.4486 133.081 10.8112Z" fill="white"/>
<path id="Vector_3" d="M157.733 8.19226L158.533 3.78711H143.262L139.957 22.6702H155.601L156.347 18.265H146.873L147.366 15.3103H155.081L155.881 10.9186H148.139L148.632 8.19226H157.733Z" fill="white"/>
<path id="Vector_4" d="M102.112 8.19226L102.911 3.78711H87.6406L84.3359 22.6702H99.9799L100.726 18.265H91.2518L91.7448 15.3103H99.4602L100.26 10.9186H92.5177L93.0107 8.19226H102.112Z" fill="white"/>
<path id="Vector_5" d="M160.462 3.78711L159.609 8.19226H165.086L162.648 22.6702H168.831L171.229 8.19226H176.759L177.612 3.78711H160.462Z" fill="white"/>
<path id="Vector_6" d="M104.991 3.78711L104.125 8.19226H109.615L107.163 22.6702H113.346L115.745 8.19226H121.275L122.128 3.78711H104.991Z" fill="white"/>
<path id="Vector_7" d="M21.1476 11.6441C21.8272 10.5562 22.1737 9.29379 22.1737 7.85674C22.1737 6.52714 21.654 5.51986 20.6013 4.83492C19.5486 4.14997 17.683 3.80078 14.978 3.80078H5.91674H0.386719L5.4237 6.63458L2.62538 22.6838H8.75504L9.92767 16.0895H10.8338C12.2463 16.0895 13.2324 16.197 13.7654 16.385C14.2984 16.5865 14.5649 17.1102 14.5649 17.9698L14.3517 20.0918C14.2451 20.8707 14.1918 21.5154 14.1918 21.9989L14.2184 22.6838H20.4014L20.508 22.1332C20.2148 22.1332 20.0416 21.9452 19.9883 21.5557L20.2015 20.2798L20.468 18.8159C20.5746 18.0369 20.6279 17.4057 20.6279 16.9625C20.6279 15.9687 20.4414 15.2971 20.0816 14.948C19.7751 14.5853 19.1222 14.1959 18.1361 13.7929C19.4553 13.4438 20.468 12.732 21.1476 11.6441ZM16.2572 10.113C16.0973 11.3352 15.0846 11.953 13.219 11.953H10.6206L11.3002 8.20593H14.2318C14.6182 8.20593 14.978 8.29994 15.3511 8.47454C15.7109 8.64913 15.9641 8.87745 16.124 9.17291C16.2572 9.44152 16.3105 9.76385 16.2572 10.113Z" fill="white"/>
<path id="Vector_8" d="M77.021 10.9323L82.5643 22.6838H75.2088L72.0107 15.1628L70.2917 16.6805L69.2257 22.6838H63.0694L65.9077 6.43313L61.2305 3.80078H72.5304L71.4377 9.91158L77.9138 3.80078H85.1095L77.021 10.9323Z" fill="white"/>
<g id="Group_2">
<path id="Vector_9" d="M41.5637 8.85001L41.5371 8.87687C41.697 8.54111 41.8036 8.17849 41.8435 7.80244L41.9368 7.05034L37.726 10.69L33.3553 14.7728L34.5946 14.155C34.6212 14.1416 36.6467 13.1208 37.2863 12.7851C37.4462 12.7045 37.5928 12.6105 37.7393 12.5165L37.766 12.6642C37.8726 13.1209 37.9126 13.5909 37.8859 14.0744C37.7127 16.8276 35.3408 18.9228 32.5824 18.7482C31.2499 18.6676 30.024 18.0632 29.1312 17.0694C28.2384 16.0621 27.7986 14.7862 27.8786 13.4566C28.0252 10.9451 30.0373 8.95745 32.5158 8.78285C32.0361 9.36036 31.6097 9.99158 31.2232 10.6497L28.6515 15.122L38.4989 3.96137L36.9531 4.44486C36.8465 4.48515 36.7266 4.52544 36.6333 4.57916L36.6467 4.56573L36.1803 4.40457C35.3141 4.09567 34.408 3.90764 33.4752 3.85392C27.9985 3.51816 23.2813 7.68157 22.9482 13.1477C22.7883 15.7935 23.6678 18.3452 25.44 20.3329C27.199 22.3206 29.6375 23.5025 32.2759 23.6771C32.4892 23.6905 32.689 23.6905 32.9022 23.6905C35.3275 23.6905 37.6327 22.8176 39.4716 21.1925C41.4571 19.4331 42.6431 17.0156 42.8163 14.3699C42.9229 12.5971 42.5498 10.8377 41.7503 9.26635L41.5637 8.85001Z" fill="#23D378"/>
<path id="Vector_10" d="M44.9751 0.402475C42.2834 -0.0810173 40.7643 2.229 40.7643 2.229C38.539 1.20829 37.393 2.83336 37.393 2.83336L38.4057 3.1154C38.9254 3.26313 39.4051 3.5586 39.7649 3.94808C39.8582 4.04209 39.9382 4.13611 40.0048 4.24355C40.0847 4.35099 40.1514 4.445 40.2047 4.56588L34.7812 10.9453L40.9642 5.30454C41.324 5.47914 41.6438 5.73432 41.897 6.02978C42.1502 6.32525 42.35 6.67444 42.4833 7.05049L42.8031 8.04433C42.8031 8.04433 44.3888 6.8356 43.2828 4.65989C43.2828 4.65989 43.4827 4.51216 43.7492 4.24355C43.8292 4.16297 43.9224 4.05552 44.0157 3.94808C44.6287 3.23627 45.3216 2.01411 44.9751 0.402475ZM42.3767 3.89436C41.8703 3.89436 41.4572 3.47802 41.4572 2.9811C41.4572 2.47075 41.8703 2.06784 42.3767 2.06784C42.8831 2.06784 43.2961 2.48418 43.2961 2.9811C43.2961 3.47802 42.8831 3.89436 42.3767 3.89436Z" fill="#23D378"/>
</g>
</g>
</g>
<defs>
<clipPath id="clip0_215_27545">
<rect width="178" height="24" fill="white"/>
</clipPath>
</defs>
</svg>
