<svg width="16" height="13" viewBox="0 0 16 13" fill="none" xmlns="http://www.w3.org/2000/svg">
<path d="M14.5455 0H1.45455C0.654545 0 0 0.650723 0 1.44605V4.33092H1.45455V1.43159H14.5455V11.5756H1.45455V8.66908H0V11.5684C0 12.3637 0.654545 13 1.45455 13H14.5455C15.3455 13 16 12.3637 16 11.5684V1.44605C16 0.643493 15.3455 0 14.5455 0ZM7.27273 9.3921L10.1818 6.5L7.27273 3.6079V5.77697H0V7.22303H7.27273V9.3921ZM14.5455 0H1.45455C0.654545 0 0 0.650723 0 1.44605V4.33092H1.45455V1.43159H14.5455V11.5756H1.45455V8.66908H0V11.5684C0 12.3637 0.654545 13 1.45455 13H14.5455C15.3455 13 16 12.3637 16 11.5684V1.44605C16 0.643493 15.3455 0 14.5455 0ZM7.27273 9.3921L10.1818 6.5L7.27273 3.6079V5.77697H0V7.22303H7.27273V9.3921Z" fill="white"/>
</svg>
