<svg width="192" height="26" viewBox="0 0 192 26" fill="none" xmlns="http://www.w3.org/2000/svg">
<path d="M22.4667 13.9128C23.2076 12.7418 23.578 11.3878 23.578 9.85054C23.578 8.42724 23.0101 7.34427 21.8772 6.60305C20.7443 5.86328 18.7163 5.49268 15.7932 5.49268H5.98604H5.9846H0L5.44984 8.53828L2.41719 25.7635H9.04896L10.3145 18.6788H11.2975C12.8326 18.6788 13.892 18.7869 14.4729 19.0018C15.0537 19.2181 15.3435 19.7848 15.3435 20.7034L15.1186 22.9804C15.0062 23.824 14.95 24.5075 14.95 25.0324L14.9788 25.7635H21.6668L21.7792 25.1723C21.4607 25.1723 21.2733 24.9661 21.2171 24.5537L21.4419 23.1765L21.723 21.6018C21.8354 20.7596 21.8916 20.0934 21.8916 19.606C21.8916 18.5374 21.6942 17.8164 21.3007 17.4415C20.9634 17.0478 20.2614 16.6354 19.1934 16.2042C20.6362 15.848 21.7273 15.0852 22.4667 13.9128ZM17.1711 12.2689C17.0025 13.5811 15.9056 14.2373 13.8833 14.2373H11.0727L11.8034 10.2168H14.9788C15.391 10.2168 15.7932 10.3106 16.1867 10.498C16.5802 10.6855 16.8569 10.9335 17.0154 11.2421C17.1754 11.5522 17.2273 11.8939 17.1711 12.2689Z" fill="white"/>
<path d="M29.8917 0.0771849L29.8967 0.0722757H29.89C26.7529 -0.462827 24.9759 2.14887 24.9759 2.14887C22.3798 0.990296 21.0416 2.83452 21.0416 2.83452L22.2241 3.15853C22.8371 3.32708 23.3847 3.65436 23.8102 4.09946C23.9123 4.20419 24.0044 4.31546 24.0915 4.43165C24.1786 4.54619 24.2557 4.66729 24.326 4.79329L18 11.9967V12L25.2154 5.62622C25.6358 5.8275 26.0043 6.10405 26.3024 6.44115C26.6022 6.77661 26.8333 7.16934 26.979 7.60135L27.3576 8.73211C27.3576 8.73211 29.2133 7.37226 27.9237 4.90293C27.9237 4.90293 28.1598 4.74093 28.473 4.43328C28.5719 4.33674 28.6757 4.2271 28.7829 4.10109C29.4847 3.29435 30.297 1.90832 29.8917 0.0788213M26.8651 1.96068C27.4581 1.96068 27.9371 2.42542 27.9371 2.99489C27.9371 3.56435 27.4581 4.03073 26.8651 4.03073C26.2722 4.03073 25.7966 3.56763 25.7966 2.99489C25.7966 2.42215 26.2756 1.96068 26.8651 1.96068Z" fill="#23D378"/>
</svg>
