<svg width="24" height="24" viewBox="0 0 24 24" fill="none" xmlns="http://www.w3.org/2000/svg">
<g id="icon-menu-close">
<g id="Group">
<g id="Group_2">
<g id="Group_3">
<path id="Vector" d="M13.4392 12.5L20.8055 19.8663C21.0648 20.1257 21.0648 20.5462 20.8055 20.8055C20.5461 21.0648 20.1257 21.0648 19.8663 20.8055L12.5 13.4391L5.13366 20.8055C4.87431 21.0648 4.45383 21.0648 4.19451 20.8055C3.9352 20.5461 3.93516 20.1257 4.19451 19.8663L11.5608 12.5L4.19451 5.13362C3.93516 4.87427 3.93516 4.45379 4.19451 4.19447C4.32417 4.06481 4.49414 4 4.6641 4C4.83407 4 5.004 4.06481 5.13369 4.19447L12.5 11.5608L19.8663 4.19447C19.996 4.06481 20.1659 4 20.3359 4C20.5059 4 20.6758 4.06481 20.8055 4.19447C21.0648 4.45382 21.0648 4.8743 20.8055 5.13362L13.4392 12.5Z" fill="white"/>
</g>
</g>
</g>
</g>
</svg>
