<svg width="16" height="12" viewBox="0 0 16 12" fill="none" xmlns="http://www.w3.org/2000/svg">
<g id="message">
<path id="Subtract" fill-rule="evenodd" clip-rule="evenodd" d="M1.44434 0.131779L8 5.42263L14.5557 0.131779C14.3253 0.0464769 14.077 0 13.8182 0H2.18182C1.92299 0 1.67469 0.0464768 1.44434 0.131779ZM0.299098 1.11224C0.109002 1.44606 0 1.8349 0 2.25V9.75C0 10.9926 0.976834 12 2.18182 12H13.8182C15.0232 12 16 10.9926 16 9.75V2.25C16 1.8349 15.891 1.44606 15.7009 1.11224L8.44822 6.96563C8.18493 7.17812 7.81507 7.17812 7.55178 6.96563L0.299098 1.11224Z" fill="#404F55"/>
</g>
</svg>
