<svg width="178" height="63" viewBox="0 0 178 63" fill="none" xmlns="http://www.w3.org/2000/svg">
<g clip-path="url(#clip0_2_18405)">
<path d="M178 0V57.6C178 60.1 176 62.2 173.4 62.2H4.6C2 62.2 0 60.1 0 57.6V14.8C0 12.3 2 10.3 4.6 10.3H167.6L177.1 0H178Z" fill="#FF4040"/>
<path d="M34.3016 30.3998C34.3016 35.6998 30.3016 39.5998 24.9016 39.5998H21.1016V46.5998H14.1016V21.2998H24.9016C30.3016 21.2998 34.3016 25.0998 34.3016 30.3998ZM27.1016 30.3998C27.1016 28.5998 25.9016 27.3998 24.1016 27.3998H21.1016V33.4998H24.1016C25.9016 33.4998 27.1016 32.1998 27.1016 30.3998Z" fill="white"/>
<path d="M37.1016 20H43.9016V46.6H37.1016V20Z" fill="white"/>
<path d="M68.9 26.9999V46.5999H63.7L63.1 45.1999C61.5 46.4999 59.5 47.1999 57.2 47.1999C51.3 47.1999 47 42.8999 47 36.7999C47 30.6999 51.3 26.3999 57.2 26.3999C59.5 26.3999 61.6 27.1999 63.2 28.4999L63.9 26.9999H68.9ZM62.5 36.7999C62.5 34.2999 60.7 32.3999 58.2 32.3999C55.6 32.3999 53.8 34.2999 53.8 36.7999C53.8 39.3999 55.7 41.2999 58.2 41.2999C60.7 41.2999 62.5 39.3999 62.5 36.7999Z" fill="white"/>
<path d="M86.2992 40.6998V46.5998H81.6992C77.3992 46.5998 74.7992 43.9998 74.7992 39.5998V32.1998H71.1992V30.6998L79.9992 21.2998H81.2992V27.0998H86.1992V32.1998H81.4992V38.4998C81.4992 39.8998 82.2992 40.6998 83.7992 40.6998H86.2992Z" fill="white"/>
<path d="M89.5 27.0999H96.2V46.5999H89.5V27.0999ZM89.5 18.8999H96.2V24.5999H89.5V18.8999Z" fill="white"/>
<path d="M122.098 36.7999C122.098 42.8999 117.898 47.2999 111.898 47.2999C110.098 47.2999 108.498 46.7999 107.098 45.9999V53.6999H100.398V27.0999H104.998L105.898 28.5999C107.498 27.1999 109.498 26.3999 111.898 26.3999C117.898 26.3999 122.098 30.6999 122.098 36.7999ZM115.398 36.7999C115.398 34.2999 113.498 32.3999 110.998 32.3999C108.498 32.3999 106.598 34.2999 106.598 36.7999C106.598 39.3999 108.498 41.2999 110.998 41.2999C113.498 41.2999 115.398 39.3999 115.398 36.7999Z" fill="white"/>
<path d="M125 38.2001V27.1001H131.7V37.9001C131.7 40.0001 132.8 41.2001 134.6 41.2001C136.4 41.2001 137.5 40.0001 137.5 37.9001V27.1001H144.3V38.2001C144.3 43.7001 140.4 47.3001 134.6 47.3001C128.8 47.2001 125 43.7001 125 38.2001Z" fill="white"/>
<path d="M155.802 47.1999C150.402 47.1999 147.202 44.3999 147.102 40.1999H153.602C153.602 41.5999 154.602 42.2999 155.902 42.2999C156.902 42.2999 157.802 41.7999 157.802 40.7999C157.802 39.5999 156.302 39.2999 154.402 38.9999C151.402 38.4999 147.402 37.5999 147.402 32.8999C147.402 28.8999 150.702 26.3999 155.802 26.3999C160.702 26.3999 164.002 29.0999 164.002 32.9999H157.702C157.702 31.7999 156.902 31.1999 155.602 31.1999C154.602 31.1999 153.802 31.6999 153.802 32.5999C153.802 33.6999 155.302 33.9999 157.202 34.2999C160.302 34.8999 164.402 35.4999 164.402 40.4999C164.402 44.5999 160.902 47.1999 155.802 47.1999Z" fill="white"/>
</g>
<defs>
<clipPath id="clip0_2_18405">
<rect width="178" height="63" fill="white"/>
</clipPath>
</defs>
</svg>
