<svg width="24" height="24" viewBox="0 0 24 24" fill="none" xmlns="http://www.w3.org/2000/svg">
<g id="icon-home">
<g id="Group">
<g id="Group_2">
<g id="Group_3">
<g id="Group_4">
<path id="Vector" d="M14.9293 18.987C13.8891 18.7976 12.2692 18.7365 10.856 18.8042C11.7844 17.6331 11.7836 16.214 11.7833 15.6437V15.6068C11.7833 15.3966 11.6551 15.2077 11.4598 15.1306C11.2646 15.0535 11.0421 15.1026 10.8982 15.2559C10.1803 16.0196 9.05026 16.4994 8.02478 16.4761C7.15798 16.4575 6.39323 16.0917 5.81351 15.4182C5.21216 14.7198 4.92755 13.717 5.05238 12.7354C5.16528 11.8456 5.66179 10.5336 7.38405 9.33666C10.1157 7.43853 11.218 6.18117 12.3852 4.84977C12.5716 4.63701 12.5502 4.31358 12.3375 4.12718C12.125 3.94049 11.8013 3.96187 11.6152 4.17462C10.4419 5.51325 9.42863 6.66938 6.79989 8.49565C4.76834 9.9075 4.17583 11.5102 4.03659 12.6064C3.876 13.871 4.25019 15.1719 5.03766 16.0864C5.8121 16.986 6.8373 17.475 8.00259 17.5002C8.92127 17.5193 9.8738 17.2422 10.6787 16.743C10.5315 17.5368 10.1154 18.4694 8.94233 19.0283C8.71045 19.1387 8.59643 19.4036 8.67523 19.648C8.75427 19.8921 9.00225 20.041 9.25438 19.9942C10.6657 19.737 13.3347 19.737 14.746 19.9942C14.7768 19.9997 14.8078 20.0025 14.8383 20.0025C15.081 20.0025 15.2966 19.8294 15.3409 19.5825C15.392 19.3046 15.2076 19.0378 14.9293 18.987Z" />
<path id="Vector_2" d="M19.9637 12.6069C19.8244 11.5109 19.2319 9.90795 17.2001 8.49609C15.3209 7.19075 14.2391 6.10507 13.3698 5.23271L13.3062 5.1692C13.1068 4.96866 12.7823 4.96838 12.5823 5.1681C12.382 5.36754 12.3815 5.69178 12.5812 5.89207L12.6447 5.95558C13.5428 6.85707 14.661 7.97907 16.6159 9.33713C18.3385 10.534 18.8347 11.846 18.9476 12.7359C19.0722 13.7175 18.7878 14.7203 18.1865 15.4187C17.6054 16.0936 16.8387 16.4594 15.9699 16.4766C14.9361 16.5074 13.8053 16.0123 13.0855 15.2412C12.9421 15.087 12.7193 15.0365 12.5235 15.1141C12.3276 15.1912 12.1992 15.3801 12.1992 15.5907C12.1995 16.1474 12.3068 18.0161 13.6874 18.6724C13.7584 18.7062 13.833 18.7223 13.9068 18.7223C14.0982 18.7223 14.2818 18.6147 14.3692 18.4299C14.4907 18.1744 14.3822 17.869 14.1268 17.7475C13.7501 17.5686 13.5298 17.1878 13.4014 16.792C14.1878 17.2591 15.1001 17.5151 15.9902 17.501C17.1583 17.4777 18.186 16.9886 18.9626 16.0869C19.7498 15.1723 20.124 13.8714 19.9637 12.6069Z" />
</g>
</g>
</g>
</g>
</g>
</svg>
