<svg width="36" height="36" viewBox="0 0 36 36" fill="none" xmlns="http://www.w3.org/2000/svg">
<g id="icon-all-games">
<g id="icon-Promotions">
<g id="Group">
<g id="Group_2">
<g id="Group_3">
<path id="Vector" d="M28.6995 18.9082C28.5356 18.6562 28.5356 18.3307 28.6995 18.0787L29.612 16.6761C30.4432 15.3985 29.8832 13.6822 28.4626 13.1384L26.8999 12.5401C26.6191 12.4325 26.4277 12.1691 26.4123 11.8688L26.3261 10.1978C26.2477 8.67599 24.7858 7.6161 23.3167 8.0114L21.7009 8.44584C21.4106 8.52383 21.1008 8.42324 20.9119 8.18943L19.8599 6.88812C18.9019 5.70301 17.0965 5.70491 16.1401 6.88812L15.0881 8.18948C14.8991 8.42334 14.5895 8.52383 14.2991 8.44589L12.6832 8.01145C11.2112 7.61557 9.75202 8.67897 9.67374 10.1979L9.58761 11.8689C9.57209 12.1691 9.38073 12.4325 9.09998 12.5401L7.53743 13.1384C6.11382 13.6833 5.55825 15.4011 6.38784 16.6761L7.30039 18.0787C7.46432 18.3306 7.46432 18.6562 7.30039 18.9082L6.38799 20.3107C5.55669 21.5884 6.11694 23.3048 7.53747 23.8485L9.10012 24.4468C9.38088 24.5544 9.57228 24.8178 9.58775 25.118L9.67389 26.789C9.75236 28.3112 11.2145 29.3706 12.6834 28.9755L14.2992 28.541C14.5896 28.4631 14.8992 28.5636 15.0882 28.7974L16.1401 30.0987C17.0984 31.2842 18.9037 31.2817 19.86 30.0987L20.9119 28.7974C21.1009 28.5637 21.4107 28.4632 21.7009 28.541L23.3168 28.9755C24.7884 29.3715 26.248 28.3082 26.3263 26.789L26.4124 25.118C26.4279 24.8178 26.6193 24.5544 26.9001 24.4469L28.4626 23.8486C29.8861 23.3036 30.4417 21.5859 29.6122 20.3107L28.6995 18.9082ZM27.8794 22.3253L26.3167 22.9237C25.4339 23.2617 24.8321 24.09 24.7834 25.034L24.6973 26.705C24.6724 27.1892 24.2075 27.5259 23.7402 27.4004L22.1243 26.9659C21.2115 26.7204 20.2376 27.037 19.6434 27.7721L18.5916 29.0733C18.2868 29.4503 17.7127 29.4495 17.4085 29.0733L16.3567 27.7721C15.8961 27.2022 15.2074 26.884 14.4957 26.884C14.2894 26.884 14.081 26.9107 13.8757 26.9659L12.2598 27.4004C11.7915 27.5261 11.3277 27.1882 11.3027 26.705L11.2165 25.034C11.1679 24.09 10.566 23.2616 9.68326 22.9237L8.12061 22.3253C7.66787 22.1519 7.49126 21.6058 7.75508 21.2003L8.66759 19.7977C9.18309 19.0054 9.18309 17.9814 8.66759 17.1891L7.75508 15.7866C7.49067 15.3803 7.6688 14.8345 8.12066 14.6615L9.68331 14.0632C10.5661 13.7252 11.1679 12.8968 11.2166 11.9529L11.3027 10.2819C11.3277 9.79771 11.7925 9.46098 12.2598 9.58649L13.8757 10.0209C14.7886 10.2665 15.7624 9.94992 16.3566 9.21482L17.4086 7.91351C17.7133 7.53656 18.2875 7.53734 18.5916 7.91351L19.6435 9.21487C20.2378 9.94997 21.2115 10.2665 22.1244 10.0209L23.7403 9.58649C24.2086 9.46073 24.6724 9.79869 24.6974 10.2819L24.7834 11.9529C24.8321 12.8968 25.434 13.7253 26.3167 14.0632L27.8794 14.6616C28.3321 14.8348 28.5087 15.3811 28.2449 15.7866L27.3325 17.1891C26.8169 17.9814 26.8169 19.0054 27.3324 19.7977L28.2449 21.2002C28.5093 21.6066 28.3312 22.1523 27.8794 22.3253Z" />
</g>
</g>
<g id="Group_4">
<g id="Group_5">
<path id="Vector_2" d="M22.0739 14.3375C21.7555 14.019 21.2391 14.019 20.9206 14.3375L13.3091 21.9489C12.9907 22.2674 12.9907 22.7838 13.3092 23.1022C13.4684 23.2615 13.6771 23.3411 13.8858 23.3411C14.0945 23.3411 14.3033 23.2615 14.4625 23.1022L22.074 15.4907C22.3924 15.1723 22.3924 14.6559 22.0739 14.3375Z" />
</g>
</g>
<g id="Group_6">
<g id="Group_7">
<path id="Vector_3" d="M14.7013 14.0986C13.802 14.0986 13.0703 14.8303 13.0703 15.7297C13.0703 16.629 13.8021 17.3607 14.7013 17.3607C15.6007 17.3607 16.3324 16.629 16.3324 15.7297C16.3324 14.8303 15.6007 14.0986 14.7013 14.0986Z" />
</g>
</g>
<g id="Group_8">
<g id="Group_9">
<path id="Vector_4" d="M20.6818 20.0791C19.7824 20.0791 19.0508 20.8108 19.0508 21.7101C19.0508 22.6095 19.7825 23.3412 20.6818 23.3412C21.5811 23.3412 22.3128 22.6095 22.3128 21.7101C22.3129 20.8108 21.5812 20.0791 20.6818 20.0791Z" />
</g>
</g>
</g>
</g>
</g>
</svg>
