<svg width="36" height="36" viewBox="0 0 36 36" fill="none" xmlns="http://www.w3.org/2000/svg">
<g id="icon-all-games">
<g id="icon-Ratings">
<g id="Group">
<path id="Vector" d="M11.3717 29.9997C11.1088 29.9997 10.8476 29.9177 10.6248 29.7565C10.2097 29.4557 10.0158 28.9386 10.1288 28.4396L11.6727 21.6384L6.43652 17.0463C6.05163 16.7103 5.90459 16.1782 6.06261 15.6913C6.22064 15.2053 6.65058 14.8613 7.15963 14.8142L14.0878 14.1852L16.8269 7.7751C17.0289 7.30415 17.4889 7 17.9999 7C18.511 7 18.971 7.30415 19.1729 7.77401L21.9121 14.1852L28.8391 14.8142C29.3493 14.8602 29.7792 15.2053 29.9372 15.6913C30.0952 16.1773 29.9491 16.7103 29.5642 17.0463L24.328 21.6374L25.872 28.4385C25.9852 28.9386 25.7911 29.4557 25.3761 29.7556C24.9621 30.0556 24.4101 30.0786 23.9741 29.8166L17.9999 26.2465L12.0258 29.8186C11.8238 29.9386 11.5988 29.9997 11.3717 29.9997ZM17.9999 24.7086C18.227 24.7086 18.4518 24.7695 18.654 24.8895L24.2921 28.2616L22.8349 21.8423C22.7309 21.3855 22.886 20.9085 23.2391 20.5994L28.1832 16.2634L21.642 15.6693C21.171 15.6263 20.766 15.3302 20.582 14.8963L17.9999 8.84703L15.4148 14.8972C15.2328 15.3282 14.8277 15.6243 14.3579 15.6673L7.81571 16.2613L12.7597 20.5974C13.1138 20.9074 13.2687 21.3835 13.1638 21.8414L11.7077 28.2605L17.3459 24.8895C17.5478 24.7695 17.7729 24.7086 17.9999 24.7086ZM14.0349 14.3092C14.0349 14.3092 14.0349 14.3103 14.0338 14.3112L14.0349 14.3092ZM21.963 14.3063L21.9641 14.3083C21.9641 14.3072 21.9641 14.3072 21.963 14.3063Z" />
</g>
</g>
</g>
</svg>
