<svg width="24" height="24" viewBox="0 0 24 24" fill="none" xmlns="http://www.w3.org/2000/svg">
<g id="icon-feedback-star">
<g id="Group">
<path id="Vector" d="M19.9583 9.7942C19.8535 9.47022 19.5662 9.24011 19.2262 9.20947L14.6082 8.79015L12.7821 4.516C12.6474 4.20276 12.3408 4 12.0001 4C11.6594 4 11.3527 4.20276 11.2181 4.51674L9.39197 8.79015L4.77321 9.20947C4.43385 9.24085 4.14722 9.47022 4.04187 9.7942C3.93652 10.1182 4.03381 10.4735 4.29053 10.6975L7.78121 13.7589L6.75189 18.2931C6.67657 18.6264 6.80597 18.9711 7.08259 19.171C7.23128 19.2784 7.40523 19.3331 7.58065 19.3331C7.7319 19.3331 7.88193 19.2924 8.01657 19.2118L12.0001 16.831L15.9821 19.2118C16.2735 19.3871 16.6408 19.3711 16.9168 19.171C17.1935 18.9704 17.3228 18.6257 17.2475 18.2931L16.2182 13.7589L19.7089 10.6982C19.9656 10.4735 20.0636 10.1188 19.9583 9.7942Z" fill="#404F55"/>
</g>
</g>
</svg>
