<svg width="24" height="24" viewBox="0 0 24 24" fill="none" xmlns="http://www.w3.org/2000/svg">
<g id="icon-home">
<g id="Group">
<g id="Group_2">
<g id="Group_3">
<g id="Group_4">
<path id="Vector" d="M12.1309 14.1471C12.2075 14.1844 12.2886 14.2023 12.3681 14.2023C12.5685 14.2023 12.7614 14.0901 12.855 13.8976C12.9862 13.6288 12.8744 13.3042 12.6055 13.1733C10.9808 12.3811 8.94744 10.9063 8.48634 8.3785C8.32581 7.49627 8.51276 6.18817 9.29138 5.25485C9.94029 4.47769 10.8748 4.08323 12.0687 4.08323C13.9182 4.08323 15.2475 5.15448 15.6246 6.94829C16.0006 8.73771 15.2613 11.0422 13.1197 11.984C12.8461 12.1046 12.7217 12.424 12.842 12.6981C12.9627 12.9716 13.2826 13.0963 13.5561 12.9757C16.2263 11.8017 17.1514 8.94285 16.6853 6.7255C16.2026 4.42756 14.4337 3 12.069 3C10.1628 3 9.05426 3.84879 8.45995 4.5608C7.38813 5.84513 7.23022 7.52448 7.42097 8.57252C7.85036 10.9263 9.47895 12.8543 12.1309 14.1471Z" />
<path id="Vector_2" d="M15.1325 12.4305C14.9109 12.9125 14.6415 13.3333 14.3322 13.6817C14.1335 13.9054 14.1534 14.2478 14.3771 14.4466C14.601 14.6455 14.9432 14.6256 15.1419 14.4017C15.4313 14.0762 15.6902 13.7025 15.9147 13.2878C16.8154 13.5696 18.965 14.5757 18.7733 17.7319C18.7551 18.0307 18.9826 18.2875 19.2813 18.3057C19.2922 18.3063 19.3034 18.3066 19.3145 18.3066C19.5986 18.3066 19.8372 18.0852 19.8554 17.7976C20.1501 12.9409 15.7609 12.13 15.7163 12.1227C15.475 12.0792 15.2349 12.2069 15.1325 12.4305Z" />
<path id="Vector_3" d="M19.4582 18.8487H16.6735L17.5179 16.5134C17.5669 16.3781 17.5605 16.2293 17.4991 16.0993C17.4384 15.9693 17.3283 15.8686 17.193 15.8196L15.2533 15.1179C14.9719 15.0169 14.6614 15.1616 14.5595 15.4431C14.4577 15.7245 14.6032 16.035 14.8847 16.1369L16.3149 16.6543L15.5212 18.8487H14.3937V15.1026C14.3937 14.8032 14.1512 14.5608 13.8519 14.5608H10.9161C10.0893 14.1998 9.38065 13.4477 8.91329 12.4309C8.82056 12.2296 8.61275 12.1022 8.39293 12.1163C8.32219 12.1201 6.64988 12.2231 5.37934 13.7056C4.25587 15.0157 3.81534 16.9472 4.07008 19.4454C4.09796 19.7216 4.331 19.932 4.60893 19.932H8.09126C8.0938 19.932 8.09629 19.9323 8.09883 19.9323C8.10108 19.9323 8.10336 19.932 8.10561 19.932H10.1422C10.1442 19.932 10.1461 19.9323 10.1481 19.9323C10.1501 19.9323 10.1519 19.932 10.1539 19.932H15.8945C15.8968 19.932 15.8991 19.9323 15.9014 19.9323C15.9039 19.9323 15.9064 19.932 15.909 19.932H19.4582C19.7573 19.932 20 19.6898 20 19.3905C20 19.0911 19.7576 18.8487 19.4582 18.8487ZM13.3099 18.8487H10.6898V15.6444H10.8112C10.8151 15.6443 10.819 15.6445 10.8229 15.6444H13.3098V18.8487H13.3099ZM6.18887 14.4264C6.85687 13.6378 7.66574 13.3537 8.11272 13.2524C8.50748 13.9862 9.01872 14.5945 9.61009 15.0407C9.60778 15.061 9.60629 15.0816 9.60629 15.1026V18.8487H8.47921L7.68538 16.654L9.11585 16.1365C9.39731 16.035 9.54289 15.7242 9.44103 15.4427C9.33947 15.1613 9.02868 15.0166 8.74721 15.1175L6.80726 15.8193C6.67227 15.8683 6.56221 15.969 6.50116 16.099C6.44011 16.229 6.43337 16.3778 6.48238 16.5131L7.32697 18.8487H5.10734C4.98233 16.9079 5.34508 15.4219 6.18887 14.4264Z" />
</g>
</g>
</g>
</g>
</g>
</svg>
