<svg width="24" height="24" viewBox="0 0 24 24" fill="none" xmlns="http://www.w3.org/2000/svg">
<g id="icon-home">
<g id="Group">
<g id="Group_2">
<path id="Vector" d="M18.016 7.73271C17.6792 7.349 17.0652 7.41307 16.8134 7.85468C16.4119 8.55856 15.735 9.36726 14.6546 9.69459C15.2953 6.85453 14.3458 4.03779 12.5257 2.21744C12.2358 1.92752 11.7657 1.92752 11.4759 2.21744L6.3446 7.34867C3.21863 10.4747 3.2183 15.5345 6.3446 18.6609C9.47064 21.7869 14.5305 21.7873 17.6569 18.6609C20.6474 15.6703 20.7842 10.8856 18.016 7.73271ZM10.6364 18.9539C9.88241 18.1999 9.88223 16.9794 10.6364 16.2253L12.0008 14.8609L13.3651 16.2253H13.3651C14.1191 16.9793 14.1193 18.1998 13.3651 18.954C12.6124 19.7067 11.3898 19.7073 10.6364 18.9539ZM15.2456 18.6537C15.6328 17.469 15.3582 16.1187 14.415 15.1754L12.5257 13.2862C12.2358 12.9963 11.7657 12.9963 11.4759 13.2862L9.58667 15.1754C8.64457 16.1175 8.36831 17.4674 8.75596 18.6537C5.02944 16.5144 4.37775 11.4152 7.39448 8.39851L11.9664 3.82659C13.3073 5.56139 13.8239 7.92554 12.9188 10.3238C12.7358 10.8089 13.0949 11.3283 13.6133 11.3283C15.152 11.3283 16.4956 10.6826 17.4854 9.48796C19.4801 12.5899 18.4958 16.7878 15.2456 18.6537Z" />
</g>
</g>
</g>
</svg>
