<svg width="16" height="16" viewBox="0 0 16 16" fill="none" xmlns="http://www.w3.org/2000/svg">

    <path d="M15.9293 2.73872C15.8347 2.56184 15.6616 2.46158 15.4815 2.47954L14.6836 2.55943L15.4462 0.792271C15.537 0.581798 15.5012 0.328217 15.357 0.161642C15.2129 -0.00493336 14.9925 -0.0473944 14.809 0.0559202L12.7906 1.1922C11.5436 0.435447 9.98572 0.660074 8.91371 1.78263C8.01902 2.71951 7.54874 4.16027 7.63643 5.59705C5.29801 5.32763 3.31863 3.78901 2.14819 1.30292C2.07053 1.13799 1.92494 1.03012 1.76222 1.01686C1.59919 1.00382 1.44212 1.08688 1.34506 1.23764C0.619121 2.36498 0.568184 3.91068 1.13728 5.18232C0.980404 5.13677 0.813466 5.07512 0.62834 5.00403C0.469746 4.94307 0.294901 4.98212 0.16762 5.10684C0.0403379 5.23157 -0.0208498 5.42379 0.00636902 5.6135C0.231557 7.18291 1.02769 8.38906 2.28531 9.10299C2.12156 9.16855 1.95447 9.22179 1.78456 9.26249C1.61575 9.30294 1.47906 9.44491 1.42703 9.6339C1.375 9.82285 1.41569 10.0294 1.5335 10.1741C2.43916 11.287 3.74741 11.8347 4.67667 12.0974C3.6201 13.0486 2.47957 13.2077 0.822247 13.1423C0.630403 13.1356 0.453652 13.2599 0.372995 13.4598C0.29237 13.6597 0.323651 13.8957 0.452496 14.059C1.14337 14.9344 3.66044 15.9215 6.30645 15.9955C6.41111 15.9984 6.51786 16 6.62686 16C8.48471 16 10.9401 15.5422 12.7025 13.5162C14.0365 11.9828 14.8708 10.2175 15.1824 8.26954C15.434 6.69622 15.275 5.43633 15.1985 4.83081C15.1929 4.7863 15.1869 4.73906 15.182 4.69775L15.9283 3.31507C16.0235 3.13869 16.0239 2.91561 15.9293 2.73872Z"
          fill="currentColor"/>

</svg>
