<svg width="24" height="26" viewBox="0 0 24 26" fill="none" xmlns="http://www.w3.org/2000/svg">
<g id="usdt">
<g id="Group">
<g id="Layer 43">
<path id="Vector" d="M12 24.7793C18.6274 24.7793 24 19.4067 24 12.7793C24 6.15188 18.6274 0.779297 12 0.779297C5.37258 0.779297 0 6.15188 0 12.7793C0 19.4067 5.37258 24.7793 12 24.7793Z" fill="#00EED1"/>
<path id="Vector_2" d="M15.7229 7.40039H8.27458C7.94535 7.40039 7.6296 7.53118 7.39679 7.76398C7.16399 7.99679 7.0332 8.31254 7.0332 8.64177C7.0332 8.971 7.16399 9.28675 7.39679 9.51956C7.6296 9.75236 7.94535 9.88315 8.27458 9.88315H10.7573V18.5728C10.7573 18.902 10.8881 19.2178 11.1209 19.4506C11.3537 19.6834 11.6695 19.8142 11.9987 19.8142C12.328 19.8142 12.6437 19.6834 12.8765 19.4506C13.1093 19.2178 13.2401 18.902 13.2401 18.5728V9.88315H15.7229C16.0521 9.88315 16.3678 9.75236 16.6006 9.51956C16.8334 9.28675 16.9642 8.971 16.9642 8.64177C16.9642 8.31254 16.8334 7.99679 16.6006 7.76398C16.3678 7.53118 16.0521 7.40039 15.7229 7.40039Z" fill="white"/>
<path id="Vector_3" d="M12.0001 15.6759C11.581 15.6759 11.1535 15.6602 10.7285 15.6296C8.54331 15.4728 6.20703 14.8595 6.20703 13.607C6.20703 12.7438 7.38965 12.0594 9.452 11.73C9.55873 11.7161 9.66668 11.7444 9.75292 11.8088C9.83916 11.8732 9.89692 11.9687 9.91394 12.0749C9.93095 12.1812 9.90588 12.29 9.84405 12.3781C9.78222 12.4662 9.68849 12.5267 9.58276 12.5468C7.67641 12.8518 7.03462 13.4026 7.03462 13.607C7.03462 13.938 8.28882 14.6249 10.7881 14.8041C11.5948 14.8628 12.4047 14.8628 13.2113 14.8041C15.7114 14.6249 16.9657 13.9401 16.9657 13.607C16.9657 13.4026 16.3239 12.8518 14.4175 12.5468C14.3118 12.5267 14.2181 12.4662 14.1562 12.3781C14.0944 12.29 14.0693 12.1812 14.0863 12.0749C14.1033 11.9687 14.1611 11.8732 14.2473 11.8088C14.3336 11.7444 14.4415 11.7161 14.5483 11.73C16.6106 12.0594 17.7932 12.7438 17.7932 13.607C17.7932 14.8595 15.457 15.4728 13.2709 15.6296C12.8468 15.6602 12.4193 15.6759 12.0001 15.6759Z" fill="white"/>
</g>
</g>
</g>
</svg>
