<svg width="50" height="16" viewBox="0 0 50 16" fill="none" xmlns="http://www.w3.org/2000/svg">
<g id="visa-logo">
<path id="Vector" fill-rule="evenodd" clip-rule="evenodd" d="M24.7598 0.286667L21.4182 15.7573H17.3768L20.7197 0.286667H24.7598ZM41.7571 10.2733L43.8847 4.46667L45.1067 10.2747H41.7557L41.7571 10.2733ZM46.2654 15.7573H50L46.7432 0.286667H43.2913C42.5174 0.286667 41.862 0.733333 41.5713 1.42L35.5113 15.7573H39.7505L40.5943 13.4467H45.7783L46.2654 15.7573ZM35.7185 10.708C35.7387 6.62 30.0205 6.39733 30.0595 4.57467C30.0729 4.01867 30.6059 3.428 31.7727 3.276C32.3514 3.20133 33.9461 3.144 35.7562 3.96667L36.4654 0.685333C35.2566 0.237261 33.9771 0.00522037 32.6865 0C28.6949 0 25.8822 2.10533 25.8593 5.12C25.8351 7.34533 27.8659 8.58667 29.3987 9.32933C30.9719 10.0867 31.4981 10.572 31.4941 11.2533C31.4806 12.288 30.2358 12.748 29.0757 12.7627C27.0436 12.7973 25.8633 12.2213 24.9267 11.7907L24.1932 15.18C25.1353 15.6093 26.878 15.9787 28.6868 16C32.9287 16 35.7064 13.92 35.7185 10.708ZM18.9864 0.286667L12.4405 15.7573H8.16892L4.94846 3.41067C4.75063 2.648 4.57971 2.37333 3.98622 2.05067C3.01725 1.52667 1.41308 1.03733 0 0.733333L0.0982423 0.286667H6.97117C7.84863 0.286667 8.63591 0.861333 8.83374 1.864L10.5362 10.8173L14.7404 0.286667H18.9864Z" fill="white"/>
</g>
</svg>
